<?xml version="1.0" encoding="UTF-8"?>
<svg id="j" data-name="_x35_._Media-Entertainment" xmlns="http://www.w3.org/2000/svg" viewBox="0 0 184 36">
  <g>
    <path d="M6.63,12.78h4.12M6.63,18.54h5.57M15.88,18.54h5.57M21.44,15.42v7.9c0,.92,0,1.38-.18,1.74-.16.31-.41.56-.72.72-.35.18-.81.18-1.74.18h-9.55c-.92,0-1.38,0-1.74-.18-.31-.16-.56-.41-.72-.72-.18-.35-.18-.81-.18-1.74v-5.43c0-.92,0-1.38.18-1.74.16-.31.41-.56.72-.72.35-.18.81-.18,1.74-.18h1.21c.4,0,.6,0,.79-.05.17-.04.33-.11.48-.2.17-.1.31-.24.59-.53l.93-.93c.28-.28.43-.43.59-.53.15-.09.31-.16.48-.2.19-.05.39-.05.79-.05h3.68c.92,0,1.38,0,1.74.18.31.16.56.41.72.72.18.35.18.81.18,1.74ZM16.51,20.19c0,1.36-1.11,2.47-2.47,2.47s-2.47-1.11-2.47-2.47,1.11-2.47,2.47-2.47,2.47,1.11,2.47,2.47Z" fill="none" stroke="#231f20" stroke-linecap="round" stroke-linejoin="round" stroke-width="2"/>
    <line x1="22.28" y1="6.29" x2="20.95" y2="9.87" fill="none" stroke="#231f20" stroke-linecap="round" stroke-linejoin="round" stroke-width="2"/>
    <line x1="27.28" y1="10.71" x2="24.18" y2="12.5" fill="none" stroke="#231f20" stroke-linecap="round" stroke-linejoin="round" stroke-width="2"/>
  </g>
  <g>
    <path d="M37.35,12.52c0-.69.49-.85.96-.85h.52c.55,0,.81.21.99.79l1.54,4.85h.02l1.52-4.85c.18-.58.44-.79.99-.79h.5c.47,0,.96.16.96.85v6.14c0,.43-.22.84-.79.84s-.79-.41-.79-.84v-4.68h-.02l-1.65,5.02c-.12.36-.39.5-.76.5s-.64-.15-.76-.5l-1.65-5.02h-.02v4.68c0,.43-.22.84-.79.84s-.79-.41-.79-.84v-6.14Z"/>
    <path d="M46.91,12.82c0-.77.41-1.01,1.04-1.01h4.15c.52,0,.9.15.9.69s-.38.69-.9.69h-3.42v1.64h3c.46,0,.83.13.83.66s-.37.66-.83.66h-3v1.83h3.51c.52,0,.9.15.9.69s-.38.69-.9.69h-4.24c-.63,0-1.04-.24-1.04-1.01v-5.54Z"/>
    <path d="M54.15,12.82c0-.77.41-1.01,1.04-1.01h2.16c1.93,0,3.7.82,3.7,3.78,0,2.39-1.37,3.78-3.73,3.78h-2.13c-.63,0-1.04-.24-1.04-1.01v-5.54ZM55.92,17.98h1.49c1.41,0,1.87-1.23,1.87-2.39,0-1.49-.58-2.39-1.88-2.39h-1.48v4.79Z"/>
    <path d="M62.23,12.53c0-.51.35-.86.88-.86s.88.35.88.86v6.11c0,.51-.35.86-.88.86s-.88-.35-.88-.86v-6.11Z"/>
    <path d="M67.27,12.2c.15-.39.43-.52.86-.52h.42c.4,0,.76.09.95.63l2.14,5.78c.06.17.17.47.17.66,0,.42-.38.76-.83.76-.39,0-.67-.14-.8-.47l-.45-1.26h-2.85l-.46,1.26c-.12.34-.37.47-.79.47-.49,0-.82-.29-.82-.76,0-.19.11-.49.17-.66l2.29-5.89ZM68.34,13.54h-.02l-1.05,3.03h2.07l-1-3.03Z"/>
  </g>
  <g>
    <path d="M83.32,19.4c0-.77.41-1.01,1.04-1.01h4.15c.52,0,.9.15.9.69s-.38.69-.9.69h-3.42v1.64h3c.46,0,.83.13.83.66s-.37.66-.83.66h-3v1.83h3.51c.52,0,.9.15.9.69s-.38.69-.9.69h-4.24c-.63,0-1.04-.24-1.04-1.01v-5.54Z"/>
    <path d="M90.54,19.27c0-.71.36-1.01,1.11-1.01.37,0,.69.14.88.45l3.1,4.86h.02v-4.48c0-.56.32-.83.85-.83s.85.27.85.83v5.93c0,.68-.3,1.07-1.05,1.07-.56,0-.74-.12-.97-.46l-3.07-4.72h-.02v4.36c0,.56-.32.83-.85.83s-.85-.27-.85-.83v-5.99Z"/>
    <path d="M100.76,19.84h-1.67c-.51,0-.92-.25-.92-.72s.41-.72.92-.72h5.11c.51,0,.92.25.92.72s-.41.72-.92.72h-1.67v5.39c0,.51-.35.86-.88.86s-.88-.35-.88-.86v-5.39Z"/>
    <path d="M106,19.4c0-.77.41-1.01,1.04-1.01h4.15c.52,0,.9.15.9.69s-.38.69-.9.69h-3.42v1.64h3c.46,0,.83.13.83.66s-.37.66-.83.66h-3v1.83h3.51c.52,0,.9.15.9.69s-.38.69-.9.69h-4.24c-.63,0-1.04-.24-1.04-1.01v-5.54Z"/>
    <path d="M113.25,19.4c0-.77.41-1.01,1.04-1.01h2.95c2.1,0,2.66,1.12,2.66,2.1,0,.82-.5,1.63-1.34,1.82v.02c.91.13,1.07.77,1.07,1.53,0,.87.24,1.2.24,1.55,0,.4-.42.67-.83.67-.97,0-1.05-.91-1.05-1.22,0-1.32-.25-1.86-1.22-1.86h-1.75v2.22c0,.51-.35.86-.88.86s-.88-.35-.88-.86v-5.83ZM115.02,21.75h1.77c.67,0,1.34-.17,1.34-1.02s-.51-1.02-1.28-1.02h-1.82v2.04Z"/>
    <path d="M122.84,19.84h-1.67c-.51,0-.92-.25-.92-.72s.41-.72.92-.72h5.11c.51,0,.92.25.92.72s-.41.72-.92.72h-1.67v5.39c0,.51-.35.86-.88.86s-.88-.35-.88-.86v-5.39Z"/>
    <path d="M129.19,18.78c.15-.39.43-.52.86-.52h.42c.4,0,.76.09.95.63l2.14,5.78c.06.17.17.47.17.66,0,.42-.38.76-.83.76-.39,0-.67-.14-.8-.47l-.45-1.26h-2.85l-.46,1.26c-.12.34-.37.47-.79.47-.49,0-.82-.29-.82-.76,0-.19.11-.49.17-.66l2.29-5.89ZM130.26,20.13h-.02l-1.05,3.03h2.07l-1-3.03Z"/>
    <path d="M134.54,19.12c0-.51.35-.86.88-.86s.88.35.88.86v6.11c0,.51-.35.86-.88.86s-.88-.35-.88-.86v-6.11Z"/>
    <path d="M137.81,19.27c0-.71.36-1.01,1.11-1.01.37,0,.69.14.88.45l3.1,4.86h.02v-4.48c0-.56.32-.83.85-.83s.85.27.85.83v5.93c0,.68-.3,1.07-1.05,1.07-.56,0-.74-.12-.97-.46l-3.07-4.72h-.02v4.36c0,.56-.32.83-.85.83s-.85-.27-.85-.83v-5.99Z"/>
    <path d="M146.1,19.11c0-.69.49-.85.96-.85h.52c.55,0,.81.21.99.79l1.54,4.85h.02l1.52-4.85c.18-.58.44-.79.99-.79h.5c.47,0,.96.16.96.85v6.14c0,.43-.22.84-.79.84s-.79-.41-.79-.84v-4.68h-.02l-1.65,5.02c-.12.36-.39.5-.76.5s-.64-.15-.76-.5l-1.65-5.02h-.02v4.68c0,.43-.22.84-.79.84s-.79-.41-.79-.84v-6.14Z"/>
    <path d="M155.66,19.4c0-.77.41-1.01,1.04-1.01h4.15c.52,0,.9.15.9.69s-.38.69-.9.69h-3.42v1.64h3c.46,0,.83.13.83.66s-.37.66-.83.66h-3v1.83h3.51c.52,0,.9.15.9.69s-.38.69-.9.69h-4.24c-.63,0-1.04-.24-1.04-1.01v-5.54Z"/>
    <path d="M162.87,19.27c0-.71.36-1.01,1.11-1.01.37,0,.69.14.88.45l3.1,4.86h.02v-4.48c0-.56.32-.83.85-.83s.85.27.85.83v5.93c0,.68-.3,1.07-1.05,1.07-.56,0-.74-.12-.97-.46l-3.07-4.72h-.02v4.36c0,.56-.32.83-.85.83s-.85-.27-.85-.83v-5.99Z"/>
    <path d="M173.09,19.84h-1.67c-.51,0-.92-.25-.92-.72s.41-.72.92-.72h5.11c.51,0,.92.25.92.72s-.41.72-.92.72h-1.67v5.39c0,.51-.35.86-.88.86s-.88-.35-.88-.86v-5.39Z"/>
  </g>
  <line x1="81.24" y1="12.19" x2="72.93" y2="26.54" fill="none" stroke="#231f20" stroke-linecap="round" stroke-linejoin="round" stroke-width="1.5"/>
</svg>