<?xml version="1.0" encoding="UTF-8"?>
<svg id="j" data-name="_x35_._Media-Entertainment" xmlns="http://www.w3.org/2000/svg" viewBox="0 0 36 36">
  <path d="M1,14.66h4.12M1,20.42h5.57M10.25,20.42h5.57M15.82,17.3v7.9c0,.92,0,1.38-.18,1.74-.16.31-.41.56-.72.72-.35.18-.81.18-1.74.18H3.63c-.92,0-1.38,0-1.74-.18-.31-.16-.56-.41-.72-.72-.18-.35-.18-.81-.18-1.74v-5.43c0-.92,0-1.38.18-1.74.16-.31.41-.56.72-.72.35-.18.81-.18,1.74-.18h1.21c.4,0,.6,0,.79-.05.17-.04.33-.11.48-.2.17-.1.31-.24.59-.53l.93-.93c.28-.28.43-.43.59-.53.15-.09.31-.16.48-.2.19-.05.39-.05.79-.05h3.68c.92,0,1.38,0,1.74.18.31.16.56.41.72.72.18.35.18.81.18,1.74ZM10.88,22.07c0,1.36-1.11,2.47-2.47,2.47s-2.47-1.11-2.47-2.47,1.11-2.47,2.47-2.47,2.47,1.11,2.47,2.47Z" fill="#fff" stroke="#fff" stroke-linecap="round" stroke-linejoin="round" stroke-width="2"/>
  <line x1="16.65" y1="8.17" x2="15.32" y2="11.75" fill="#fff" stroke="#fff" stroke-linecap="round" stroke-linejoin="round" stroke-width="2"/>
  <line x1="21.65" y1="12.58" x2="18.55" y2="14.37" fill="#fff" stroke="#fff" stroke-linecap="round" stroke-linejoin="round" stroke-width="2"/>
</svg>