<?xml version="1.0" encoding="UTF-8"?><svg id="k" xmlns="http://www.w3.org/2000/svg" viewBox="0 0 184 36"><path d="M45.01,10.18c0-.96.48-1.18.95-1.18h.51c.55,0,.8.29.98,1.09l1.53,6.72h.02l1.51-6.72c.18-.8.44-1.09.98-1.09h.49c.47,0,.95.22.95,1.18v8.51c0,.6-.21,1.16-.78,1.16s-.78-.57-.78-1.16v-6.49h-.02l-1.64,6.96c-.12.49-.38.7-.75.7s-.63-.2-.75-.7l-1.64-6.96h-.02v6.49c0,.6-.21,1.16-.78,1.16s-.78-.57-.78-1.16v-8.51Z" fill="#fff"/><path d="M54.48,10.59c0-1.06.41-1.4,1.03-1.4h4.12c.51,0,.89.2.89.96s-.37.96-.89.96h-3.39v2.27h2.97c.46,0,.82.17.82.92s-.36.92-.82.92h-2.97v2.53h3.47c.51,0,.89.2.89.96s-.37.96-.89.96h-4.2c-.62,0-1.03-.33-1.03-1.4v-7.68Z" fill="#fff"/><path d="M61.65,10.59c0-1.06.41-1.4,1.03-1.4h2.14c1.91,0,3.67,1.14,3.67,5.24,0,3.32-1.36,5.24-3.7,5.24h-2.11c-.62,0-1.03-.33-1.03-1.4v-7.68ZM63.41,17.75h1.48c1.4,0,1.85-1.7,1.85-3.32,0-2.07-.58-3.32-1.86-3.32h-1.46v6.64Z" fill="#fff"/><path d="M69.67,10.2c0-.71.34-1.19.88-1.19s.88.48.88,1.19v8.47c0,.71-.34,1.19-.88,1.19s-.88-.48-.88-1.19v-8.47Z" fill="#fff"/><path d="M74.66,9.73c.15-.54.43-.73.86-.73h.42c.4,0,.75.13.94.87l2.12,8.02c.06.23.17.65.17.92,0,.58-.37,1.05-.82,1.05-.38,0-.66-.19-.79-.65l-.45-1.75h-2.82l-.46,1.75c-.12.47-.36.65-.78.65-.48,0-.81-.41-.81-1.05,0-.26.11-.68.17-.92l2.27-8.16ZM75.72,11.59h-.02l-1.04,4.21h2.05l-.99-4.21Z" fill="#fff"/><path d="M90.73,17.64c0-1.1.41-1.44,1.03-1.44h4.12c.51,0,.89.21.89.99s-.37.99-.89.99h-3.39v2.34h2.97c.46,0,.82.18.82.95s-.36.95-.82.95h-2.97v2.61h3.47c.51,0,.89.21.89.99s-.37.99-.89.99h-4.2c-.62,0-1.03-.35-1.03-1.44v-7.93Z" fill="#fff"/><path d="M97.87,17.45c0-1.02.35-1.44,1.1-1.44.36,0,.68.2.88.65l3.07,6.95h.02v-6.41c0-.8.32-1.19.84-1.19s.84.39.84,1.19v8.49c0,.98-.3,1.53-1.04,1.53-.56,0-.74-.17-.96-.66l-3.05-6.76h-.02v6.23c0,.8-.32,1.19-.84,1.19s-.84-.39-.84-1.19v-8.58Z" fill="#fff"/><path d="M108,18.27h-1.66c-.5,0-.91-.36-.91-1.04s.41-1.04.91-1.04h5.07c.5,0,.91.36.91,1.04s-.41,1.04-.91,1.04h-1.66v7.7c0,.74-.34,1.23-.88,1.23s-.88-.5-.88-1.23v-7.7Z" fill="#fff"/><path d="M113.2,17.64c0-1.1.41-1.44,1.03-1.44h4.12c.51,0,.89.21.89.99s-.37.99-.89.99h-3.39v2.34h2.97c.46,0,.82.18.82.95s-.36.95-.82.95h-2.97v2.61h3.47c.51,0,.89.21.89.99s-.37.99-.89.99h-4.2c-.62,0-1.03-.35-1.03-1.44v-7.93Z" fill="#fff"/><path d="M120.38,17.64c0-1.1.41-1.44,1.03-1.44h2.92c2.08,0,2.64,1.61,2.64,3,0,1.17-.49,2.33-1.33,2.6v.03c.9.18,1.06,1.1,1.06,2.19,0,1.25.24,1.71.24,2.22,0,.57-.42.96-.82.96-.96,0-1.04-1.31-1.04-1.74,0-1.89-.25-2.66-1.21-2.66h-1.73v3.17c0,.74-.34,1.23-.88,1.23s-.88-.5-.88-1.23v-8.33ZM122.13,21.01h1.75c.66,0,1.33-.24,1.33-1.46s-.5-1.46-1.27-1.46h-1.81v2.91Z" fill="#fff"/><path d="M129.89,18.27h-1.66c-.5,0-.91-.36-.91-1.04s.41-1.04.91-1.04h5.07c.5,0,.91.36.91,1.04s-.41,1.04-.91,1.04h-1.66v7.7c0,.74-.34,1.23-.88,1.23s-.88-.5-.88-1.23v-7.7Z" fill="#fff"/><path d="M136.18,16.75c.15-.56.43-.75.86-.75h.42c.4,0,.75.14.94.9l2.12,8.27c.06.24.17.68.17.95,0,.6-.37,1.08-.82,1.08-.38,0-.66-.2-.79-.68l-.45-1.8h-2.82l-.46,1.8c-.12.48-.36.68-.78.68-.48,0-.81-.42-.81-1.08,0-.27.11-.71.17-.95l2.27-8.43ZM137.24,18.68h-.02l-1.04,4.34h2.05l-.99-4.34Z" fill="#fff"/><path d="M141.49,17.24c0-.74.34-1.23.88-1.23s.88.5.88,1.23v8.74c0,.74-.34,1.23-.88,1.23s-.88-.5-.88-1.23v-8.74Z" fill="#fff"/><path d="M144.73,17.45c0-1.02.35-1.44,1.1-1.44.36,0,.68.2.88.65l3.07,6.95h.02v-6.41c0-.8.32-1.19.84-1.19s.84.39.84,1.19v8.49c0,.98-.3,1.53-1.04,1.53-.56,0-.74-.17-.96-.66l-3.05-6.76h-.02v6.23c0,.8-.32,1.19-.84,1.19s-.84-.39-.84-1.19v-8.58Z" fill="#fff"/><path d="M152.95,17.22c0-.99.48-1.22.95-1.22h.51c.55,0,.8.3.98,1.13l1.53,6.94h.02l1.51-6.94c.18-.83.44-1.13.98-1.13h.49c.47,0,.95.23.95,1.22v8.79c0,.62-.21,1.2-.78,1.2s-.78-.59-.78-1.2v-6.7h-.02l-1.64,7.18c-.12.51-.38.72-.75.72s-.63-.21-.75-.72l-1.64-7.18h-.02v6.7c0,.62-.21,1.2-.78,1.2s-.78-.59-.78-1.2v-8.79Z" fill="#fff"/><path d="M162.41,17.64c0-1.1.41-1.44,1.03-1.44h4.12c.51,0,.89.21.89.99s-.37.99-.89.99h-3.39v2.34h2.97c.46,0,.82.18.82.95s-.36.95-.82.95h-2.97v2.61h3.47c.51,0,.89.21.89.99s-.37.99-.89.99h-4.2c-.62,0-1.03-.35-1.03-1.44v-7.93Z" fill="#fff"/><path d="M169.56,17.45c0-1.02.35-1.44,1.1-1.44.36,0,.68.2.88.65l3.07,6.95h.02v-6.41c0-.8.32-1.19.84-1.19s.84.39.84,1.19v8.49c0,.98-.3,1.53-1.04,1.53-.56,0-.74-.17-.96-.66l-3.05-6.76h-.02v6.23c0,.8-.32,1.19-.84,1.19s-.84-.39-.84-1.19v-8.58Z" fill="#fff"/><path d="M179.69,18.27h-1.66c-.5,0-.91-.36-.91-1.04s.41-1.04.91-1.04h5.07c.5,0,.91.36.91,1.04s-.41,1.04-.91,1.04h-1.66v7.7c0,.74-.34,1.23-.88,1.23s-.88-.5-.88-1.23v-7.7Z" fill="#fff"/><line x1="84.66" y1="9.88" x2="84.66" y2="26.3" fill="none" stroke="#fff" stroke-linecap="round" stroke-linejoin="round" stroke-width="1.5"/><path d="M9.01,10h5M9.01,17h6.76M20.25,17h6.76M27.01,13.2v9.6c0,1.12,0,1.68-.22,2.11-.19.38-.5.68-.87.87-.43.22-.99.22-2.11.22h-11.6c-1.12,0-1.68,0-2.11-.22-.38-.19-.68-.5-.87-.87-.22-.43-.22-.99-.22-2.11v-6.6c0-1.12,0-1.68.22-2.11.19-.38.5-.68.87-.87.43-.22.99-.22,2.11-.22h1.47c.49,0,.73,0,.96-.06.2-.05.4-.13.58-.24.2-.12.37-.3.72-.64l1.13-1.13c.35-.35.52-.52.72-.64.18-.11.37-.19.58-.24.23-.06.47-.06.96-.06h4.47c1.12,0,1.68,0,2.11.22.38.19.68.5.87.87.22.43.22.99.22,2.11ZM21.01,19c0,1.66-1.34,3-3,3s-3-1.34-3-3,1.34-3,3-3,3,1.34,3,3Z" fill="none" stroke="#000" stroke-linecap="round" stroke-linejoin="round" stroke-width="2"/><path d="M9.01,10.01h5M9.01,17.01h6.76M20.25,17.01h6.76M27.01,13.21v9.6c0,1.12,0,1.68-.22,2.11-.19.38-.5.68-.87.87-.43.22-.99.22-2.11.22h-11.6c-1.12,0-1.68,0-2.11-.22-.38-.19-.68-.5-.87-.87-.22-.43-.22-.99-.22-2.11v-6.6c0-1.12,0-1.68.22-2.11.19-.38.5-.68.87-.87.43-.22.99-.22,2.11-.22h1.47c.49,0,.73,0,.96-.06.2-.05.4-.13.58-.24.2-.12.37-.3.72-.64l1.13-1.13c.35-.35.52-.52.72-.64.18-.11.37-.19.58-.24.23-.06.47-.06.96-.06h4.47c1.12,0,1.68,0,2.11.22.38.19.68.5.87.87.22.43.22.99.22,2.11ZM21.01,19.01c0,1.66-1.34,3-3,3s-3-1.34-3-3,1.34-3,3-3,3,1.34,3,3Z" fill="none" stroke="#fff" stroke-linecap="round" stroke-linejoin="round" stroke-width="2"/></svg>