<?xml version="1.0" encoding="UTF-8"?><svg id="k" xmlns="http://www.w3.org/2000/svg" viewBox="0 0 184 36"><path d="M12.64,13.58h.89M12.64,16.24h.89M17.08,16.24h.89M17.08,18.91h.89M12.64,18.91h.89M17.08,13.58h.89M17.08,26.01v-2.66c0-.98-.79-1.78-1.78-1.78s-1.78.79-1.78,1.78v2.66M17.08,26.01h1.33M17.08,26.01h-3.55M13.53,26.01h-3.55v-14.56c0-.5,0-.75.1-.94.09-.17.22-.3.39-.39.19-.1.44-.1.94-.1h7.81c.5,0,.75,0,.94.1.17.09.3.22.39.39.1.19.1.44.1.94v6.57M25.85,21.6c-.06,0-.11,0-.17,0-.83,0-1.59-.35-2.17-.92-.58.57-1.34.92-2.17.92-.06,0-.11,0-.17,0-.07.29-.1.59-.1.91,0,1.68,1.04,3.1,2.44,3.5,1.4-.4,2.44-1.82,2.44-3.5,0-.31-.04-.62-.1-.91Z" fill="none" stroke="#000" stroke-linecap="round" stroke-linejoin="round" stroke-width="2"/><path d="M51.16,26.84c-.99,0-1.88-.19-2.66-.56-.78-.38-1.44-.9-1.98-1.58-.54-.68-.94-1.49-1.21-2.44-.27-.95-.38-2-.34-3.16.04-1.49.27-2.83.68-4.04.41-1.2.98-2.24,1.7-3.1.72-.86,1.57-1.52,2.54-1.98.98-.46,2.05-.69,3.24-.69s2.24.25,3.12.75c.89.5,1.58,1.19,2.08,2.08.5.88.76,1.9.77,3.04l-2.27.02c-.03-.72-.2-1.36-.53-1.92-.32-.56-.77-1-1.33-1.3-.56-.31-1.23-.46-2-.46-1.13,0-2.11.31-2.96.94-.84.63-1.51,1.51-1.99,2.64-.48,1.13-.75,2.48-.8,4.02-.03.92.05,1.73.24,2.43.19.7.46,1.28.81,1.75.36.47.8.82,1.32,1.04.52.23,1.11.34,1.75.34,1.02,0,1.87-.2,2.57-.61.69-.41,1.25-1,1.67-1.77.42-.77.71-1.71.88-2.8l.06-.47.39.49h-4.97l.35-1.81h6.8l-.29,1.71c-.21,1.28-.54,2.4-1,3.34-.46.95-1.02,1.72-1.69,2.32-.67.6-1.42,1.05-2.25,1.34-.83.29-1.74.43-2.73.43Z"/><path d="M64.76,26.84c-.69,0-1.32-.13-1.89-.38-.57-.25-1.05-.61-1.45-1.09-.4-.48-.7-1.06-.91-1.74-.21-.68-.3-1.45-.29-2.31.05-1.49.33-2.78.83-3.88.5-1.1,1.19-1.96,2.07-2.57.88-.61,1.88-.92,3.01-.92.7,0,1.34.13,1.91.38.57.25,1.05.62,1.45,1.1.4.49.7,1.07.9,1.75.2.68.28,1.45.26,2.31-.04,1.47-.31,2.76-.81,3.86-.5,1.1-1.19,1.96-2.06,2.57-.87.61-1.88.92-3.02.92ZM64.91,24.87c.71,0,1.34-.22,1.88-.67.54-.45.96-1.08,1.27-1.89.31-.81.48-1.75.53-2.82.01-.58-.04-1.08-.15-1.51-.12-.43-.29-.8-.52-1.1-.23-.31-.5-.54-.81-.7-.32-.16-.68-.25-1.09-.25-.7,0-1.32.22-1.84.67-.53.45-.95,1.07-1.27,1.87-.32.8-.49,1.74-.54,2.84-.01.58.03,1.09.14,1.53.11.44.28.81.52,1.11.23.31.51.54.82.69.32.16.67.23,1.07.23Z"/><path d="M73.03,26.61l-1.59-12.39h2.14l.78,7.98.21,2.32h.08l.95-2.25,3.59-8.05h2.29l-5.96,12.39h-2.49Z"/><path d="M84.83,26.84c-.98,0-1.79-.23-2.45-.7s-1.14-1.14-1.45-2.01c-.31-.87-.44-1.88-.38-3.04.08-1.42.36-2.67.84-3.74.48-1.07,1.14-1.9,1.97-2.49.83-.59,1.79-.88,2.87-.88s1.94.28,2.6.83c.66.56,1.11,1.36,1.34,2.41.23,1.05.22,2.27-.04,3.66h-7.54c-.1.81-.07,1.53.09,2.15.16.62.43,1.1.82,1.43.39.34.88.5,1.47.5.7,0,1.3-.2,1.8-.61.5-.41.84-.93,1.02-1.57h2.04c-.21.84-.55,1.57-1.02,2.17-.47.6-1.06,1.07-1.75,1.4-.69.33-1.44.49-2.24.49ZM82.81,19.59l-.27-.33h6l-.29.31c.12-.75.12-1.4-.02-1.96-.14-.56-.4-.99-.77-1.3-.38-.31-.86-.47-1.43-.47-.51,0-.98.14-1.42.43-.44.29-.81.7-1.11,1.24-.3.54-.53,1.23-.68,2.08Z"/><path d="M90.89,26.61l2.27-12.41h1.85l-.33,2.32h.12c.33-.78.79-1.4,1.39-1.84.6-.45,1.23-.67,1.91-.67.19,0,.37.01.53.04.16.02.29.06.4.11l-.45,2.39c-.08-.06-.21-.1-.37-.12-.16-.02-.33-.02-.49-.02-.51,0-1,.13-1.47.39-.47.26-.89.66-1.24,1.2s-.62,1.22-.81,2.05l-1.22,6.57h-2.08Z"/><path d="M98.04,26.61l2.27-12.41h1.98l-.29,2.14h.14c.41-.77.97-1.35,1.66-1.75.69-.4,1.4-.6,2.11-.6.55,0,1.04.11,1.48.32.44.21.8.55,1.09,1.01.29.46.48,1.04.57,1.75s.04,1.55-.15,2.53l-1.28,7.02h-2.12l1.24-6.81c.16-.81.2-1.51.11-2.08-.09-.57-.3-1.01-.64-1.31-.34-.31-.79-.46-1.37-.46s-1.06.15-1.54.45c-.47.3-.87.71-1.2,1.24-.32.53-.55,1.16-.69,1.88l-1.3,7.09h-2.08Z"/><path d="M110.04,26.61l2.29-12.41h1.98l-.29,2.14h.14c.4-.72.93-1.29,1.59-1.71.66-.42,1.37-.63,2.12-.63.82,0,1.52.25,2.08.74.56.49.89,1.19.99,2.1h.16c.44-.97,1.02-1.69,1.75-2.15.73-.46,1.5-.69,2.33-.69s1.46.21,2,.62c.54.41.9,1.03,1.1,1.84.2.81.18,1.83-.05,3.05l-1.3,7.11h-2.1l1.24-6.74c.15-.81.18-1.51.09-2.1-.09-.59-.3-1.03-.62-1.34-.32-.31-.79-.46-1.39-.46-.54,0-1.03.15-1.49.45-.46.3-.84.71-1.15,1.24-.31.53-.53,1.17-.67,1.9l-1.3,7.04h-2.1l1.24-6.74c.15-.84.18-1.56.08-2.14-.1-.58-.3-1.02-.62-1.31-.32-.3-.76-.45-1.34-.45-.52,0-1.01.14-1.47.42s-.85.68-1.17,1.21c-.32.52-.56,1.17-.71,1.94l-1.3,7.06h-2.1Z"/><path d="M134,26.84c-.98,0-1.79-.23-2.45-.7s-1.14-1.14-1.45-2.01c-.31-.87-.44-1.88-.38-3.04.08-1.42.36-2.67.84-3.74.48-1.07,1.14-1.9,1.97-2.49.83-.59,1.79-.88,2.87-.88s1.94.28,2.6.83c.66.56,1.11,1.36,1.34,2.41.23,1.05.22,2.27-.04,3.66h-7.54c-.1.81-.07,1.53.09,2.15.16.62.43,1.1.82,1.43.39.34.88.5,1.47.5.7,0,1.3-.2,1.8-.61.5-.41.84-.93,1.02-1.57h2.04c-.21.84-.55,1.57-1.02,2.17-.47.6-1.06,1.07-1.75,1.4-.69.33-1.44.49-2.24.49ZM131.98,19.59l-.27-.33h6l-.29.31c.12-.75.12-1.4-.02-1.96-.14-.56-.4-.99-.77-1.3-.38-.31-.86-.47-1.43-.47-.51,0-.98.14-1.42.43-.44.29-.81.7-1.11,1.24-.3.54-.53,1.23-.68,2.08Z"/><path d="M140.06,26.61l2.27-12.41h1.98l-.29,2.14h.14c.41-.77.97-1.35,1.66-1.75.69-.4,1.4-.6,2.11-.6.55,0,1.04.11,1.48.32.44.21.8.55,1.09,1.01.29.46.48,1.04.57,1.75s.04,1.55-.15,2.53l-1.28,7.02h-2.12l1.24-6.81c.16-.81.2-1.51.11-2.08-.09-.57-.3-1.01-.64-1.31-.34-.31-.79-.46-1.37-.46s-1.06.15-1.54.45c-.47.3-.87.71-1.2,1.24-.32.53-.55,1.16-.69,1.88l-1.3,7.09h-2.08Z"/><path d="M155.23,26.61c-.56,0-1.03-.11-1.41-.33-.38-.22-.64-.56-.77-1.01-.14-.45-.14-1.02-.02-1.69l1.38-7.42h-2.04l.35-1.97h2.04l.66-3.59,2.16-.28-.72,3.87h2.39l-.35,1.97h-2.39l-1.34,7.28c-.08.49-.03.8.15.95.19.15.46.22.83.22h1.17l-.37,1.99h-1.73Z"/></svg>