<?xml version="1.0" encoding="UTF-8"?><svg id="k" xmlns="http://www.w3.org/2000/svg" viewBox="0 0 36 36"><path d="M12.64,13.54h.89M12.64,16.21h.89M17.07,16.21h.89M17.07,18.87h.89M12.64,18.87h.89M17.07,13.54h.89M17.07,25.97v-2.66c0-.98-.79-1.78-1.78-1.78s-1.78.79-1.78,1.78v2.66M17.07,25.97h1.33M17.07,25.97h-3.55M13.52,25.97h-3.55v-14.56c0-.5,0-.75.1-.94.09-.17.22-.3.39-.39.19-.1.44-.1.94-.1h7.81c.5,0,.75,0,.94.1.17.09.3.22.39.39.1.19.1.44.1.94v6.57M25.85,21.56c-.06,0-.11,0-.17,0-.83,0-1.59-.35-2.17-.92-.58.57-1.34.92-2.17.92-.06,0-.11,0-.17,0-.07.29-.1.59-.1.91,0,1.68,1.04,3.1,2.44,3.5,1.4-.4,2.44-1.82,2.44-3.5,0-.31-.04-.62-.1-.91Z" fill="none" stroke="#fff" stroke-linecap="round" stroke-linejoin="round" stroke-width="2"/></svg>