<?xml version="1.0" encoding="UTF-8"?>
<svg id="d" data-name="_x32_._Government" xmlns="http://www.w3.org/2000/svg" viewBox="0 0 36 36">
  <rect x=".89" y="1.03" width="33.95" height="33.95" fill="#231f20" stroke="#231f20" stroke-linecap="round" stroke-linejoin="round" stroke-width="2"/>
  <path d="M11.86,13.03h1M11.86,16.03h1M16.86,16.03h1M16.86,19.03h1M11.86,19.03h1M16.86,13.03h1M16.86,27.03v-3c0-1.1-.9-2-2-2s-2,.9-2,2v3M16.86,27.03h1.5M16.86,27.03h-4M12.86,27.03h-4V10.63c0-.56,0-.84.11-1.05.1-.19.25-.34.44-.44.21-.11.49-.11,1.05-.11h8.8c.56,0,.84,0,1.05.11.19.1.34.25.44.44.11.21.11.49.11,1.05v7.4M26.75,22.06c-.06,0-.13,0-.19,0-.94,0-1.8-.39-2.44-1.04-.65.64-1.51,1.04-2.44,1.04-.06,0-.13,0-.19,0-.08.33-.12.67-.12,1.02,0,1.9,1.17,3.49,2.75,3.94,1.58-.45,2.75-2.05,2.75-3.94,0-.35-.04-.7-.12-1.02Z" fill="none" stroke="#fff" stroke-linecap="round" stroke-linejoin="round" stroke-width="2"/>
</svg>