<?xml version="1.0" encoding="UTF-8"?>
<svg id="d" data-name="_x32_._Government" xmlns="http://www.w3.org/2000/svg" viewBox="0 0 184 36">
  <rect x="1.03" y="1" width="33.95" height="33.95" fill="#231f20" stroke="#231f20" stroke-linecap="round" stroke-linejoin="round" stroke-width="2"/>
  <path d="M12,13h1M12,16h1M17,16h1M17,19h1M12,19h1M17,13h1M17,27v-3c0-1.1-.9-2-2-2s-2,.9-2,2v3M17,27h1.5M17,27h-4M13,27h-4V10.6c0-.56,0-.84.11-1.05.1-.19.25-.34.44-.44.21-.11.49-.11,1.05-.11h8.8c.56,0,.84,0,1.05.11.19.1.34.25.44.44.11.21.11.49.11,1.05v7.4M26.88,22.03c-.06,0-.13,0-.19,0-.94,0-1.8-.39-2.44-1.04-.65.64-1.51,1.04-2.44,1.04-.06,0-.13,0-.19,0-.08.33-.12.67-.12,1.02,0,1.9,1.17,3.49,2.75,3.94,1.58-.45,2.75-2.05,2.75-3.94,0-.35-.04-.7-.12-1.02Z" fill="none" stroke="#fff" stroke-linecap="round" stroke-linejoin="round" stroke-width="2"/>
  <g>
    <path d="M56.52,24.05c0,.54-.41.98-1,.98-.84,0-1.07-.52-1.25-1.66-.84,1.05-2,1.73-3.82,1.73-4.53,0-6.26-3.12-6.26-6.72,0-4.33,2.71-6.72,6.69-6.72,3.25,0,4.98,1.94,4.98,3.09,0,1.02-.75,1.28-1.37,1.28-1.44,0-.91-2.02-3.76-2.02-2.02,0-3.6,1.32-3.6,4.57,0,2.53,1.25,4.28,3.64,4.28,1.55,0,2.91-1.05,3.05-2.62h-1.91c-.62,0-1.32-.23-1.32-1.12,0-.71.41-1.12,1.14-1.12h3.6c.86,0,1.2.43,1.2,1.23v4.83Z"/>
    <path d="M64.89,11.66c4.21,0,6.49,2.8,6.49,6.56s-2.1,6.89-6.49,6.89c-4.6,0-6.49-3-6.49-6.89s2.28-6.56,6.49-6.56ZM64.89,22.75c2.66,0,3.57-2.07,3.57-4.53s-1.18-4.21-3.57-4.21-3.57,1.75-3.57,4.21.82,4.53,3.57,4.53Z"/>
    <path d="M79.18,24.02c-.3.84-.87,1.02-1.78,1.02s-1.48-.18-1.78-1.02l-3.6-10.13c-.12-.34-.18-.62-.18-.86,0-.98.75-1.3,1.48-1.3.78,0,1.21.41,1.48,1.28l2.64,8.74h.04l2.75-8.74c.27-.87.7-1.28,1.37-1.28.73,0,1.48.32,1.48,1.3,0,.23-.05.52-.18.86l-3.71,10.13Z"/>
    <path d="M84.48,13.67c0-1.3.68-1.71,1.71-1.71h6.87c.86,0,1.48.25,1.48,1.18s-.62,1.18-1.48,1.18h-5.65v2.78h4.96c.77,0,1.37.21,1.37,1.12s-.61,1.12-1.37,1.12h-4.96v3.1h5.8c.86,0,1.48.25,1.48,1.18s-.62,1.18-1.48,1.18h-7.01c-1.03,0-1.71-.41-1.71-1.71v-9.42Z"/>
    <path d="M96.46,13.67c0-1.3.68-1.71,1.71-1.71h4.87c3.48,0,4.41,1.91,4.41,3.57,0,1.39-.82,2.76-2.21,3.09v.04c1.5.21,1.77,1.3,1.77,2.6,0,1.48.39,2.03.39,2.64,0,.68-.7,1.14-1.37,1.14-1.61,0-1.73-1.55-1.73-2.07,0-2.25-.41-3.16-2.02-3.16h-2.89v3.76c0,.87-.57,1.46-1.46,1.46s-1.46-.59-1.46-1.46v-9.9ZM99.38,17.67h2.93c1.11,0,2.21-.29,2.21-1.73s-.84-1.73-2.12-1.73h-3.01v3.46Z"/>
    <path d="M109.45,13.44c0-1.21.59-1.71,1.84-1.71.61,0,1.14.23,1.46.77l5.12,8.26h.04v-7.62c0-.95.54-1.41,1.41-1.41s1.41.46,1.41,1.41v10.08c0,1.16-.5,1.82-1.73,1.82-.93,0-1.23-.2-1.61-.78l-5.08-8.03h-.04v7.4c0,.95-.53,1.41-1.41,1.41s-1.41-.46-1.41-1.41v-10.19Z"/>
    <path d="M123.15,13.17c0-1.18.8-1.44,1.59-1.44h.86c.91,0,1.34.36,1.64,1.34l2.55,8.24h.04l2.52-8.24c.3-.98.73-1.34,1.64-1.34h.82c.78,0,1.59.27,1.59,1.44v10.43c0,.73-.36,1.43-1.3,1.43s-1.3-.7-1.3-1.43v-7.96h-.04l-2.73,8.53c-.2.61-.64.86-1.25.86s-1.05-.25-1.25-.86l-2.73-8.53h-.04v7.96c0,.73-.36,1.43-1.3,1.43s-1.3-.7-1.3-1.43v-10.43Z"/>
    <path d="M138.94,13.67c0-1.3.68-1.71,1.71-1.71h6.87c.86,0,1.48.25,1.48,1.18s-.62,1.18-1.48,1.18h-5.65v2.78h4.96c.77,0,1.37.21,1.37,1.12s-.61,1.12-1.37,1.12h-4.96v3.1h5.8c.86,0,1.48.25,1.48,1.18s-.62,1.18-1.48,1.18h-7.01c-1.03,0-1.71-.41-1.71-1.71v-9.42Z"/>
    <path d="M150.86,13.44c0-1.21.59-1.71,1.84-1.71.61,0,1.14.23,1.46.77l5.12,8.26h.04v-7.62c0-.95.54-1.41,1.41-1.41s1.41.46,1.41,1.41v10.08c0,1.16-.5,1.82-1.73,1.82-.93,0-1.23-.2-1.61-.78l-5.08-8.03h-.04v7.4c0,.95-.53,1.41-1.41,1.41s-1.41-.46-1.41-1.41v-10.19Z"/>
    <path d="M167.76,14.42h-2.76c-.84,0-1.52-.43-1.52-1.23s.68-1.23,1.52-1.23h8.46c.84,0,1.52.43,1.52,1.23s-.68,1.23-1.52,1.23h-2.76v9.15c0,.87-.57,1.46-1.46,1.46s-1.46-.59-1.46-1.46v-9.15Z"/>
  </g>
</svg>