<?xml version="1.0" encoding="UTF-8"?>
<svg id="p" data-name="_x38_._Transportation" xmlns="http://www.w3.org/2000/svg" viewBox="0 0 143.58 30">
  <path d="M9.3,14.5h11.08M12.46,20.04l-2.37,2.37M17.21,20.04l2.37,2.37M14.83,17.66h0M11.83,20.04h6.01c.89,0,1.33,0,1.67-.17.3-.15.54-.39.69-.69.17-.34.17-.78.17-1.67v-6.8c0-.89,0-1.33-.17-1.67-.15-.3-.39-.54-.69-.69-.34-.17-.78-.17-1.67-.17h-6.01c-.89,0-1.33,0-1.67.17-.3.15-.54.39-.69.69-.17.34-.17.78-.17,1.67v6.8c0,.89,0,1.33.17,1.67.15.3.39.54.69.69.34.17.78.17,1.67.17Z" fill="#fff" stroke="#fff" stroke-linecap="round" stroke-linejoin="round" stroke-width="2"/>
  <rect x="5.62" y="5.78" width="18.68" height="18.68" transform="translate(-6.31 15.01) rotate(-45)" fill="#fff" stroke="#fff" stroke-linecap="round" stroke-linejoin="round" stroke-width="2"/>
  <g>
    <path d="M48.73,11.58l-.66,2.1h-.53c.03-.18.05-.35.05-.5,0-.47-.1-.76-.31-.88-.21-.12-.48-.19-.8-.19h-.66l-1.67,5.31c-.07.21-.1.36-.1.48,0,.2.08.34.23.41.15.07.31.11.46.11h.28l-.16.5h-3.74l.15-.5h.18c.38,0,.63-.05.76-.16.13-.1.25-.32.35-.65l1.72-5.49h-.57c-.39,0-.75.1-1.1.29-.35.19-.67.62-.97,1.28h-.53l.66-2.1h6.96Z" fill="#fff"/>
    <path d="M57.83,13.43c0,.19-.04.39-.11.61-.07.22-.2.43-.39.63s-.45.38-.79.52c-.34.15-.76.24-1.28.27.19.14.33.3.45.48s.24.49.37.91c.1.31.2.57.29.76.09.19.23.36.41.5.18.14.43.24.74.29l-.16.5h-1.94c-.1-.13-.2-.3-.29-.5-.09-.2-.24-.56-.43-1.09l-.23-.63c-.11-.33-.21-.56-.27-.7-.07-.13-.18-.24-.33-.31-.15-.08-.38-.11-.69-.11h-.32l-.58,1.85c-.07.21-.1.36-.1.47,0,.23.09.37.27.44.18.06.41.09.68.09l-.16.5h-3.41l.16-.5c.21,0,.37-.02.48-.07.11-.05.21-.13.29-.25s.15-.29.21-.51l1.43-4.59c.07-.22.1-.36.1-.43,0-.18-.07-.3-.2-.38-.13-.08-.28-.12-.45-.12h-.22l.15-.5h3.57c.4,0,.72.02.98.06.25.04.5.12.74.24.29.14.53.34.72.6s.28.58.28.94ZM56.27,13.24c0-.48-.16-.79-.49-.92-.32-.13-.71-.2-1.15-.2h-.67l-.91,2.92h.58c.83,0,1.41-.09,1.73-.26.29-.16.51-.38.67-.66.16-.28.24-.57.24-.87Z" fill="#fff"/>
    <path d="M66.88,18.41l-.15.5h-3.42l.16-.5c.29,0,.51-.03.66-.1.16-.06.27-.18.33-.35.07-.17.1-.42.1-.74v-.92h-2.37l-.81,1.15c-.2.28-.29.49-.29.62,0,.23.23.35.68.35h.32l-.16.5h-2.7l.16-.5c.26-.02.51-.14.76-.37.25-.23.53-.55.83-.96l4.09-5.64h.97l-.08,6.11c0,.24.03.42.08.54.06.12.15.2.28.25.13.05.32.07.56.07ZM64.62,12.93l-2.05,2.87h2l.06-2.87Z" fill="#fff"/>
    <path d="M78.79,11.58l-.15.5c-.3.03-.54.11-.71.26-.17.15-.34.47-.49.98l-1.79,5.66h-.71l-2.55-5.49-1.17,3.75c-.08.26-.12.44-.12.55,0,.24.1.41.29.5s.4.14.63.14l-.16.5h-2.52l.16-.5c.34-.05.59-.2.76-.44.16-.24.3-.55.42-.94l1.36-4.34-.12-.2c-.12-.19-.24-.31-.35-.36-.11-.04-.32-.06-.63-.06l.16-.5h2.05l2.52,5.46,1.08-3.44c.02-.08.05-.17.09-.28.04-.11.07-.21.09-.31.02-.1.04-.18.04-.27,0-.16-.07-.31-.21-.45-.14-.14-.39-.21-.73-.21l.16-.5h2.63Z" fill="#fff"/>
    <path d="M86.67,11.58l-.34,2.2h-.53c-.04-.26-.1-.52-.19-.77-.09-.25-.25-.49-.48-.7-.23-.22-.56-.32-.97-.32-.34,0-.62.09-.83.27-.22.18-.33.42-.33.72,0,.2.05.39.15.57.1.18.24.36.42.53.18.18.39.37.63.57.47.39.82.74,1.06,1.07.24.33.36.71.36,1.14,0,.36-.1.71-.29,1.05-.2.34-.48.61-.86.82-.37.21-.81.32-1.3.32-.21,0-.43-.03-.64-.08-.22-.06-.42-.14-.62-.26-.19-.12-.39-.27-.59-.46-.09.08-.2.29-.36.61h-.52l.36-2.56h.52c.01.41.08.76.2,1.04.12.29.27.52.46.69.19.17.39.29.6.37.21.08.42.11.61.11.22,0,.41-.05.59-.15.17-.1.31-.23.41-.4.1-.17.15-.35.15-.55s-.04-.37-.12-.52c-.08-.15-.19-.3-.34-.46-.15-.15-.41-.4-.79-.75-.47-.43-.81-.8-.99-1.11-.19-.31-.28-.63-.28-.96,0-.38.11-.74.32-1.07.21-.34.5-.6.86-.8s.74-.3,1.14-.3c.6,0,1.15.23,1.65.7.02-.03.05-.07.09-.12s.08-.11.12-.17.09-.15.14-.27h.51Z" fill="#fff"/>
    <path d="M96.2,13.44c0,.23-.04.46-.12.68-.08.22-.21.43-.39.62-.18.19-.42.36-.72.51-.31.14-.69.24-1.16.29s-.91.07-1.32.07h-.73l-.57,1.82c-.07.23-.1.39-.1.48,0,.19.08.33.23.41.16.08.31.11.47.11h.16l-.16.5h-3.21l.16-.5c.24,0,.42-.06.54-.19.13-.12.23-.34.32-.64l1.43-4.59c.07-.21.1-.35.1-.43,0-.22-.08-.36-.24-.42s-.34-.09-.56-.09l.14-.5h3.09c.37,0,.68.02.93.06.25.04.49.13.74.27.65.37.97.88.97,1.52ZM94.64,13.16c0-.45-.13-.74-.38-.86-.25-.12-.54-.19-.87-.19h-.54l-.93,2.95h.67c.59,0,1.03-.11,1.3-.33.13-.11.25-.24.37-.41.11-.16.21-.35.28-.55.07-.2.11-.41.11-.62Z" fill="#fff"/>
    <path d="M107.12,14.47c0,.5-.12,1.02-.35,1.55-.23.54-.56,1.03-1,1.49s-.95.83-1.55,1.11c-.6.28-1.26.42-1.98.42-.76,0-1.39-.15-1.87-.45-.48-.3-.83-.68-1.04-1.13-.21-.46-.32-.92-.32-1.39,0-.71.21-1.42.62-2.14.41-.72.99-1.32,1.74-1.78.75-.47,1.6-.7,2.57-.7.74,0,1.35.15,1.83.44.48.29.82.67,1.03,1.13s.32.94.32,1.45ZM105.58,13.73c0-1.19-.57-1.78-1.7-1.78-.3,0-.58.05-.86.15-.28.1-.54.26-.79.49-.25.23-.47.51-.67.86-.27.49-.5,1.04-.71,1.66-.2.62-.31,1.19-.31,1.71,0,1.15.55,1.73,1.65,1.73.61,0,1.14-.19,1.58-.56.44-.37.81-.9,1.11-1.57.46-1.06.7-1.96.7-2.69Z" fill="#fff"/>
    <path d="M117.64,13.43c0,.19-.04.39-.11.61-.07.22-.2.43-.39.63s-.45.38-.79.52c-.34.15-.76.24-1.28.27.19.14.33.3.45.48s.24.49.37.91c.1.31.2.57.29.76.09.19.23.36.41.5.18.14.43.24.74.29l-.16.5h-1.94c-.1-.13-.2-.3-.29-.5-.09-.2-.24-.56-.43-1.09l-.23-.63c-.11-.33-.21-.56-.27-.7-.07-.13-.18-.24-.33-.31-.15-.08-.38-.11-.69-.11h-.32l-.58,1.85c-.07.21-.1.36-.1.47,0,.23.09.37.27.44.18.06.41.09.68.09l-.16.5h-3.41l.16-.5c.21,0,.37-.02.48-.07.11-.05.21-.13.29-.25s.15-.29.21-.51l1.43-4.59c.07-.22.1-.36.1-.43,0-.18-.07-.3-.2-.38-.13-.08-.28-.12-.45-.12h-.22l.15-.5h3.57c.4,0,.72.02.98.06.25.04.5.12.74.24.29.14.53.34.72.6s.28.58.28.94ZM116.08,13.24c0-.48-.16-.79-.49-.92-.32-.13-.71-.2-1.15-.2h-.67l-.91,2.92h.58c.83,0,1.41-.09,1.73-.26.29-.16.51-.38.67-.66.16-.28.24-.57.24-.87Z" fill="#fff"/>
    <path d="M128.11,11.58l-.66,2.1h-.53c.03-.18.05-.35.05-.5,0-.47-.1-.76-.31-.88-.21-.12-.48-.19-.8-.19h-.66l-1.67,5.31c-.07.21-.1.36-.1.48,0,.2.08.34.23.41.15.07.31.11.46.11h.28l-.16.5h-3.74l.15-.5h.18c.38,0,.63-.05.76-.16.13-.1.25-.32.35-.65l1.72-5.49h-.57c-.39,0-.75.1-1.1.29-.35.19-.67.62-.97,1.28h-.53l.66-2.1h6.96Z" fill="#fff"/>
  </g>
</svg>