<?xml version="1.0" encoding="UTF-8"?>
<svg id="p" data-name="_x38_._Transportation" xmlns="http://www.w3.org/2000/svg" viewBox="0 0 36 36">
  <path d="M9.53,17.22h14M13.53,24.22l-3,3M19.53,24.22l3,3M16.53,21.22h.01M12.73,24.22h7.6c1.12,0,1.68,0,2.11-.22.38-.19.68-.5.87-.87.22-.43.22-.99.22-2.11v-8.6c0-1.12,0-1.68-.22-2.11-.19-.38-.5-.68-.87-.87-.43-.22-.99-.22-2.11-.22h-7.6c-1.12,0-1.68,0-2.11.22-.38.19-.68.5-.87.87-.22.43-.22.99-.22,2.11v8.6c0,1.12,0,1.68.22,2.11.19.38.5.68.87.87.43.22.99.22,2.11.22Z" fill="none" stroke="#fff" stroke-linecap="round" stroke-linejoin="round" stroke-width="2"/>
  <rect x="4.89" y="6.19" width="23.62" height="23.62" transform="translate(-7.84 17.08) rotate(-45)" fill="none" stroke="#fff" stroke-linecap="round" stroke-linejoin="round" stroke-width="2"/>
</svg>