<?xml version="1.0" encoding="UTF-8"?><svg id="q" xmlns="http://www.w3.org/2000/svg" viewBox="0 0 184 36"><path d="M10.65,17.33h14.08M14.67,23.61l-3.02,2.69M20.71,23.61l3.02,2.69M17.69,20.92h.01M13.87,23.61h7.64c1.13,0,1.69,0,2.12-.2.38-.17.69-.45.88-.78.22-.38.22-.89.22-1.89v-7.71c0-1,0-1.51-.22-1.89-.19-.34-.5-.61-.88-.78-.43-.2-.99-.2-2.12-.2h-7.64c-1.13,0-1.69,0-2.12.2-.38.17-.69.45-.88.78-.22.38-.22.89-.22,1.89v7.71c0,1,0,1.51.22,1.89.19.34.5.61.88.78.43.2.99.2,2.12.2Z" fill="none" stroke="#fff" stroke-linecap="round" stroke-linejoin="round" stroke-width="2"/><path d="M56.92,9.37l-1.05,5.03h-.84c.05-.43.08-.83.08-1.19,0-1.11-.17-1.82-.5-2.11s-.76-.45-1.28-.45h-1.06l-2.68,12.69c-.11.49-.16.87-.16,1.14,0,.48.12.81.37.98.25.17.49.26.73.26h.44l-.26,1.19h-5.97l.24-1.19h.29c.6,0,1.01-.12,1.22-.38.21-.25.4-.77.56-1.56l2.76-13.13h-.91c-.62,0-1.2.23-1.76.69-.55.46-1.07,1.48-1.55,3.06h-.85l1.06-5.03h11.12Z" fill="#fff"/><path d="M71.47,13.79c0,.45-.06.93-.18,1.45-.12.52-.33,1.03-.62,1.51-.3.49-.72.91-1.26,1.25s-1.22.57-2.04.65c.3.34.53.72.72,1.16.18.44.38,1.16.59,2.18.16.75.31,1.35.46,1.81.15.46.36.86.65,1.2.29.35.68.58,1.19.7l-.25,1.19h-3.1c-.16-.32-.31-.72-.46-1.19-.15-.47-.38-1.34-.68-2.6l-.36-1.51c-.18-.79-.33-1.35-.44-1.67-.11-.32-.28-.57-.52-.75s-.61-.27-1.1-.27h-.51l-.93,4.42c-.11.49-.16.86-.16,1.11,0,.54.15.89.44,1.04.29.15.65.23,1.09.23l-.26,1.19h-5.46l.25-1.19c.33,0,.59-.06.77-.17.18-.11.34-.31.46-.59.12-.28.24-.68.34-1.21l2.29-10.97c.11-.52.16-.86.16-1.02,0-.42-.11-.73-.32-.92-.21-.19-.45-.28-.72-.28h-.35l.24-1.19h5.72c.63,0,1.15.05,1.56.14.41.1.8.29,1.19.58.47.34.85.82,1.16,1.44.3.63.45,1.38.45,2.26ZM68.97,13.34c0-1.16-.26-1.89-.78-2.21-.52-.32-1.13-.48-1.84-.48h-1.08l-1.46,6.98h.93c1.33,0,2.25-.21,2.76-.63.46-.38.82-.91,1.08-1.58.25-.68.38-1.37.38-2.08Z" fill="#fff"/><path d="M85.95,25.71l-.24,1.19h-5.48l.25-1.19c.46,0,.81-.08,1.06-.23s.43-.44.53-.85c.11-.41.16-1,.16-1.78v-2.2h-3.79l-1.3,2.75c-.31.68-.47,1.17-.47,1.47,0,.55.36.83,1.09.83h.51l-.25,1.19h-4.32l.26-1.19c.41-.04.82-.34,1.22-.89.41-.55.85-1.31,1.33-2.3l6.53-13.47h1.55l-.12,14.61c0,.58.04,1.01.13,1.29.09.28.24.48.44.59.21.11.51.17.9.17ZM82.32,12.6l-3.28,6.87h3.19l.09-6.87Z" fill="#fff"/><path d="M104.98,9.37l-.24,1.19c-.48.06-.86.27-1.14.61s-.54,1.13-.79,2.33l-2.86,13.53h-1.13l-4.07-13.14-1.88,8.96c-.12.61-.19,1.05-.19,1.32,0,.58.15.98.46,1.2.31.22.64.34,1,.34l-.26,1.19h-4.04l.25-1.19c.55-.12.95-.47,1.21-1.05.26-.58.48-1.32.67-2.24l2.17-10.38-.2-.48c-.2-.47-.38-.75-.56-.85s-.52-.16-1.01-.16l.26-1.19h3.28l4.04,13.06,1.73-8.24c.04-.18.08-.4.14-.67.06-.26.11-.51.15-.74.04-.23.06-.44.06-.64,0-.38-.11-.74-.34-1.08-.23-.34-.62-.51-1.17-.51l.26-1.19h4.2Z" fill="#fff"/><path d="M117.59,9.37l-.54,5.25h-.85c-.06-.62-.16-1.23-.3-1.84-.14-.6-.4-1.16-.77-1.68s-.89-.78-1.56-.78c-.54,0-.98.21-1.33.63-.35.42-.52,1-.52,1.72,0,.48.08.94.24,1.36.16.43.39.85.67,1.27.28.42.62.88,1.01,1.36.75.92,1.31,1.78,1.7,2.57s.58,1.7.58,2.74c0,.87-.16,1.71-.47,2.52-.31.81-.77,1.46-1.37,1.97-.6.51-1.29.76-2.07.76-.34,0-.68-.07-1.03-.2-.35-.13-.68-.34-.99-.61-.31-.28-.62-.64-.94-1.1-.14.2-.33.69-.57,1.46h-.84l.57-6.12h.84c.02.97.13,1.81.32,2.5.19.69.44,1.24.74,1.64.3.41.62.7.96.88.34.18.67.27.98.27.35,0,.66-.12.94-.35.28-.23.49-.55.65-.95.16-.4.24-.84.24-1.31s-.06-.89-.19-1.25-.31-.73-.55-1.1c-.24-.37-.66-.97-1.26-1.78-.76-1.03-1.29-1.92-1.59-2.65-.3-.73-.45-1.5-.45-2.3,0-.91.17-1.76.51-2.56.34-.8.8-1.44,1.37-1.91.57-.47,1.18-.71,1.82-.71.97,0,1.85.56,2.64,1.67.04-.08.09-.18.15-.3.07-.12.13-.26.2-.41.07-.15.14-.37.23-.65h.82Z" fill="#fff"/><path d="M132.82,13.81c0,.55-.07,1.09-.2,1.62-.13.53-.34,1.02-.63,1.49s-.68.87-1.16,1.22c-.49.35-1.11.57-1.86.69-.75.11-1.45.17-2.11.17h-1.16l-.92,4.35c-.11.54-.16.92-.16,1.14,0,.47.12.79.37.97s.5.27.76.27h.25l-.25,1.19h-5.14l.26-1.19c.38,0,.67-.15.87-.45s.37-.8.52-1.52l2.29-10.97c.11-.5.16-.84.16-1.02,0-.53-.13-.86-.38-1-.26-.14-.55-.21-.89-.21l.23-1.19h4.93c.59,0,1.09.05,1.48.15.39.1.79.32,1.18.65,1.03.89,1.55,2.1,1.55,3.65ZM130.33,13.16c0-1.08-.2-1.77-.61-2.06-.41-.3-.87-.45-1.39-.45h-.86l-1.49,7.06h1.08c.95,0,1.64-.26,2.08-.79.21-.26.4-.58.59-.98.18-.39.33-.83.44-1.31.11-.48.17-.97.17-1.48Z" fill="#fff"/><path d="M150.28,16.28c0,1.2-.19,2.44-.56,3.72-.37,1.28-.9,2.47-1.59,3.57-.69,1.1-1.52,1.98-2.48,2.65-.96.67-2.02,1-3.17,1-1.22,0-2.22-.36-2.99-1.07-.77-.72-1.33-1.62-1.67-2.71-.34-1.09-.51-2.2-.51-3.32,0-1.69.33-3.4.99-5.12.66-1.72,1.59-3.15,2.78-4.27,1.2-1.12,2.57-1.68,4.11-1.68,1.18,0,2.16.35,2.92,1.05.76.7,1.31,1.6,1.65,2.7.34,1.1.51,2.26.51,3.47ZM147.82,14.51c0-2.85-.9-4.27-2.71-4.27-.47,0-.93.12-1.38.36-.44.24-.87.63-1.26,1.17-.4.54-.76,1.23-1.08,2.06-.43,1.16-.8,2.49-1.13,3.96-.33,1.48-.49,2.84-.49,4.09,0,2.75.88,4.13,2.64,4.13.98,0,1.82-.45,2.52-1.34.71-.89,1.29-2.14,1.77-3.74.74-2.53,1.11-4.68,1.11-6.43Z" fill="#fff"/><path d="M167.11,13.79c0,.45-.06.93-.18,1.45-.12.52-.33,1.03-.62,1.51-.3.49-.72.91-1.26,1.25s-1.22.57-2.04.65c.3.34.53.72.72,1.16.18.44.38,1.16.59,2.18.16.75.31,1.35.46,1.81.15.46.36.86.65,1.2.29.35.68.58,1.19.7l-.25,1.19h-3.1c-.16-.32-.31-.72-.46-1.19-.15-.47-.38-1.34-.68-2.6l-.36-1.51c-.18-.79-.33-1.35-.44-1.67-.11-.32-.28-.57-.52-.75s-.61-.27-1.1-.27h-.51l-.93,4.42c-.11.49-.16.86-.16,1.11,0,.54.15.89.44,1.04.29.15.65.23,1.09.23l-.26,1.19h-5.46l.25-1.19c.33,0,.59-.06.77-.17.18-.11.34-.31.46-.59.12-.28.24-.68.34-1.21l2.29-10.97c.11-.52.16-.86.16-1.02,0-.42-.11-.73-.32-.92-.21-.19-.45-.28-.72-.28h-.35l.24-1.19h5.72c.63,0,1.15.05,1.56.14.41.1.8.29,1.19.58.47.34.85.82,1.16,1.44.3.63.45,1.38.45,2.26ZM164.61,13.34c0-1.16-.26-1.89-.78-2.21-.52-.32-1.13-.48-1.84-.48h-1.08l-1.46,6.98h.93c1.33,0,2.25-.21,2.76-.63.46-.38.82-.91,1.08-1.58.25-.68.38-1.37.38-2.08Z" fill="#fff"/><path d="M183.83,9.37l-1.05,5.03h-.84c.05-.43.08-.83.08-1.19,0-1.11-.17-1.82-.5-2.11s-.76-.45-1.28-.45h-1.06l-2.68,12.69c-.11.49-.16.87-.16,1.14,0,.48.12.81.37.98.25.17.49.26.73.26h.44l-.26,1.19h-5.97l.24-1.19h.29c.6,0,1.01-.12,1.22-.38.21-.25.4-.77.56-1.56l2.76-13.13h-.91c-.62,0-1.2.23-1.76.69-.55.46-1.07,1.48-1.55,3.06h-.85l1.06-5.03h11.12Z" fill="#fff"/></svg>