<?xml version="1.0" encoding="UTF-8"?>
<svg id="p" data-name="_x38_._Transportation" xmlns="http://www.w3.org/2000/svg" viewBox="0 0 184 36">
  <path d="M12.85,17.22h14M16.85,24.22l-3,3M22.85,24.22l3,3M19.85,21.22h.01M16.05,24.22h7.6c1.12,0,1.68,0,2.11-.22.38-.19.68-.5.87-.87.22-.43.22-.99.22-2.11v-8.6c0-1.12,0-1.68-.22-2.11-.19-.38-.5-.68-.87-.87-.43-.22-.99-.22-2.11-.22h-7.6c-1.12,0-1.68,0-2.11.22-.38.19-.68.5-.87.87-.22.43-.22.99-.22,2.11v8.6c0,1.12,0,1.68.22,2.11.19.38.5.68.87.87.43.22.99.22,2.11.22Z" fill="none" stroke="#231f20" stroke-linecap="round" stroke-linejoin="round" stroke-width="2"/>
  <rect x="8.2" y="6.19" width="23.62" height="23.62" transform="translate(-6.87 19.42) rotate(-45)" fill="none" stroke="#231f20" stroke-linecap="round" stroke-linejoin="round" stroke-width="2"/>
  <g>
    <path d="M62.69,13.53l-.83,2.66h-.67c.04-.23.06-.44.06-.63,0-.59-.13-.96-.4-1.12s-.6-.24-1.02-.24h-.84l-2.12,6.71c-.08.26-.13.46-.13.6,0,.26.1.43.29.52.19.09.39.14.58.14h.35l-.2.63h-4.72l.19-.63h.23c.48,0,.8-.07.97-.2.17-.13.31-.41.44-.83l2.18-6.94h-.72c-.49,0-.95.12-1.39.37-.44.24-.85.78-1.23,1.62h-.67l.84-2.66h8.79Z"/>
    <path d="M74.19,15.86c0,.24-.05.49-.14.77-.09.28-.26.54-.49.8-.23.26-.57.48-.99.66s-.97.3-1.61.35c.23.18.42.38.57.61.14.23.3.61.47,1.15.13.4.25.72.36.96.11.24.29.45.51.64.23.18.54.31.94.37l-.2.63h-2.45c-.13-.17-.25-.38-.37-.63-.12-.25-.3-.71-.54-1.37l-.29-.8c-.15-.42-.26-.71-.34-.88-.08-.17-.22-.3-.41-.4s-.48-.14-.87-.14h-.4l-.74,2.34c-.08.26-.13.46-.13.59,0,.29.11.47.34.55.23.08.52.12.86.12l-.2.63h-4.31l.2-.63c.26,0,.47-.03.61-.09.15-.06.27-.16.36-.31.1-.15.19-.36.27-.64l1.81-5.8c.08-.27.13-.45.13-.54,0-.22-.08-.39-.25-.49-.17-.1-.36-.15-.57-.15h-.27l.19-.63h4.52c.5,0,.91.03,1.23.08.32.05.63.15.94.31.37.18.67.43.91.76.24.33.36.73.36,1.19ZM72.22,15.63c0-.61-.21-1-.61-1.17-.41-.17-.9-.25-1.46-.25h-.85l-1.15,3.69h.74c1.05,0,1.78-.11,2.19-.33.37-.2.65-.48.85-.84.2-.36.3-.72.3-1.1Z"/>
    <path d="M85.64,22.17l-.19.63h-4.33l.2-.63c.36,0,.64-.04.84-.12s.34-.23.42-.45c.08-.22.13-.53.13-.94v-1.16h-2.99l-1.03,1.46c-.25.36-.37.62-.37.78,0,.29.29.44.86.44h.4l-.2.63h-3.42l.2-.63c.32-.02.65-.18.97-.47.32-.29.67-.69,1.05-1.21l5.17-7.12h1.22l-.1,7.72c0,.31.04.53.11.68.07.15.19.25.35.31.16.06.4.09.71.09ZM82.77,15.24l-2.59,3.63h2.52l.07-3.63Z"/>
    <path d="M100.68,13.53l-.19.63c-.38.03-.68.14-.9.32s-.43.6-.63,1.23l-2.26,7.15h-.89l-3.22-6.95-1.48,4.74c-.1.32-.15.56-.15.7,0,.31.12.52.36.64.24.12.5.18.79.18l-.2.63h-3.19l.2-.63c.43-.06.75-.25.96-.55.21-.31.38-.7.53-1.18l1.71-5.49-.15-.25c-.15-.25-.3-.4-.44-.45s-.41-.08-.8-.08l.2-.63h2.59l3.19,6.9,1.37-4.35c.03-.1.07-.21.11-.35.05-.14.09-.27.12-.39.03-.12.05-.23.05-.34,0-.2-.09-.39-.27-.57-.18-.18-.49-.27-.93-.27l.2-.63h3.32Z"/>
    <path d="M110.65,13.53l-.43,2.78h-.67c-.05-.33-.13-.65-.24-.97-.11-.32-.31-.62-.61-.89s-.71-.41-1.23-.41c-.43,0-.78.11-1.05.33-.28.22-.41.53-.41.91,0,.26.06.5.19.72.13.23.31.45.53.67.22.22.49.46.8.72.59.49,1.04.94,1.34,1.36s.46.9.46,1.45c0,.46-.12.9-.37,1.33-.25.43-.61.77-1.08,1.04-.47.27-1.02.4-1.64.4-.27,0-.54-.04-.81-.11-.27-.07-.53-.18-.78-.32-.25-.15-.49-.34-.74-.58-.11.1-.26.36-.45.77h-.66l.45-3.23h.66c.02.52.1.95.25,1.32.15.36.34.65.58.87.24.21.49.37.76.46.27.1.53.14.78.14.28,0,.52-.06.74-.18.22-.12.39-.29.51-.5.12-.21.19-.44.19-.69s-.05-.47-.15-.66-.24-.39-.43-.58c-.19-.2-.52-.51-.99-.94-.6-.55-1.02-1.01-1.25-1.4-.24-.39-.35-.79-.35-1.22,0-.48.13-.93.4-1.35.27-.42.63-.76,1.08-1.01.45-.25.93-.38,1.44-.38.76,0,1.46.29,2.09.88.03-.04.07-.09.12-.16.05-.06.1-.14.15-.22.05-.08.11-.19.18-.35h.65Z"/>
    <path d="M122.69,15.88c0,.29-.05.58-.15.85-.1.28-.27.54-.5.79s-.53.46-.91.64c-.39.18-.88.3-1.47.36-.59.06-1.15.09-1.67.09h-.92l-.72,2.3c-.08.29-.13.49-.13.6,0,.25.1.42.3.51s.4.14.6.14h.2l-.2.63h-4.06l.2-.63c.3,0,.53-.08.69-.24s.3-.42.41-.8l1.81-5.8c.08-.26.13-.44.13-.54,0-.28-.1-.45-.3-.53-.2-.07-.44-.11-.7-.11l.18-.63h3.9c.47,0,.86.03,1.17.08.31.05.62.17.93.35.82.47,1.22,1.11,1.22,1.93ZM120.72,15.53c0-.57-.16-.93-.48-1.09-.32-.16-.69-.24-1.1-.24h-.68l-1.18,3.73h.85c.75,0,1.3-.14,1.64-.42.16-.14.32-.31.46-.52.15-.21.26-.44.35-.69.09-.25.13-.51.13-.78Z"/>
    <path d="M136.5,17.18c0,.63-.15,1.29-.44,1.97-.29.68-.71,1.31-1.26,1.89-.55.58-1.2,1.05-1.96,1.4-.76.35-1.6.53-2.51.53-.97,0-1.75-.19-2.36-.57-.61-.38-1.05-.86-1.32-1.43-.27-.58-.4-1.16-.4-1.75,0-.89.26-1.8.78-2.71.52-.91,1.25-1.66,2.2-2.26.95-.59,2.03-.89,3.25-.89.94,0,1.71.19,2.31.56.6.37,1.04.85,1.31,1.43.27.58.4,1.19.4,1.84ZM134.55,16.25c0-1.5-.71-2.26-2.14-2.26-.38,0-.74.06-1.09.19-.35.13-.68.33-1,.62-.31.28-.6.65-.85,1.09-.34.62-.64,1.31-.89,2.1-.26.78-.39,1.5-.39,2.16,0,1.45.7,2.18,2.09,2.18.77,0,1.44-.24,2-.71.56-.47,1.02-1.13,1.4-1.98.59-1.34.88-2.47.88-3.4Z"/>
    <path d="M149.8,15.86c0,.24-.05.49-.14.77-.09.28-.26.54-.49.8-.23.26-.57.48-.99.66s-.97.3-1.61.35c.23.18.42.38.57.61.14.23.3.61.47,1.15.13.4.25.72.36.96.11.24.29.45.51.64.23.18.54.31.94.37l-.2.63h-2.45c-.13-.17-.25-.38-.37-.63-.12-.25-.3-.71-.54-1.37l-.29-.8c-.15-.42-.26-.71-.34-.88-.08-.17-.22-.3-.41-.4s-.48-.14-.87-.14h-.4l-.74,2.34c-.08.26-.13.46-.13.59,0,.29.11.47.34.55.23.08.52.12.86.12l-.2.63h-4.31l.2-.63c.26,0,.47-.03.61-.09.15-.06.27-.16.36-.31.1-.15.19-.36.27-.64l1.81-5.8c.08-.27.13-.45.13-.54,0-.22-.08-.39-.25-.49-.17-.1-.36-.15-.57-.15h-.27l.19-.63h4.52c.5,0,.91.03,1.23.08.32.05.63.15.94.31.37.18.67.43.91.76.24.33.36.73.36,1.19ZM147.82,15.63c0-.61-.21-1-.61-1.17-.41-.17-.9-.25-1.46-.25h-.85l-1.15,3.69h.74c1.05,0,1.78-.11,2.19-.33.37-.2.65-.48.85-.84.2-.36.3-.72.3-1.1Z"/>
    <path d="M163.02,13.53l-.83,2.66h-.67c.04-.23.06-.44.06-.63,0-.59-.13-.96-.4-1.12s-.6-.24-1.02-.24h-.84l-2.12,6.71c-.08.26-.13.46-.13.6,0,.26.1.43.29.52.19.09.39.14.58.14h.35l-.2.63h-4.72l.19-.63h.23c.48,0,.8-.07.97-.2.17-.13.31-.41.44-.83l2.18-6.94h-.72c-.49,0-.95.12-1.39.37-.44.24-.85.78-1.23,1.62h-.67l.84-2.66h8.79Z"/>
  </g>
</svg>