<?xml version="1.0" encoding="UTF-8"?><svg id="q" xmlns="http://www.w3.org/2000/svg" viewBox="0 0 36 36"><path d="M10.82,17.33h14.08M14.84,23.61l-3.02,2.69M20.88,23.61l3.02,2.69M17.86,20.92h.01M14.04,23.61h7.64c1.13,0,1.69,0,2.12-.2.38-.17.69-.45.88-.78.22-.38.22-.89.22-1.89v-7.71c0-1,0-1.51-.22-1.89-.19-.34-.5-.61-.88-.78-.43-.2-.99-.2-2.12-.2h-7.64c-1.13,0-1.69,0-2.12.2-.38.17-.69.45-.88.78-.22.38-.22.89-.22,1.89v7.71c0,1,0,1.51.22,1.89.19.34.5.61.88.78.43.2.99.2,2.12.2Z" fill="none" stroke="#fff" stroke-linecap="round" stroke-linejoin="round" stroke-width="2"/></svg>