<?xml version="1.0" encoding="UTF-8"?><svg id="k" xmlns="http://www.w3.org/2000/svg" viewBox="0 0 36 36"><path d="M10.02,25.24c-.49,0-.88.4-.88.89s.39.89.88.89v-1.78ZM25.87,27.02c.49,0,.88-.4.88-.89s-.39-.89-.88-.89v1.78ZM10.9,22.58c-.49,0-.88.4-.88.89s.39.89.88.89v-1.78ZM24.99,24.36c.49,0,.88-.4.88-.89s-.39-.89-.88-.89v1.78ZM11.78,23.47c0,.49.39.89.88.89s.88-.4.88-.89h-1.76ZM13.54,19.03c0-.49-.39-.89-.88-.89s-.88.4-.88.89h1.76ZM15.3,23.47c0,.49.39.89.88.89s.88-.4.88-.89h-1.76ZM17.06,19.03c0-.49-.39-.89-.88-.89s-.88.4-.88.89h1.76ZM18.82,23.47c0,.49.39.89.88.89s.88-.4.88-.89h-1.76ZM20.59,19.03c0-.49-.39-.89-.88-.89s-.88.4-.88.89h1.76ZM22.35,23.47c0,.49.39.89.88.89s.88-.4.88-.89h-1.76ZM24.11,19.03c0-.49-.39-.89-.88-.89s-.88.4-.88.89h1.76ZM25.87,16.37v.89c.37,0,.69-.23.82-.57.13-.34.04-.73-.24-.98l-.58.66ZM10.02,16.37l-.58-.66c-.27.24-.37.63-.24.98.13.34.46.57.82.57v-.89ZM19.82,10.95l-.58.66.58-.66ZM18.45,9.94l-.25.85.25-.85ZM16.07,10.95l-.58-.66.58.66ZM17.44,9.94l.25.85-.25-.85ZM17.35,13.06c-.36.33-.39.89-.06,1.25.33.36.88.39,1.24.06l-1.19-1.31ZM18.54,14.36c.36-.33.39-.89.06-1.25-.33-.36-.88-.39-1.24-.06l1.19,1.31ZM10.02,27.02h15.85v-1.78h-15.85v1.78ZM10.9,24.36h14.08v-1.78h-14.08v1.78ZM13.54,23.47v-4.44h-1.76v4.44h1.76ZM17.06,23.47v-4.44h-1.76v4.44h1.76ZM20.59,23.47v-4.44h-1.76v4.44h1.76ZM24.11,23.47v-4.44h-1.76v4.44h1.76ZM19.23,11.61l6.05,5.42,1.17-1.33-6.05-5.42-1.17,1.33ZM25.87,15.48h-15.85v1.78h15.85v-1.78ZM10.61,17.03l6.05-5.42-1.17-1.33-6.05,5.42,1.17,1.33ZM20.4,10.28c-.32-.29-.6-.54-.84-.73-.25-.19-.53-.37-.86-.46l-.5,1.7s.13.05.3.18c.18.14.4.33.74.64l1.17-1.33ZM16.66,11.61c.34-.31.56-.5.74-.64.17-.13.25-.16.3-.18l-.5-1.7c-.33.1-.6.27-.86.46-.25.19-.52.44-.84.73l1.17,1.33ZM18.7,9.09c-.49-.15-1.02-.15-1.51,0l.5,1.7c.16-.05.34-.05.5,0l.5-1.7ZM18.54,14.37h0s-1.19-1.32-1.19-1.32h0s1.19,1.32,1.19,1.32Z"/></svg>