<?xml version="1.0" encoding="UTF-8"?><svg id="c" xmlns="http://www.w3.org/2000/svg" viewBox="0 0 184 36"><path d="M10.02,25.32c-.49,0-.88.4-.88.89s.39.89.88.89v-1.78ZM25.87,27.1c.49,0,.88-.4.88-.89s-.39-.89-.88-.89v1.78ZM10.9,22.66c-.49,0-.88.4-.88.89s.39.89.88.89v-1.78ZM24.99,24.43c.49,0,.88-.4.88-.89s-.39-.89-.88-.89v1.78ZM11.78,23.55c0,.49.39.89.88.89s.88-.4.88-.89h-1.76ZM13.54,19.11c0-.49-.39-.89-.88-.89s-.88.4-.88.89h1.76ZM15.3,23.55c0,.49.39.89.88.89s.88-.4.88-.89h-1.76ZM17.06,19.11c0-.49-.39-.89-.88-.89s-.88.4-.88.89h1.76ZM18.82,23.55c0,.49.39.89.88.89s.88-.4.88-.89h-1.76ZM20.59,19.11c0-.49-.39-.89-.88-.89s-.88.4-.88.89h1.76ZM22.35,23.55c0,.49.39.89.88.89s.88-.4.88-.89h-1.76ZM24.11,19.11c0-.49-.39-.89-.88-.89s-.88.4-.88.89h1.76ZM25.87,16.45v.89c.37,0,.69-.23.82-.57.13-.34.04-.73-.24-.98l-.58.66ZM10.02,16.45l-.58-.66c-.27.24-.37.63-.24.98.13.34.46.57.82.57v-.89ZM19.82,11.02l-.58.66.58-.66ZM18.45,10.02l-.25.85.25-.85ZM16.07,11.02l-.58-.66.58.66ZM17.44,10.02l.25.85-.25-.85ZM17.35,13.13c-.36.33-.39.89-.06,1.25.33.36.88.39,1.24.06l-1.19-1.31ZM18.54,14.44c.36-.33.39-.89.06-1.25-.33-.36-.88-.39-1.24-.06l1.19,1.31ZM10.02,27.1h15.85v-1.78h-15.85v1.78ZM10.9,24.43h14.08v-1.78h-14.08v1.78ZM13.54,23.55v-4.44h-1.76v4.44h1.76ZM17.06,23.55v-4.44h-1.76v4.44h1.76ZM20.59,23.55v-4.44h-1.76v4.44h1.76ZM24.11,23.55v-4.44h-1.76v4.44h1.76ZM19.23,11.69l6.05,5.42,1.17-1.33-6.05-5.42-1.17,1.33ZM25.87,15.56h-15.85v1.78h15.85v-1.78ZM10.61,17.11l6.05-5.42-1.17-1.33-6.05,5.42,1.17,1.33ZM20.4,10.36c-.32-.29-.6-.54-.84-.73-.25-.19-.53-.37-.86-.46l-.5,1.7s.13.05.3.18c.18.14.4.33.74.64l1.17-1.33ZM16.66,11.69c.34-.31.56-.5.74-.64.17-.13.25-.16.3-.18l-.5-1.7c-.33.1-.6.27-.86.46-.25.19-.52.44-.84.73l1.17,1.33ZM18.7,9.17c-.49-.15-1.02-.15-1.51,0l.5,1.7c.16-.05.34-.05.5,0l.5-1.7ZM18.54,14.45h0s-1.19-1.32-1.19-1.32h0s1.19,1.32,1.19,1.32Z"/><path d="M59.23,13.74c0,.13-.06.2-.18.2-.1,0-.18-.04-.22-.13-.04-.08-.12-.37-.24-.87-.34-1.36-1-2.27-1.97-2.73-.58-.27-1.61-.41-3.1-.41-.68,0-1.47.03-2.36.08v7.81h.74c1.61,0,2.61-.17,3.01-.51.4-.34.71-1.28.91-2.83.03-.22.12-.33.26-.33s.21.13.21.38c0-.08,0,.03-.03.34-.02.31-.03.83-.03,1.54v1.66c0,1.19,0,1.98.03,2.36.02.38.03.71.03.98s-.08.41-.23.41c-.22,0-.35-.27-.38-.82-.09-1.24-.39-2.05-.92-2.42-.26-.19-.71-.28-1.36-.28-.87,0-1.62,0-2.23.03v6.18c0,1.09.09,1.73.26,1.91.17.19.76.28,1.78.28.31,0,.46.07.46.2,0,.15-.16.23-.48.23-.37,0-.83,0-1.35-.03-1.06-.03-2.25-.05-3.57-.05-.94,0-1.76.02-2.48.06-.1.01-.22.02-.36.02-.2,0-.31-.07-.31-.22s.27-.23.82-.24c.8-.03,1.24-.22,1.33-.56.07-.14.1-.37.1-.71v-14.8c-.03-.24-.13-.4-.3-.48-.16-.08-.49-.14-.98-.18-.49-.03-.74-.11-.74-.23,0-.17.17-.26.51-.26h.48c.07,0,.71,0,1.94-.03,1.36-.03,2.56-.05,3.6-.05,1.55-.02,2.86-.02,3.93,0l1.76.08c.27,0,.68-.03,1.23-.08.14,2.02.27,3.42.41,4.19.02.1.03.2.03.3Z"/><path d="M66.5,26.84c0,.12-.08.18-.23.18h-6.43c-.2,0-.31-.05-.31-.16,0-.08.2-.13.59-.14.58-.02.92-.08,1.02-.19.1-.11.15-.45.15-1.01v-7.36c0-.65-.06-1.04-.17-1.17-.11-.13-.45-.19-1.01-.19-.36,0-.57,0-.63-.03-.06-.02-.09-.08-.09-.18,0-.12.13-.18.38-.18,1.87-.02,3.47-.31,4.8-.87.03.2.08.77.13,1.68v8.04c0,.7.06,1.11.19,1.22.13.12.57.18,1.31.18.19,0,.28.06.28.18ZM64.71,10.65c0,.48-.17.89-.5,1.23-.33.34-.73.51-1.2.51s-.9-.16-1.23-.48c-.33-.32-.5-.73-.5-1.22s.17-.87.5-1.17c.33-.31.76-.46,1.28-.46.47,0,.86.15,1.17.46s.47.69.47,1.15Z"/><path d="M80.15,26.84c0,.14-.21.2-.64.2h-5.46c-.24,0-.36-.06-.36-.19,0-.11.1-.17.3-.17h.2c.43,0,.69-.06.76-.17.07-.11.11-.49.11-1.14v-4.95c0-1.83-.12-2.92-.35-3.28-.2-.31-.56-.46-1.08-.46s-.95.16-1.28.48c-.33.32-.5.73-.5,1.22v7.71c.03.2.11.34.22.39.11.06.39.1.83.11.14,0,.2.05.2.15s-.06.16-.18.18-.54.03-1.28.03-1.34,0-1.81.03c-.94.03-1.89.05-2.86.05-.2,0-.31-.06-.31-.18,0-.14.26-.2.78-.2s.82-.1.91-.31l.08-.36v-5.85c0-1.65-.02-2.5-.05-2.57-.05-.25-.28-.38-.69-.38h-.87c-.27,0-.41-.06-.41-.17s.1-.17.3-.19c1.9-.08,3.41-.48,4.55-1.2.13-.07.23-.1.28-.1.14,0,.2.14.2.41v1.45c.9-1.17,2.06-1.76,3.47-1.76s2.42.51,2.86,1.53c.19.43.3.9.34,1.43.04.53.06,1.62.06,3.27v3.7c0,.53.04.84.13.93.08.09.36.14.83.14s.7.07.7.2Z"/><path d="M91.72,25.64c0,.14-.14.33-.41.57-.73.67-1.63,1.01-2.71,1.01-.7,0-1.2-.15-1.52-.44-.31-.29-.52-.82-.63-1.58-.77,1.4-1.81,2.09-3.14,2.09-.73,0-1.32-.23-1.77-.69-.45-.46-.68-1.05-.68-1.79,0-2.14,1.84-3.41,5.51-3.8v-.54c0-1.7-.06-2.75-.18-3.14l-.03-.13c-.24-.85-.84-1.28-1.81-1.28-.56,0-1.01.16-1.35.48-.34.32-.51.64-.51.94,0,.17.2.27.61.31.61.05.92.43.92,1.12,0,.37-.12.69-.37.93-.25.25-.57.37-.96.37-.49,0-.9-.15-1.21-.45-.31-.3-.47-.68-.47-1.14,0-.73.37-1.4,1.1-1.99.73-.6,1.69-.89,2.88-.89,1.77,0,3,.32,3.7.94.56.53.84,1.45.84,2.76v4.36c0,.85,0,1.34.03,1.48.08.71.33,1.07.74,1.07.29,0,.65-.2,1.07-.61.08-.08.15-.13.2-.13.08,0,.13.04.13.13ZM86.38,22.6v-1.25c-1.65.32-2.48,1.26-2.48,2.81,0,1.19.41,1.79,1.23,1.79.46,0,.78-.26.97-.77.19-.51.28-1.37.28-2.58Z"/><path d="M104.86,26.84c0,.14-.21.2-.64.2h-5.46c-.24,0-.36-.06-.36-.19,0-.11.1-.17.3-.17h.2c.43,0,.69-.06.76-.17.07-.11.11-.49.11-1.14v-4.95c0-1.83-.12-2.92-.35-3.28-.2-.31-.56-.46-1.08-.46s-.95.16-1.28.48c-.33.32-.5.73-.5,1.22v7.71c.03.2.11.34.22.39.11.06.39.1.83.11.14,0,.2.05.2.15s-.06.16-.18.18c-.12.02-.54.03-1.28.03s-1.34,0-1.81.03c-.94.03-1.89.05-2.86.05-.2,0-.31-.06-.31-.18,0-.14.26-.2.78-.2s.82-.1.91-.31l.08-.36v-5.85c0-1.65-.02-2.5-.05-2.57-.05-.25-.28-.38-.69-.38h-.87c-.27,0-.41-.06-.41-.17s.1-.17.3-.19c1.9-.08,3.41-.48,4.55-1.2.14-.07.23-.1.28-.1.14,0,.2.14.2.41v1.45c.9-1.17,2.06-1.76,3.47-1.76s2.42.51,2.86,1.53c.19.43.3.9.34,1.43.04.53.06,1.62.06,3.27v3.7c0,.53.04.84.13.93.08.09.36.14.83.14s.7.07.7.2Z"/><path d="M114.94,18.26c0,.41-.12.74-.36,1s-.54.38-.92.38c-.9,0-1.35-.4-1.35-1.2,0-.2.06-.45.17-.73.11-.28.17-.48.17-.6,0-.32-.12-.6-.37-.83-.25-.23-.55-.34-.91-.34-1.55,0-2.32,1.73-2.32,5.18,0,1.97.34,3.39,1.02,4.24.53.65,1.17.97,1.94.97s1.62-.52,2.45-1.56c.1-.14.2-.2.28-.2.07,0,.1.05.1.15,0,.32-.31.77-.92,1.35-.88.83-1.95,1.25-3.19,1.25-1.53,0-2.84-.55-3.92-1.65-1.08-1.1-1.62-2.43-1.62-3.99,0-1.7.57-3.13,1.71-4.3,1.14-1.17,2.54-1.75,4.21-1.75,1.07,0,1.98.26,2.72.77.74.51,1.11,1.13,1.11,1.86Z"/><path d="M122.11,26.84c0,.12-.08.18-.23.18h-6.43c-.2,0-.31-.05-.31-.16,0-.08.2-.13.59-.14.58-.02.92-.08,1.02-.19.1-.11.15-.45.15-1.01v-7.36c0-.65-.06-1.04-.17-1.17-.11-.13-.45-.19-1.01-.19-.36,0-.57,0-.63-.03-.06-.02-.09-.08-.09-.18,0-.12.13-.18.38-.18,1.87-.02,3.47-.31,4.8-.87.03.2.08.77.13,1.68v8.04c0,.7.06,1.11.19,1.22.13.12.57.18,1.31.18.19,0,.28.06.28.18ZM120.33,10.65c0,.48-.17.89-.5,1.23-.33.34-.73.51-1.2.51s-.9-.16-1.23-.48c-.33-.32-.5-.73-.5-1.22s.17-.87.5-1.17c.33-.31.76-.46,1.28-.46.47,0,.86.15,1.17.46s.47.69.47,1.15Z"/><path d="M133.72,25.64c0,.14-.14.33-.41.57-.73.67-1.63,1.01-2.71,1.01-.7,0-1.2-.15-1.52-.44-.31-.29-.52-.82-.63-1.58-.77,1.4-1.81,2.09-3.14,2.09-.73,0-1.32-.23-1.77-.69-.45-.46-.68-1.05-.68-1.79,0-2.14,1.84-3.41,5.51-3.8v-.54c0-1.7-.06-2.75-.18-3.14l-.03-.13c-.24-.85-.84-1.28-1.81-1.28-.56,0-1.01.16-1.35.48-.34.32-.51.64-.51.94,0,.17.2.27.61.31.61.05.92.43.92,1.12,0,.37-.12.69-.37.93-.25.25-.57.37-.96.37-.49,0-.9-.15-1.21-.45-.31-.3-.47-.68-.47-1.14,0-.73.37-1.4,1.1-1.99.73-.6,1.69-.89,2.88-.89,1.77,0,3,.32,3.7.94.56.53.84,1.45.84,2.76v4.36c0,.85,0,1.34.03,1.48.08.71.33,1.07.74,1.07.29,0,.65-.2,1.07-.61.08-.08.15-.13.2-.13.08,0,.13.04.13.13ZM128.39,22.6v-1.25c-1.65.32-2.48,1.26-2.48,2.81,0,1.19.41,1.79,1.23,1.79.46,0,.78-.26.97-.77.19-.51.28-1.37.28-2.58Z"/><path d="M140.23,26.82c0,.13-.32.19-.97.19-.15,0-.63-.02-1.42-.05-.41-.02-.81-.03-1.2-.03s-1.07.02-2.09.05l-.76.03c-.37.02-.56-.04-.56-.18s.2-.2.59-.18c.6.02.94-.04,1.03-.18.09-.14.14-.65.14-1.53v-13.43c0-.58-.06-.92-.18-1.03-.12-.11-.47-.17-1.06-.17-.43,0-.65-.06-.65-.19,0-.14.22-.23.66-.24,1.9-.07,3.45-.36,4.65-.87v15.31c0,1.16.03,1.83.09,2.03.06.2.27.29.63.27h.77c.22,0,.33.06.33.19Z"/><path d="M148.31,24.74c0,.66-.25,1.22-.75,1.69-.5.46-1.11.7-1.81.7-.41,0-.91-.13-1.49-.38-.15-.07-.27-.1-.35-.1-.09,0-.15.11-.17.32,0,.11-.06.16-.15.16-.08,0-.12-.05-.12-.14,0-.06,0-.11.01-.14.06-.47.09-.9.09-1.3,0-.08,0-.29-.02-.64,0-.05-.01-.11-.01-.18,0-.12.05-.17.14-.17.08,0,.13.09.16.28.2,1.38.85,2.07,1.95,2.07.47,0,.83-.13,1.09-.4.26-.26.39-.64.39-1.12,0-.43-.12-.8-.37-1.1-.25-.3-.68-.6-1.28-.9-.73-.36-1.24-.71-1.52-1.05-.28-.34-.43-.76-.43-1.26,0-.64.21-1.16.62-1.58.41-.41.93-.62,1.56-.62.26,0,.62.09,1.08.26.16.06.28.09.36.09.08,0,.14-.02.17-.05.03-.03.05-.11.07-.24.02-.08.06-.12.13-.12.08,0,.12.05.12.14,0,.06,0,.11-.01.14-.02.18-.03.41-.03.67,0,.37.02.66.06.88v.18c.02.08-.02.13-.09.13-.08,0-.14-.09-.17-.26-.08-.45-.28-.83-.6-1.13-.31-.3-.67-.45-1.06-.45s-.69.12-.92.37c-.23.25-.34.58-.34,1,0,.49.17.89.5,1.19.18.17.58.41,1.2.71.72.36,1.24.73,1.55,1.1.31.37.47.8.47,1.27Z"/><path d="M153.64,25.73c0,.08-.06.21-.18.41-.12.2-.24.36-.36.48-.33.34-.77.51-1.32.51-.69,0-1.27-.25-1.73-.75-.46-.5-.7-1.12-.7-1.85s.22-1.41.66-1.92c.44-.51.99-.77,1.65-.77.54,0,1,.16,1.37.48.37.32.56.73.59,1.23-.25.04-.57.05-.98.05h-.81c-.05,0-.51.01-1.38.03-.04.25-.06.49-.06.72,0,.77.15,1.37.44,1.78.3.42.71.63,1.25.63.31,0,.55-.07.74-.21s.38-.4.6-.79c.03-.06.07-.09.13-.09.06,0,.09.03.09.08ZM152.64,23.38c-.03-.92-.36-1.38-.99-1.38s-1.01.46-1.16,1.38h2.15Z"/><path d="M158.17,22.63c0,.18-.05.32-.16.44-.11.12-.25.17-.41.17-.14,0-.25-.04-.35-.12s-.14-.18-.14-.31c0-.11.03-.2.1-.28.07-.08.1-.13.1-.16,0-.12-.08-.17-.25-.17-.21,0-.4.13-.55.4-.18.31-.26.89-.26,1.74v2.27c0,.09.03.15.1.17s.26.04.59.05c.08.02.13.05.13.09,0,.05-.05.08-.15.08h-2.23c-.12,0-.18-.02-.18-.07s.05-.07.15-.07h.16c.26,0,.41-.03.46-.09.02-.03.02-.17.02-.43v-3.18c0-.42-.06-.67-.19-.74-.13-.07-.33-.1-.6-.11-.09,0-.14-.03-.14-.08s.04-.08.12-.08h.08c.12,0,.23,0,.35.02s.17.02.15.02c.28,0,.6-.08.94-.24l.15-.07.09-.03c.03.18.05.37.05.55v.23c.25-.52.59-.78,1.04-.78.25,0,.45.07.61.22.16.15.24.34.24.56Z"/><path d="M163.31,22.04c0,.05-.07.08-.22.08h-.28c-.14,0-.25.08-.32.25-.05.15-.09.29-.14.44l-.97,2.98c-.05.15-.13.39-.23.7-.12.42-.22.63-.3.63-.05,0-.11-.07-.16-.22-.04-.09-.08-.2-.11-.31-.62-1.68-.94-2.52-.94-2.51-.4-1.15-.64-1.78-.73-1.88-.07-.07-.18-.1-.32-.09h-.26c-.08,0-.12-.02-.12-.07s.05-.07.16-.07h2.2c.08,0,.12.03.12.08,0,.06-.12.09-.36.09s-.36.03-.36.09c0,.08.03.21.1.38.12.31.36.97.72,1.98.15.45.28.8.38,1.04.22-.69.41-1.28.58-1.77.34-1,.51-1.55.51-1.64,0-.07-.06-.1-.17-.1h-.25c-.1,0-.15-.03-.15-.08,0-.05.05-.07.14-.07h1.15c.23,0,.35.02.35.07Z"/><path d="M166.08,26.92c0,.07-.07.1-.2.1,0,0-.08,0-.28-.02-.23-.02-.42-.02-.58-.02h-1.2s-.08.05-.14.05c-.08,0-.13-.03-.13-.09,0-.08.08-.12.23-.12.29,0,.45-.03.48-.06s.04-.19.04-.48v-3.49c0-.19-.02-.31-.03-.34s-.06-.05-.14-.05h-.45c-.08,0-.13-.03-.13-.08,0-.05.06-.07.19-.08.51-.02.94-.14,1.31-.36l.11-.07c.06.11.09.33.09.63,0-.02,0,.02,0,.11v3.59c0,.31,0,.49.02.54.01.05.05.09.12.1.11.03.28.05.51.05.11,0,.16.03.16.09ZM165.22,19.74c0,.35-.17.52-.52.52-.15,0-.27-.05-.37-.14-.1-.1-.15-.21-.15-.35,0-.36.17-.54.52-.54s.52.17.52.52Z"/><path d="M171.08,23.02c0,.35-.17.53-.52.53s-.51-.16-.51-.48c0-.08.04-.21.12-.38.02-.05.03-.11.03-.16,0-.15-.08-.28-.24-.38-.16-.1-.36-.15-.59-.15-.46,0-.82.2-1.07.6-.25.4-.38.96-.38,1.68,0,.81.13,1.44.39,1.88.26.44.63.66,1.11.66.32,0,.61-.1.86-.3.12-.09.26-.27.45-.53.04-.04.07-.06.1-.06.08,0,.12.03.12.09,0,.1-.13.29-.4.56-.35.36-.79.54-1.32.54-.68,0-1.23-.24-1.68-.73-.44-.48-.66-1.09-.66-1.83,0-.79.23-1.45.7-1.96.47-.52,1.06-.78,1.76-.78.45,0,.85.12,1.2.36.35.24.52.51.52.83Z"/><path d="M176.24,25.73c0,.08-.06.21-.18.41-.12.2-.24.36-.36.48-.33.34-.77.51-1.32.51-.69,0-1.27-.25-1.73-.75-.46-.5-.7-1.12-.7-1.85s.22-1.41.66-1.92c.44-.51.99-.77,1.65-.77.54,0,1,.16,1.37.48.37.32.56.73.59,1.23-.25.04-.57.05-.98.05h-.81c-.05,0-.51.01-1.38.03-.04.25-.06.49-.06.72,0,.77.15,1.37.44,1.78.3.42.71.63,1.25.63.31,0,.55-.07.74-.21s.38-.4.6-.79c.03-.06.07-.09.13-.09.06,0,.09.03.09.08ZM175.24,23.38c-.03-.92-.36-1.38-.99-1.38s-1.01.46-1.16,1.38h2.15Z"/><path d="M180.75,25.52c0,.45-.16.83-.49,1.14-.32.31-.71.47-1.16.47-.26,0-.58-.09-.95-.28-.1-.05-.19-.08-.26-.08-.11,0-.19.07-.24.22-.03.09-.07.14-.13.14s-.08-.03-.08-.09v-1.54c0-.08.03-.13.08-.13.06,0,.1.04.1.13.05.36.15.63.3.84.31.4.72.6,1.23.6.28,0,.5-.08.67-.24.17-.16.25-.38.25-.65,0-.3-.1-.54-.29-.72-.11-.1-.21-.17-.29-.21-.09-.04-.35-.14-.78-.31-.85-.32-1.28-.81-1.28-1.45,0-.43.14-.79.43-1.08.29-.29.65-.44,1.07-.44.15,0,.38.05.69.14.08.02.14.03.21.03.16,0,.26-.08.3-.23.02-.08.06-.12.1-.12.05,0,.08.03.08.09v.55c0,.18.01.48.06.89v.02c0,.06-.03.09-.09.09-.05,0-.1-.12-.17-.35-.08-.28-.23-.5-.44-.67-.21-.17-.45-.26-.73-.26-.26,0-.48.08-.65.24-.17.16-.25.37-.25.61,0,.38.26.68.77.88.8.32,1.31.58,1.52.78.28.27.41.6.41.98Z"/></svg>