<?xml version="1.0" encoding="UTF-8"?>
<svg id="b" data-name="_x31_._Financial_Services" xmlns="http://www.w3.org/2000/svg" viewBox="0 0 36 36">
  <circle cx="15.01" cy="18" r="15" fill="#fff"/>
  <path d="M16.39,25.51v2.49h-2.22v-2.38c-1.9-.11-3.41-.65-4.71-2l1.91-1.93c.95.97,2.25,1.29,3.65,1.29,1.74,0,2.67-.67,2.67-1.89,0-.54-.15-.99-.47-1.29-.3-.28-.64-.43-1.34-.54l-1.82-.26c-1.29-.19-2.25-.6-2.93-1.27-.72-.73-1.08-1.72-1.08-3.01,0-2.39,1.54-4.16,4.12-4.56v-2.17h2.22v2.15c1.54.16,2.74.69,3.79,1.72l-1.87,1.87c-.95-.92-2.1-1.05-3.1-1.05-1.57,0-2.33.88-2.33,1.93,0,.39.13.8.45,1.1.3.28.78.52,1.4.6l1.78.26c1.38.19,2.25.58,2.88,1.18.81.77,1.17,1.89,1.17,3.24,0,2.5-1.74,4.07-4.18,4.51Z" fill="#231f20"/>
</svg>