<?xml version="1.0" encoding="UTF-8"?>
<svg id="b" data-name="_x31_._Financial_Services" xmlns="http://www.w3.org/2000/svg" viewBox="0 0 171.46 30">
  <g>
    <path d="M43.44,8h6.1v2.77h-2.5v2.63h2.22v2.63h-2.22v5.82h-3.6V8Z" fill="#fff"/>
    <path d="M53.69,8v1.8h-3.56v-1.8h3.56ZM53.69,10.49v11.35h-3.56v-11.35h3.56Z" fill="#fff"/>
    <path d="M58.27,10.49l-.06,1.05c.25-.42.56-.73.92-.94s.78-.31,1.25-.31c.59,0,1.08.14,1.45.42s.62.63.73,1.06.16,1.13.16,2.13v7.95h-3.46v-7.86c0-.78-.03-1.26-.08-1.43-.05-.17-.19-.26-.43-.26-.25,0-.4.1-.46.29s-.09.72-.09,1.58v7.67h-3.46v-11.35h3.51Z" fill="#fff"/>
    <path d="M66.83,14.89h-3.24v-.76c0-.88.1-1.56.3-2.03s.61-.9,1.22-1.26c.61-.36,1.4-.55,2.38-.55,1.17,0,2.05.21,2.64.62.59.41.95.92,1.07,1.52.12.6.18,1.84.18,3.72v5.7h-3.36v-1.01c-.21.41-.48.71-.82.91-.33.2-.73.3-1.19.3-.6,0-1.16-.17-1.66-.51s-.76-1.08-.76-2.23v-.93c0-.85.13-1.43.4-1.74.27-.31.93-.67,1.99-1.08,1.13-.44,1.74-.74,1.82-.9.08-.15.12-.47.12-.94,0-.59-.04-.98-.13-1.16-.09-.18-.24-.27-.44-.27-.23,0-.38.08-.44.23-.06.15-.09.54-.09,1.18v1.19ZM67.92,16.44c-.55.41-.87.74-.96,1.02-.09.27-.13.67-.13,1.18,0,.59.04.97.12,1.14.08.17.23.26.46.26s.36-.07.42-.2c.07-.13.1-.49.1-1.06v-2.33Z" fill="#fff"/>
    <path d="M75.91,10.49l-.06,1.05c.25-.42.56-.73.92-.94s.78-.31,1.25-.31c.59,0,1.08.14,1.45.42s.62.63.73,1.06.16,1.13.16,2.13v7.95h-3.46v-7.86c0-.78-.03-1.26-.08-1.43-.05-.17-.19-.26-.43-.26-.25,0-.4.1-.46.29s-.09.72-.09,1.58v7.67h-3.46v-11.35h3.51Z" fill="#fff"/>
    <path d="M89.01,14.78h-3.26v-1.31c0-.46-.04-.77-.11-.93-.07-.16-.21-.24-.41-.24s-.33.07-.4.21-.1.46-.1.96v5.35c0,.4.05.71.15.91.1.2.25.3.45.3.23,0,.39-.11.47-.32.08-.21.12-.61.12-1.2v-1.35h3.08c0,.91-.04,1.59-.1,2.04-.06.45-.25.92-.57,1.39-.32.48-.74.83-1.26,1.08s-1.16.36-1.92.36c-.97,0-1.75-.17-2.32-.5-.57-.33-.97-.8-1.21-1.4s-.36-1.46-.36-2.56v-3.22c0-.96.1-1.69.29-2.18.19-.49.61-.93,1.24-1.31s1.4-.58,2.31-.58,1.67.19,2.31.57c.64.38,1.06.86,1.27,1.45s.32,1.41.32,2.47Z" fill="#fff"/>
    <path d="M93.42,8v1.8h-3.56v-1.8h3.56ZM93.42,10.49v11.35h-3.56v-11.35h3.56Z" fill="#fff"/>
    <path d="M97.57,14.89h-3.24v-.76c0-.88.1-1.56.3-2.03s.61-.9,1.22-1.26c.61-.36,1.4-.55,2.38-.55,1.17,0,2.05.21,2.64.62.59.41.95.92,1.07,1.52.12.6.18,1.84.18,3.72v5.7h-3.36v-1.01c-.21.41-.48.71-.82.91-.33.2-.73.3-1.19.3-.6,0-1.16-.17-1.66-.51s-.76-1.08-.76-2.23v-.93c0-.85.13-1.43.4-1.74.27-.31.93-.67,1.99-1.08,1.13-.44,1.74-.74,1.82-.9.08-.15.12-.47.12-.94,0-.59-.04-.98-.13-1.16-.09-.18-.24-.27-.44-.27-.23,0-.38.08-.44.23-.06.15-.09.54-.09,1.18v1.19ZM98.67,16.44c-.55.41-.87.74-.96,1.02-.09.27-.13.67-.13,1.18,0,.59.04.97.12,1.14.08.17.23.26.46.26s.36-.07.42-.2c.07-.13.1-.49.1-1.06v-2.33Z" fill="#fff"/>
    <path d="M106.7,8v13.85h-3.56V8h3.56Z" fill="#fff"/>
    <path d="M118.4,12.19h-3.34v-1.03c0-.48-.04-.78-.13-.92-.09-.13-.23-.2-.43-.2-.22,0-.38.09-.49.27-.11.18-.17.44-.17.8,0,.46.06.81.19,1.04.12.23.46.52,1.02.85,1.6.95,2.61,1.73,3.03,2.34.42.61.62,1.59.62,2.95,0,.99-.12,1.71-.35,2.18-.23.47-.68.86-1.34,1.18-.66.32-1.43.47-2.31.47-.96,0-1.79-.18-2.47-.55-.68-.36-1.13-.83-1.34-1.39s-.32-1.37-.32-2.4v-.91h3.34v1.68c0,.52.05.85.14,1,.09.15.26.22.5.22s.42-.09.53-.28c.12-.19.18-.47.18-.84,0-.82-.11-1.35-.33-1.6-.23-.25-.79-.67-1.68-1.26-.9-.59-1.49-1.02-1.78-1.29-.29-.27-.53-.64-.72-1.11-.19-.47-.29-1.08-.29-1.81,0-1.06.14-1.84.41-2.33.27-.49.71-.87,1.31-1.15.6-.28,1.33-.42,2.19-.42.94,0,1.73.15,2.39.45.66.3,1.09.68,1.31,1.14s.32,1.24.32,2.34v.55Z" fill="#fff"/>
    <path d="M127.38,16.37h-4.47v2.46c0,.51.04.84.11.99.07.15.22.22.43.22.26,0,.44-.1.53-.29.09-.2.13-.58.13-1.14v-1.5h3.28v.84c0,.7-.04,1.24-.13,1.62-.09.38-.29.78-.62,1.21-.33.43-.74.75-1.24.96-.5.21-1.12.32-1.88.32s-1.37-.11-1.93-.32-.99-.5-1.3-.87c-.31-.37-.53-.77-.65-1.21-.12-.44-.18-1.08-.18-1.93v-3.31c0-.99.13-1.77.4-2.35.27-.57.71-1.01,1.32-1.32.61-.31,1.31-.46,2.1-.46.97,0,1.77.18,2.4.55.63.37,1.07.86,1.33,1.46.25.61.38,1.46.38,2.56v1.51ZM123.92,14.52v-.83c0-.59-.03-.97-.09-1.14-.06-.17-.19-.26-.38-.26-.24,0-.39.07-.45.22-.06.15-.08.54-.08,1.18v.83h1.01Z" fill="#fff"/>
    <path d="M131.79,10.49l-.14,1.49c.5-1.07,1.23-1.63,2.18-1.7v3.99c-.63,0-1.1.09-1.39.26-.3.17-.48.41-.55.71-.07.31-.1,1.01-.1,2.11v4.48h-3.46v-11.35h3.46Z" fill="#fff"/>
    <path d="M141.89,10.49l-1.62,11.35h-4.52l-1.74-11.35h3.09l.97,8.29c.08-.61.21-2.09.39-4.45.1-1.32.21-2.6.34-3.83h3.08Z" fill="#fff"/>
    <path d="M145.78,8v1.8h-3.56v-1.8h3.56ZM145.78,10.49v11.35h-3.56v-11.35h3.56Z" fill="#fff"/>
    <path d="M154.48,14.78h-3.26v-1.31c0-.46-.04-.77-.11-.93-.07-.16-.21-.24-.41-.24s-.33.07-.4.21-.1.46-.1.96v5.35c0,.4.05.71.15.91.1.2.25.3.45.3.23,0,.39-.11.47-.32.08-.21.12-.61.12-1.2v-1.35h3.08c0,.91-.04,1.59-.1,2.04-.06.45-.25.92-.57,1.39-.32.48-.74.83-1.26,1.08s-1.16.36-1.92.36c-.97,0-1.75-.17-2.32-.5-.57-.33-.97-.8-1.21-1.4s-.36-1.46-.36-2.56v-3.22c0-.96.1-1.69.29-2.18.19-.49.61-.93,1.24-1.31s1.4-.58,2.31-.58,1.67.19,2.31.57c.64.38,1.06.86,1.27,1.45s.32,1.41.32,2.47Z" fill="#fff"/>
    <path d="M163.16,16.37h-4.47v2.46c0,.51.04.84.11.99.07.15.22.22.43.22.26,0,.44-.1.53-.29.09-.2.13-.58.13-1.14v-1.5h3.28v.84c0,.7-.04,1.24-.13,1.62-.09.38-.29.78-.62,1.21-.33.43-.74.75-1.24.96-.5.21-1.12.32-1.88.32s-1.37-.11-1.93-.32-.99-.5-1.3-.87c-.31-.37-.53-.77-.65-1.21-.12-.44-.18-1.08-.18-1.93v-3.31c0-.99.13-1.77.4-2.35.27-.57.71-1.01,1.32-1.32.61-.31,1.31-.46,2.1-.46.97,0,1.77.18,2.4.55.63.37,1.07.86,1.33,1.46.25.61.38,1.46.38,2.56v1.51ZM159.7,14.52v-.83c0-.59-.03-.97-.09-1.14-.06-.17-.19-.26-.38-.26-.24,0-.39.07-.45.22-.06.15-.08.54-.08,1.18v.83h1.01Z" fill="#fff"/>
    <path d="M171.17,14.12h-3.06v-.62c0-.52-.03-.86-.09-1-.06-.14-.21-.21-.45-.21-.19,0-.34.06-.44.19s-.15.32-.15.58c0,.35.02.6.07.77.05.16.19.34.44.53s.74.48,1.49.85c1,.49,1.66.95,1.98,1.39.31.43.47,1.06.47,1.89,0,.92-.12,1.62-.36,2.09-.24.47-.64.83-1.2,1.09-.56.25-1.24.38-2.03.38-.88,0-1.63-.14-2.25-.41-.62-.27-1.05-.64-1.29-1.11-.23-.47-.35-1.17-.35-2.12v-.55h3.06v.72c0,.61.04,1.01.12,1.19.08.18.23.27.46.27.25,0,.42-.06.51-.18.1-.12.15-.38.15-.77,0-.54-.06-.88-.19-1.02-.13-.14-.8-.54-2.01-1.21-1.02-.57-1.63-1.09-1.86-1.55-.22-.46-.33-1.02-.33-1.65,0-.91.12-1.58.36-2.01.24-.43.65-.76,1.22-1,.57-.23,1.24-.35,2-.35s1.39.1,1.92.29c.53.19.93.44,1.21.76s.45.6.51.87c.06.27.09.69.09,1.26v.66Z" fill="#fff"/>
  </g>
  <circle cx="15" cy="15" r="15" fill="#fff"/>
  <path d="M16.38,22.51v2.49h-2.22v-2.38c-1.9-.11-3.41-.65-4.71-2l1.91-1.93c.95.97,2.25,1.29,3.65,1.29,1.74,0,2.67-.67,2.67-1.89,0-.54-.15-.99-.47-1.29-.3-.28-.64-.43-1.34-.54l-1.82-.26c-1.29-.19-2.25-.6-2.93-1.27-.72-.73-1.08-1.72-1.08-3.01,0-2.39,1.54-4.16,4.12-4.56v-2.17h2.22v2.15c1.54.16,2.74.69,3.79,1.72l-1.87,1.87c-.95-.92-2.1-1.05-3.1-1.05-1.57,0-2.33.88-2.33,1.93,0,.39.13.8.45,1.1.3.28.78.52,1.4.6l1.78.26c1.38.19,2.25.58,2.88,1.18.81.77,1.17,1.89,1.17,3.24,0,2.5-1.74,4.07-4.18,4.51Z" fill="#231f20"/>
</svg>