<?xml version="1.0" encoding="UTF-8"?><svg id="o" xmlns="http://www.w3.org/2000/svg" viewBox="0 0 184 36"><path d="M51.52,9.42v3.46h-1.76v13.82h-2.96v-13.82h-1.75v-3.46h6.46Z"/><path d="M52.7,9.42h4.93v3.46h-1.97v3.28h1.85v3.29h-1.85v3.8h2.17v3.46h-5.13V9.42Z"/><path d="M62.14,9.42v13.82h1.8v3.46h-4.76V9.42h2.96Z"/><path d="M65.16,9.42h4.93v3.46h-1.97v3.28h1.85v3.29h-1.85v3.8h2.17v3.46h-5.13V9.42Z"/><path d="M78.55,16.95h-2.96v-3c0-.87-.03-1.42-.09-1.64s-.2-.32-.42-.32c-.24,0-.4.13-.46.4-.07.26-.1.83-.1,1.71v8.03c0,.84.03,1.39.1,1.64.07.26.21.38.44.38s.36-.13.43-.39c.07-.26.1-.86.1-1.81v-2.17h2.96v.67c0,1.79-.08,3.06-.25,3.81s-.53,1.4-1.1,1.97c-.57.56-1.27.84-2.1.84s-1.58-.24-2.14-.72c-.56-.48-.93-1.14-1.12-1.98s-.27-2.11-.27-3.81v-5.05c0-1.25.03-2.18.08-2.8.06-.62.22-1.22.5-1.8.28-.58.67-1.03,1.16-1.36.49-.33,1.06-.5,1.7-.5.87,0,1.59.26,2.16.77.57.51.94,1.15,1.12,1.91s.27,1.95.27,3.57v1.64Z"/><path d="M86.87,19.54c0,1.74-.03,2.97-.08,3.69-.05.72-.22,1.38-.51,1.98s-.67,1.06-1.15,1.38-1.04.48-1.69.48-1.16-.15-1.64-.45c-.48-.3-.87-.76-1.17-1.36-.29-.6-.47-1.26-.53-1.97-.06-.71-.08-1.96-.08-3.74v-2.96c0-1.74.03-2.97.08-3.69.05-.72.22-1.38.51-1.98.28-.6.67-1.06,1.15-1.38.48-.32,1.04-.48,1.69-.48s1.16.15,1.64.45c.48.3.87.76,1.17,1.36.29.6.47,1.26.53,1.97s.08,1.96.08,3.74v2.96ZM83.91,13.86c0-.8-.03-1.32-.09-1.54-.06-.22-.18-.34-.36-.34-.15,0-.27.09-.35.27-.08.18-.12.72-.12,1.61v8.07c0,1,.03,1.62.08,1.86.05.23.18.35.38.35s.33-.14.39-.41c.06-.27.08-.91.08-1.93v-7.94Z"/><path d="M97.6,9.42v17.28h-2.59v-11.67s-1.03,11.67-1.03,11.67h-1.83l-1.09-11.4v11.4h-2.59V9.42h3.83c.11,1.04.23,2.26.35,3.67l.42,4.4.68-8.07h3.85Z"/><path d="M108.42,9.42v17.28h-2.59v-11.67s-1.03,11.67-1.03,11.67h-1.83l-1.09-11.4v11.4h-2.59V9.42h3.83c.11,1.04.23,2.26.35,3.67l.42,4.4.68-8.07h3.85Z"/><path d="M116.83,9.42v11.55c0,1.31-.03,2.23-.08,2.76s-.22,1.07-.5,1.63c-.28.56-.64.98-1.09,1.27-.45.29-.98.43-1.6.43-.68,0-1.28-.17-1.8-.51-.52-.34-.91-.79-1.17-1.33-.26-.55-.41-1.13-.46-1.73s-.07-1.89-.07-3.84v-10.23h2.96v12.96c0,.75.03,1.24.08,1.45.05.21.16.31.33.31.19,0,.31-.12.36-.35.05-.23.08-.78.08-1.64v-12.73h2.96Z"/><path d="M125.09,9.42v17.28h-2.59l-1.54-7.86v7.86h-2.47V9.42h2.47l1.66,7.78v-7.78h2.47Z"/><path d="M129.73,9.42v17.28h-2.96V9.42h2.96Z"/><path d="M138.33,16.95h-2.96v-3c0-.87-.03-1.42-.09-1.64s-.2-.32-.42-.32c-.24,0-.4.13-.46.4-.07.26-.1.83-.1,1.71v8.03c0,.84.03,1.39.1,1.64.07.26.21.38.44.38s.36-.13.43-.39c.07-.26.1-.86.1-1.81v-2.17h2.96v.67c0,1.79-.08,3.06-.25,3.81s-.53,1.4-1.1,1.97c-.57.56-1.27.84-2.1.84s-1.58-.24-2.14-.72c-.56-.48-.93-1.14-1.12-1.98s-.27-2.11-.27-3.81v-5.05c0-1.25.03-2.18.08-2.8.06-.62.22-1.22.5-1.8.28-.58.67-1.03,1.16-1.36.49-.33,1.06-.5,1.7-.5.87,0,1.59.26,2.16.77.57.51.94,1.15,1.12,1.91s.27,1.95.27,3.57v1.64Z"/><path d="M145.01,9.42l1.69,17.28h-3.02l-.16-3.11h-1.06l-.18,3.11h-3.06l1.51-17.28h4.27ZM143.44,20.53c-.15-1.96-.3-4.38-.45-7.26-.3,3.31-.49,5.73-.57,7.26h1.02Z"/><path d="M152.87,9.42v3.46h-1.76v13.82h-2.96v-13.82h-1.75v-3.46h6.46Z"/><path d="M157.01,9.42v17.28h-2.96V9.42h2.96Z"/><path d="M165.46,19.54c0,1.74-.03,2.97-.08,3.69-.05.72-.22,1.38-.51,1.98s-.67,1.06-1.15,1.38-1.04.48-1.69.48-1.16-.15-1.64-.45c-.48-.3-.87-.76-1.17-1.36-.29-.6-.47-1.26-.53-1.97-.06-.71-.08-1.96-.08-3.74v-2.96c0-1.74.03-2.97.08-3.69.05-.72.22-1.38.51-1.98.28-.6.67-1.06,1.15-1.38.48-.32,1.04-.48,1.69-.48s1.16.15,1.64.45c.48.3.87.76,1.17,1.36.29.6.47,1.26.53,1.97s.08,1.96.08,3.74v2.96ZM162.5,13.86c0-.8-.03-1.32-.09-1.54-.06-.22-.18-.34-.36-.34-.15,0-.27.09-.35.27-.08.18-.12.72-.12,1.61v8.07c0,1,.03,1.62.08,1.86.05.23.18.35.38.35s.33-.14.39-.41c.06-.27.08-.91.08-1.93v-7.94Z"/><path d="M173.67,9.42v17.28h-2.59l-1.54-7.86v7.86h-2.47V9.42h2.47l1.66,7.78v-7.78h2.47Z"/><path d="M181.62,14.65h-2.75v-1.28c0-.6-.04-.98-.11-1.14-.07-.16-.19-.25-.35-.25-.18,0-.31.11-.4.33-.09.22-.14.56-.14,1,0,.58.05,1.01.15,1.3.1.29.38.64.84,1.06,1.32,1.19,2.15,2.16,2.49,2.92.34.76.51,1.99.51,3.68,0,1.23-.09,2.14-.28,2.72-.19.58-.56,1.07-1.1,1.47-.54.4-1.18.59-1.9.59-.79,0-1.47-.23-2.03-.68-.56-.46-.93-1.04-1.1-1.74-.17-.7-.26-1.7-.26-3v-1.13h2.75v2.1c0,.65.04,1.06.12,1.25.08.19.21.28.41.28s.34-.12.44-.35c.1-.23.14-.58.14-1.05,0-1.02-.09-1.68-.27-2-.19-.31-.65-.84-1.38-1.57-.74-.74-1.22-1.28-1.46-1.61-.24-.33-.44-.8-.59-1.39s-.24-1.34-.24-2.26c0-1.32.11-2.29.33-2.9s.58-1.09,1.08-1.44c.5-.34,1.1-.52,1.8-.52.77,0,1.42.19,1.96.57s.9.85,1.07,1.43c.18.57.26,1.55.26,2.92v.68Z"/><path d="M20.32,23.34c.09.21.29.39.69.74l1.3,1.14c.4.35.61.53.83.59.2.05.4.04.59-.04.21-.09.39-.29.74-.69l1.13-1.3c.35-.4.53-.61.59-.83.05-.2.04-.4-.04-.59-.09-.21-.29-.39-.69-.74l-1.3-1.14c-.4-.35-.61-.53-.83-.59-.2-.05-.4-.04-.59.04-.21.09-.39.29-.74.69l-1.13,1.3c-.35.4-.53.61-.59.83-.05.2-.04.4.04.59ZM20.32,23.34l-6.37-1.28M12.54,20.49l5.04-5.76M12.21,24.52l1.13-1.3c.35-.4.53-.61.59-.83.05-.2.04-.4-.04-.59-.09-.21-.29-.39-.69-.74l-1.3-1.14c-.4-.35-.61-.53-.83-.59-.2-.05-.4-.04-.59.04-.21.09-.39.29-.74.69l-1.13,1.3c-.35.4-.53.61-.59.83-.05.2-.04.4.04.59.09.21.29.39.69.74l1.3,1.14c.4.35.61.53.83.59.2.05.4.04.59-.04.21-.09.39-.29.74-.69ZM20.4,15.15l1.13-1.3c.35-.4.53-.61.59-.83.05-.2.04-.4-.04-.59-.09-.21-.29-.39-.69-.74l-1.3-1.14c-.4-.35-.61-.53-.83-.59-.2-.05-.4-.04-.59.04-.21.09-.39.29-.74.69l-1.13,1.3c-.35.4-.53.61-.59.83-.05.2-.04.4.04.59.09.21.29.39.69.74l1.3,1.14c.4.35.61.53.83.59.2.05.4.04.59-.04.21-.09.39-.29.74-.69Z" fill="none" stroke="#000" stroke-linecap="round" stroke-linejoin="round" stroke-width="2"/></svg>