<?xml version="1.0" encoding="UTF-8"?>
<svg id="n" data-name="_x37_._Telecommunications" xmlns="http://www.w3.org/2000/svg" viewBox="0 0 184 36">
  <g>
    <path d="M15.85,21.66c.06.17.21.31.5.59l.95.91c.3.28.44.42.61.47.15.04.31.04.45-.01.17-.06.31-.21.59-.5l.91-.95c.28-.3.42-.44.47-.61.04-.15.04-.31-.01-.45-.06-.17-.21-.31-.5-.59l-.95-.91c-.3-.28-.44-.42-.61-.47-.15-.04-.31-.04-.45.01-.17.06-.31.21-.59.5l-.91.95c-.28.3-.42.44-.47.61-.04.15-.04.31.01.45ZM15.85,21.66l-4.8-1.18M10.03,19.25l4.03-4.22M9.64,22.3l.91-.95c.28-.3.42-.44.47-.61.04-.15.04-.31-.01-.45-.06-.17-.21-.31-.5-.59l-.95-.91c-.3-.28-.44-.42-.61-.47-.15-.04-.31-.04-.45.01-.17.06-.31.21-.59.5l-.91.95c-.28.3-.42.44-.47.61-.04.15-.04.31.01.45.06.17.21.31.5.59l.95.91c.3.28.44.42.61.47.15.04.31.04.45-.01.17-.06.31-.21.59-.5ZM16.19,15.44l.91-.95c.28-.3.42-.44.47-.61.04-.15.04-.31-.01-.45-.06-.17-.21-.31-.5-.59l-.95-.91c-.3-.28-.44-.42-.61-.47-.15-.04-.31-.04-.45.01-.17.06-.31.21-.59.5l-.91.95c-.28.3-.42.44-.47.61-.04.15-.04.31.01.45.06.17.21.31.5.59l.95.91c.3.28.44.42.61.47.15.04.31.04.45-.01.17-.06.31-.21.59-.5Z" fill="none" stroke="#231f20" stroke-linecap="round" stroke-linejoin="round" stroke-width="2"/>
    <polygon points="26.8 24.48 14.45 30.95 2.09 24.48 2.09 11.52 14.45 5.05 26.8 11.52 26.8 24.48" fill="none" stroke="#231f20" stroke-linecap="round" stroke-linejoin="round" stroke-width="2"/>
  </g>
  <g>
    <path d="M34.43,22.84v-8.39h-2.2v-1.04h6.59v1.04h-2.2v8.39h-2.19Z"/>
    <path d="M39.26,22.84v-9.44h5.5v1.04h-3.3v3.15h2.2v1.06h-2.2v3.15h3.3v1.04h-5.5Z"/>
    <path d="M46.29,22.84v-9.44h2.2v8.39h3.3v1.04h-5.5Z"/>
    <path d="M53.32,22.84v-9.44h5.5v1.04h-3.3v3.15h2.2v1.06h-2.2v3.15h3.3v1.04h-5.5Z"/>
    <path d="M66.94,20.74c-.09,1.4-.82,2.1-2.19,2.1h-2.2c-.6,0-1.11-.21-1.55-.62-.44-.41-.65-.91-.65-1.48v-5.23c0-.57.21-1.06.64-1.48.43-.42.95-.62,1.56-.62h2.2c1.38,0,2.11.7,2.19,2.1h-1.09c-.09-.7-.45-1.06-1.09-1.06h-1.11c-.3,0-.56.1-.77.31-.22.21-.32.46-.32.75v5.23c0,.29.11.53.32.74.22.21.47.31.77.31h1.11c.65,0,1.02-.35,1.09-1.06h1.09Z"/>
    <path d="M70.69,13.41h2.2c.6,0,1.11.21,1.54.62.43.42.65.91.65,1.48v5.23c0,.57-.22,1.06-.65,1.48-.43.42-.95.62-1.54.62h-2.2c-.6,0-1.11-.21-1.55-.62-.44-.41-.65-.91-.65-1.48v-5.23c0-.58.22-1.07.65-1.49.44-.41.95-.62,1.55-.62ZM70.69,15.51v5.23c0,.29.11.53.32.74.22.21.47.31.77.31s.57-.1.78-.31c.22-.21.32-.46.32-.74v-5.23c0-.29-.11-.54-.32-.75-.22-.21-.48-.31-.78-.31s-.56.1-.77.31c-.22.21-.32.46-.32.75Z"/>
    <path d="M76.62,22.84v-9.44h.51l4.7,4.47,4.68-4.47h1.11v9.44h-2.2v-5.76l-3.85,3.67-3.84-3.67v5.76h-1.11Z"/>
    <path d="M89.15,22.84v-9.44h.51l4.7,4.47,4.68-4.47h1.11v9.44h-2.2v-5.76l-3.85,3.67-3.84-3.67v5.76h-1.11Z"/>
    <path d="M106.08,13.41h2.19v7.34c0,.57-.22,1.06-.65,1.48-.43.42-.95.62-1.54.62h-2.2c-.6,0-1.11-.21-1.55-.62-.44-.41-.65-.91-.65-1.48v-7.34h2.2v7.34c0,.29.11.53.32.74.22.21.47.31.77.31s.57-.1.78-.31c.22-.21.32-.46.32-.74v-7.34Z"/>
    <path d="M109.82,22.84v-9.44h.51l6.08,5.25v-5.25h1.11v9.44h-.5l-6.09-5.25v5.25h-1.11Z"/>
    <path d="M120.15,22.84v-9.44h2.19v9.44h-2.19Z"/>
    <path d="M131.58,20.74c-.09,1.4-.82,2.1-2.19,2.1h-2.2c-.6,0-1.11-.21-1.55-.62-.44-.41-.65-.91-.65-1.48v-5.23c0-.57.21-1.06.64-1.48.43-.42.95-.62,1.56-.62h2.2c1.38,0,2.11.7,2.19,2.1h-1.09c-.09-.7-.45-1.06-1.09-1.06h-1.11c-.3,0-.56.1-.77.31-.22.21-.32.46-.32.75v5.23c0,.29.11.53.32.74.22.21.47.31.77.31h1.11c.65,0,1.02-.35,1.09-1.06h1.09Z"/>
    <path d="M133.12,22.84v-7.34c0-.58.22-1.07.65-1.49.44-.41.95-.62,1.55-.62h2.2c.6,0,1.11.21,1.54.62.43.42.65.91.65,1.48v7.34h-2.19v-4.19h-2.2v4.19h-2.2ZM135.32,17.6h2.2v-2.09c0-.29-.11-.54-.32-.75-.22-.21-.48-.31-.78-.31s-.56.1-.77.31c-.22.21-.32.46-.32.75v2.09Z"/>
    <path d="M142.36,22.84v-8.39h-2.2v-1.04h6.59v1.04h-2.2v8.39h-2.19Z"/>
    <path d="M148.3,22.84v-9.44h2.19v9.44h-2.19Z"/>
    <path d="M155.33,13.41h2.2c.6,0,1.11.21,1.54.62.43.42.65.91.65,1.48v5.23c0,.57-.22,1.06-.65,1.48-.43.42-.95.62-1.54.62h-2.2c-.6,0-1.11-.21-1.55-.62-.44-.41-.65-.91-.65-1.48v-5.23c0-.58.22-1.07.65-1.49.44-.41.95-.62,1.55-.62ZM155.33,15.51v5.23c0,.29.11.53.32.74.22.21.47.31.77.31s.57-.1.78-.31c.22-.21.32-.46.32-.74v-5.23c0-.29-.11-.54-.32-.75-.22-.21-.48-.31-.78-.31s-.56.1-.77.31c-.22.21-.32.46-.32.75Z"/>
    <path d="M161.26,22.84v-9.44h.51l6.08,5.25v-5.25h1.11v9.44h-.5l-6.09-5.25v5.25h-1.11Z"/>
    <path d="M175.99,15.51h-1.09c-.1-.7-.44-1.06-1.04-1.06-.39,0-.68.09-.87.26-.19.18-.29.44-.29.79,0,.26.11.51.32.74l2.33,2.49c.43.46.65.96.65,1.48v.52c0,.57-.22,1.06-.65,1.48-.43.42-.95.62-1.56.62h-1.09c-.73,0-1.28-.17-1.65-.52-.37-.35-.55-.87-.55-1.58h1.11v.18c0,.29.11.5.34.65.23.15.48.23.75.23.39,0,.67-.09.84-.27s.26-.44.26-.79c0-.27-.11-.52-.32-.74l-2.33-2.49c-.43-.45-.65-.95-.65-1.48v-.52c0-.57.22-1.06.65-1.48.43-.42.95-.62,1.56-.62h1.09c1.38,0,2.11.7,2.2,2.1Z"/>
  </g>
</svg>