<?xml version="1.0" encoding="UTF-8"?>
<svg id="n" data-name="_x37_._Telecommunications" xmlns="http://www.w3.org/2000/svg" viewBox="0 0 176.73 30">
  <g>
    <path d="M15.96,18.66c.06.17.21.31.5.59l.95.91c.3.28.44.42.61.47.15.04.31.04.45-.01.17-.06.31-.21.59-.5l.91-.95c.28-.3.42-.44.47-.61.04-.15.04-.31-.01-.45-.06-.17-.21-.31-.5-.59l-.95-.91c-.3-.28-.44-.42-.61-.47-.15-.04-.31-.04-.45.01-.17.06-.31.21-.59.5l-.91.95c-.28.3-.42.44-.47.61-.04.15-.04.31.01.45ZM15.96,18.66l-4.8-1.18M10.14,16.25l4.03-4.22M9.74,19.3l.91-.95c.28-.3.42-.44.47-.61.04-.15.04-.31-.01-.45-.06-.17-.21-.31-.5-.59l-.95-.91c-.3-.28-.44-.42-.61-.47-.15-.04-.31-.04-.45.01-.17.06-.31.21-.59.5l-.91.95c-.28.3-.42.44-.47.61-.04.15-.04.31.01.45.06.17.21.31.5.59l.95.91c.3.28.44.42.61.47.15.04.31.04.45-.01.17-.06.31-.21.59-.5ZM16.3,12.44l.91-.95c.28-.3.42-.44.47-.61.04-.15.04-.31-.01-.45-.06-.17-.21-.31-.5-.59l-.95-.91c-.3-.28-.44-.42-.61-.47-.15-.04-.31-.04-.45.01-.17.06-.31.21-.59.5l-.91.95c-.28.3-.42.44-.47.61-.04.15-.04.31.01.45.06.17.21.31.5.59l.95.91c.3.28.44.42.61.47.15.04.31.04.45-.01.17-.06.31-.21.59-.5Z" fill="#fff" stroke="#fff" stroke-linecap="round" stroke-linejoin="round" stroke-width="2"/>
    <polygon points="26.91 21.48 14.55 27.95 2.2 21.48 2.2 8.52 14.55 2.05 26.91 8.52 26.91 21.48" fill="#fff" stroke="#fff" stroke-linecap="round" stroke-linejoin="round" stroke-width="2"/>
  </g>
  <g>
    <path d="M34.54,19.84v-8.39h-2.2v-1.04h6.59v1.04h-2.2v8.39h-2.19Z" fill="#fff"/>
    <path d="M39.37,19.84v-9.44h5.5v1.04h-3.3v3.15h2.2v1.06h-2.2v3.15h3.3v1.04h-5.5Z" fill="#fff"/>
    <path d="M46.39,19.84v-9.44h2.2v8.39h3.3v1.04h-5.5Z" fill="#fff"/>
    <path d="M53.42,19.84v-9.44h5.5v1.04h-3.3v3.15h2.2v1.06h-2.2v3.15h3.3v1.04h-5.5Z" fill="#fff"/>
    <path d="M67.05,17.74c-.09,1.4-.82,2.1-2.19,2.1h-2.2c-.6,0-1.11-.21-1.55-.62-.44-.41-.65-.91-.65-1.48v-5.23c0-.57.21-1.06.64-1.48.43-.42.95-.62,1.56-.62h2.2c1.38,0,2.11.7,2.19,2.1h-1.09c-.09-.7-.45-1.06-1.09-1.06h-1.11c-.3,0-.56.1-.77.31-.22.21-.32.46-.32.75v5.23c0,.29.11.53.32.74.22.21.47.31.77.31h1.11c.65,0,1.02-.35,1.09-1.06h1.09Z" fill="#fff"/>
    <path d="M70.79,10.41h2.2c.6,0,1.11.21,1.54.62.43.42.65.91.65,1.48v5.23c0,.57-.22,1.06-.65,1.48-.43.42-.95.62-1.54.62h-2.2c-.6,0-1.11-.21-1.55-.62-.44-.41-.65-.91-.65-1.48v-5.23c0-.58.22-1.07.65-1.49.44-.41.95-.62,1.55-.62ZM70.79,12.51v5.23c0,.29.11.53.32.74.22.21.47.31.77.31s.57-.1.78-.31c.22-.21.32-.46.32-.74v-5.23c0-.29-.11-.54-.32-.75-.22-.21-.48-.31-.78-.31s-.56.1-.77.31c-.22.21-.32.46-.32.75Z" fill="#fff"/>
    <path d="M76.73,19.84v-9.44h.51l4.7,4.47,4.68-4.47h1.11v9.44h-2.2v-5.76l-3.85,3.67-3.84-3.67v5.76h-1.11Z" fill="#fff"/>
    <path d="M89.26,19.84v-9.44h.51l4.7,4.47,4.68-4.47h1.11v9.44h-2.2v-5.76l-3.85,3.67-3.84-3.67v5.76h-1.11Z" fill="#fff"/>
    <path d="M106.19,10.41h2.19v7.34c0,.57-.22,1.06-.65,1.48-.43.42-.95.62-1.54.62h-2.2c-.6,0-1.11-.21-1.55-.62-.44-.41-.65-.91-.65-1.48v-7.34h2.2v7.34c0,.29.11.53.32.74.22.21.47.31.77.31s.57-.1.78-.31c.22-.21.32-.46.32-.74v-7.34Z" fill="#fff"/>
    <path d="M109.92,19.84v-9.44h.51l6.08,5.25v-5.25h1.11v9.44h-.5l-6.09-5.25v5.25h-1.11Z" fill="#fff"/>
    <path d="M120.26,19.84v-9.44h2.19v9.44h-2.19Z" fill="#fff"/>
    <path d="M131.68,17.74c-.09,1.4-.82,2.1-2.19,2.1h-2.2c-.6,0-1.11-.21-1.55-.62-.44-.41-.65-.91-.65-1.48v-5.23c0-.57.21-1.06.64-1.48.43-.42.95-.62,1.56-.62h2.2c1.38,0,2.11.7,2.19,2.1h-1.09c-.09-.7-.45-1.06-1.09-1.06h-1.11c-.3,0-.56.1-.77.31-.22.21-.32.46-.32.75v5.23c0,.29.11.53.32.74.22.21.47.31.77.31h1.11c.65,0,1.02-.35,1.09-1.06h1.09Z" fill="#fff"/>
    <path d="M133.23,19.84v-7.34c0-.58.22-1.07.65-1.49.44-.41.95-.62,1.55-.62h2.2c.6,0,1.11.21,1.54.62.43.42.65.91.65,1.48v7.34h-2.19v-4.19h-2.2v4.19h-2.2ZM135.43,14.6h2.2v-2.09c0-.29-.11-.54-.32-.75-.22-.21-.48-.31-.78-.31s-.56.1-.77.31c-.22.21-.32.46-.32.75v2.09Z" fill="#fff"/>
    <path d="M142.47,19.84v-8.39h-2.2v-1.04h6.59v1.04h-2.2v8.39h-2.19Z" fill="#fff"/>
    <path d="M148.41,19.84v-9.44h2.19v9.44h-2.19Z" fill="#fff"/>
    <path d="M155.43,10.41h2.2c.6,0,1.11.21,1.54.62.43.42.65.91.65,1.48v5.23c0,.57-.22,1.06-.65,1.48-.43.42-.95.62-1.54.62h-2.2c-.6,0-1.11-.21-1.55-.62-.44-.41-.65-.91-.65-1.48v-5.23c0-.58.22-1.07.65-1.49.44-.41.95-.62,1.55-.62ZM155.43,12.51v5.23c0,.29.11.53.32.74.22.21.47.31.77.31s.57-.1.78-.31c.22-.21.32-.46.32-.74v-5.23c0-.29-.11-.54-.32-.75-.22-.21-.48-.31-.78-.31s-.56.1-.77.31c-.22.21-.32.46-.32.75Z" fill="#fff"/>
    <path d="M161.37,19.84v-9.44h.51l6.08,5.25v-5.25h1.11v9.44h-.5l-6.09-5.25v5.25h-1.11Z" fill="#fff"/>
    <path d="M176.1,12.51h-1.09c-.1-.7-.44-1.06-1.04-1.06-.39,0-.68.09-.87.26-.19.18-.29.44-.29.79,0,.26.11.51.32.74l2.33,2.49c.43.46.65.96.65,1.48v.52c0,.57-.22,1.06-.65,1.48-.43.42-.95.62-1.56.62h-1.09c-.73,0-1.28-.17-1.65-.52-.37-.35-.55-.87-.55-1.58h1.11v.18c0,.29.11.5.34.65.23.15.48.23.75.23.39,0,.67-.09.84-.27s.26-.44.26-.79c0-.27-.11-.52-.32-.74l-2.33-2.49c-.43-.45-.65-.95-.65-1.48v-.52c0-.57.22-1.06.65-1.48.43-.42.95-.62,1.56-.62h1.09c1.38,0,2.11.7,2.2,2.1Z" fill="#fff"/>
  </g>
</svg>