<?xml version="1.0" encoding="UTF-8"?><svg id="o" xmlns="http://www.w3.org/2000/svg" viewBox="0 0 36 36"><path d="M20.32,23.58c.09.22.29.39.7.75l1.31,1.15c.41.36.61.54.84.59.2.05.41.04.6-.04.22-.09.39-.29.75-.7l1.14-1.31c.36-.41.53-.61.59-.84.05-.2.04-.41-.04-.6-.09-.22-.29-.39-.7-.75l-1.31-1.15c-.41-.36-.61-.54-.84-.59-.2-.05-.41-.04-.6.04-.22.09-.39.29-.75.7l-1.14,1.31c-.36.41-.53.61-.59.84-.05.2-.04.41.04.6ZM20.32,23.58l-6.43-1.3M12.47,20.71l5.09-5.82M12.14,24.78l1.14-1.31c.36-.41.53-.61.59-.84.05-.2.04-.41-.04-.6-.09-.22-.29-.39-.7-.75l-1.31-1.15c-.41-.36-.61-.54-.84-.59-.2-.05-.41-.04-.6.04-.22.09-.39.29-.75.7l-1.14,1.31c-.36.41-.53.61-.59.84-.05.2-.04.41.04.6.09.22.29.39.7.75l1.31,1.15c.41.36.61.54.84.59.2.05.41.04.6-.04.22-.09.39-.29.75-.7ZM20.4,15.33l1.14-1.31c.36-.41.53-.61.59-.84.05-.2.04-.41-.04-.6-.09-.22-.29-.39-.7-.75l-1.31-1.15c-.41-.36-.61-.54-.84-.59-.2-.05-.41-.04-.6.04-.22.09-.39.29-.75.7l-1.14,1.31c-.36.41-.53.61-.59.84-.05.2-.04.41.04.6.09.22.29.39.7.75l1.31,1.15c.41.36.61.54.84.59.2.05.41.04.6-.04.22-.09.39-.29.75-.7Z" fill="none" stroke="#000" stroke-linecap="round" stroke-linejoin="round" stroke-width="2"/><path d="M20.32,23.58c.09.22.29.39.7.75l1.31,1.15c.41.36.61.54.84.59.2.05.41.04.6-.04.22-.09.39-.29.75-.7l1.14-1.31c.36-.41.53-.61.59-.84.05-.2.04-.41-.04-.6-.09-.22-.29-.39-.7-.75l-1.31-1.15c-.41-.36-.61-.54-.84-.59-.2-.05-.41-.04-.6.04-.22.09-.39.29-.75.7l-1.14,1.31c-.36.41-.53.61-.59.84-.05.2-.04.41.04.6ZM20.32,23.58l-6.43-1.3M12.47,20.71l5.09-5.82M12.14,24.78l1.14-1.31c.36-.41.53-.61.59-.84.05-.2.04-.41-.04-.6-.09-.22-.29-.39-.7-.75l-1.31-1.15c-.41-.36-.61-.54-.84-.59-.2-.05-.41-.04-.6.04-.22.09-.39.29-.75.7l-1.14,1.31c-.36.41-.53.61-.59.84-.05.2-.04.41.04.6.09.22.29.39.7.75l1.31,1.15c.41.36.61.54.84.59.2.05.41.04.6-.04.22-.09.39-.29.75-.7ZM20.4,15.33l1.14-1.31c.36-.41.53-.61.59-.84.05-.2.04-.41-.04-.6-.09-.22-.29-.39-.7-.75l-1.31-1.15c-.41-.36-.61-.54-.84-.59-.2-.05-.41-.04-.6.04-.22.09-.39.29-.75.7l-1.14,1.31c-.36.41-.53.61-.59.84-.05.2-.04.41.04.6.09.22.29.39.7.75l1.31,1.15c.41.36.61.54.84.59.2.05.41.04.6-.04.22-.09.39-.29.75-.7Z" fill="none" stroke="#000" stroke-linecap="round" stroke-linejoin="round" stroke-width="2"/></svg>