<?xml version="1.0" encoding="UTF-8"?>
<svg id="n" data-name="_x37_._Telecommunications" xmlns="http://www.w3.org/2000/svg" viewBox="0 0 36 36">
  <path d="M14.76,21.66c.06.17.21.31.5.59l.95.91c.3.28.44.42.61.47.15.04.31.04.45-.01.17-.06.31-.21.59-.5l.91-.95c.28-.3.42-.44.47-.61.04-.15.04-.31-.01-.45-.06-.17-.21-.31-.5-.59l-.95-.91c-.3-.28-.44-.42-.61-.47-.15-.04-.31-.04-.45.01-.17.06-.31.21-.59.5l-.91.95c-.28.3-.42.44-.47.61-.04.15-.04.31.01.45ZM14.76,21.66l-4.8-1.18M8.94,19.25l4.03-4.22M8.55,22.3l.91-.95c.28-.3.42-.44.47-.61.04-.15.04-.31-.01-.45-.06-.17-.21-.31-.5-.59l-.95-.91c-.3-.28-.44-.42-.61-.47-.15-.04-.31-.04-.45.01-.17.06-.31.21-.59.5l-.91.95c-.28.3-.42.44-.47.61-.04.15-.04.31.01.45.06.17.21.31.5.59l.95.91c.3.28.44.42.61.47.15.04.31.04.45-.01.17-.06.31-.21.59-.5ZM15.1,15.44l.91-.95c.28-.3.42-.44.47-.61.04-.15.04-.31-.01-.45-.06-.17-.21-.31-.5-.59l-.95-.91c-.3-.28-.44-.42-.61-.47-.15-.04-.31-.04-.45.01-.17.06-.31.21-.59.5l-.91.95c-.28.3-.42.44-.47.61-.04.15-.04.31.01.45.06.17.21.31.5.59l.95.91c.3.28.44.42.61.47.15.04.31.04.45-.01.17-.06.31-.21.59-.5Z" fill="none" stroke="#231f20" stroke-linecap="round" stroke-linejoin="round" stroke-width="2"/>
  <polygon points="25.71 24.48 13.36 30.95 1 24.48 1 11.52 13.36 5.05 25.71 11.52 25.71 24.48" fill="none" stroke="#231f20" stroke-linecap="round" stroke-linejoin="round" stroke-width="2"/>
</svg>