<?xml version="1.0" encoding="UTF-8"?><svg id="k" xmlns="http://www.w3.org/2000/svg" viewBox="0 0 36 36"><path d="M25.21,21.42c0-.5-.4-.91-.89-.91s-.89.41-.89.91h1.78ZM23.43,23.24c0,.5.4.91.89.91s.89-.41.89-.91h-1.78ZM24.32,25.07c-.49,0-.89.41-.89.91s.4.91.89.91v-1.83ZM24.33,26.89c.49,0,.89-.41.89-.91s-.4-.91-.89-.91v1.83ZM18.99,17.77c0-.5-.4-.91-.89-.91s-.89.41-.89.91h1.78ZM17.21,21.42c0,.5.4.91.89.91s.89-.41.89-.91h-1.78ZM19.88,20.5c.49,0,.89-.41.89-.91s-.4-.91-.89-.91v1.83ZM16.32,18.68c-.49,0-.89.41-.89.91s.4.91.89.91v-1.83ZM12.77,15.74c0-.5-.4-.91-.89-.91s-.89.41-.89.91h1.78ZM19.88,26.89c.49,0,.89-.41.89-.91s-.4-.91-.89-.91v1.83ZM12.17,24.49l-.79.41h0l.79-.41ZM13.34,25.68l.4-.81h0l-.4.81ZM21.27,12.26l-.66.61h0l.66-.61ZM25.44,18.38c.33.37.89.4,1.25.07.36-.34.39-.91.07-1.29l-1.32,1.22ZM9.44,17.15c-.33.37-.3.95.07,1.29.36.34.93.31,1.25-.07l-1.32-1.22ZM14.93,12.26l.66.61-.66-.61ZM18.98,10.15l-.29.86h0l.29-.86ZM17.22,10.15l.29.86-.29-.86ZM23.43,21.42v1.83h1.78v-1.83h-1.78ZM24.32,26.89h0v-1.83h0v1.83ZM17.21,17.77v3.65h1.78v-3.65h-1.78ZM19.88,18.68h-3.55v1.83h3.55v-1.83ZM12.77,21.6v-5.86h-1.78v5.86h1.78ZM19.88,25.07h-3.73v1.83h3.73v-1.83ZM10.99,21.6c0,.75,0,1.37.04,1.87.04.51.13.98.35,1.43l1.58-.83c-.07-.14-.13-.35-.16-.75-.03-.41-.03-.94-.03-1.72h-1.78ZM16.15,25.07c-.76,0-1.28,0-1.68-.03-.39-.03-.59-.09-.73-.16l-.81,1.63c.43.23.89.32,1.39.36.49.04,1.09.04,1.82.04v-1.83ZM11.38,24.9c.34.69.88,1.25,1.55,1.6l.81-1.63c-.33-.18-.61-.45-.78-.8l-1.58.83ZM20.61,12.87l4.83,5.51,1.32-1.22-4.83-5.51-1.32,1.22ZM10.76,18.38l4.83-5.51-1.32-1.22-4.83,5.51,1.32,1.22ZM21.93,11.65c-.54-.61-.98-1.12-1.37-1.49-.4-.38-.8-.69-1.29-.87l-.58,1.72c.15.06.35.17.66.48.32.31.7.75,1.26,1.38l1.32-1.22ZM15.59,12.87c.56-.64.94-1.07,1.26-1.38.31-.3.51-.42.66-.48l-.58-1.72c-.49.18-.9.49-1.29.87-.39.37-.83.88-1.37,1.49l1.32,1.22ZM19.27,9.28c-.76-.27-1.58-.27-2.34,0l.58,1.72c.38-.14.79-.14,1.17,0l.58-1.72Z"/></svg>