<?xml version="1.0" encoding="UTF-8"?>
<svg id="f" data-name="_x33_._Healthcare" xmlns="http://www.w3.org/2000/svg" viewBox="0 0 36 36">
  <path d="M20.91,22.37c0-.64-.52-1.16-1.16-1.16s-1.16.52-1.16,1.16h2.32ZM18.59,24.69c0,.64.52,1.16,1.16,1.16s1.16-.52,1.16-1.16h-2.32ZM19.75,27.01c-.64,0-1.16.52-1.16,1.16s.52,1.16,1.16,1.16v-2.32ZM19.76,29.34c.64,0,1.16-.52,1.16-1.16s-.52-1.16-1.16-1.16v2.32ZM12.78,17.72c0-.64-.52-1.16-1.16-1.16s-1.16.52-1.16,1.16h2.32ZM10.46,22.37c0,.64.52,1.16,1.16,1.16s1.16-.52,1.16-1.16h-2.32ZM13.94,21.2c.64,0,1.16-.52,1.16-1.16s-.52-1.16-1.16-1.16v2.32ZM9.3,18.88c-.64,0-1.16.52-1.16,1.16s.52,1.16,1.16,1.16v-2.32ZM4.65,15.14c0-.64-.52-1.16-1.16-1.16s-1.16.52-1.16,1.16h2.32ZM13.94,29.34c.64,0,1.16-.52,1.16-1.16s-.52-1.16-1.16-1.16v2.32ZM3.87,26.27l-1.04.53h0l1.04-.53ZM5.39,27.8l.53-1.04h0l-.53,1.04ZM15.76,10.7l-.86.78h0l.86-.78ZM21.21,18.5c.43.48,1.16.52,1.64.09.48-.43.52-1.16.09-1.64l-1.73,1.55ZM.3,16.94c-.43.48-.39,1.21.09,1.64.48.43,1.21.39,1.64-.09l-1.73-1.55ZM7.47,10.71l.86.78-.86-.78ZM12.76,8.02l-.38,1.1h0l.38-1.1ZM10.47,8.02l.38,1.1-.38-1.1ZM18.59,22.37v2.32h2.32v-2.32h-2.32ZM19.75,29.34h.01v-2.32h-.01v2.32ZM10.46,17.72v4.65h2.32v-4.65h-2.32ZM13.94,18.88h-4.65v2.32h4.65v-2.32ZM4.65,22.6v-7.46h-2.32v7.46h2.32ZM13.94,27.01h-4.88v2.32h4.88v-2.32ZM2.32,22.6c0,.96,0,1.74.05,2.38.05.65.17,1.25.46,1.82l2.07-1.06c-.09-.18-.17-.44-.21-.95-.04-.52-.04-1.2-.04-2.19h-2.32ZM9.06,27.01c-1,0-1.67,0-2.19-.04-.51-.04-.77-.12-.95-.21l-1.06,2.07c.56.29,1.16.4,1.82.46.64.05,1.43.05,2.38.05v-2.32ZM2.83,26.8c.45.87,1.16,1.59,2.03,2.03l1.06-2.07c-.44-.22-.79-.58-1.02-1.02l-2.07,1.06ZM14.9,11.48l6.31,7.01,1.73-1.55-6.31-7.01-1.73,1.55ZM2.03,18.5l6.31-7.01-1.73-1.55L.3,16.94l1.73,1.55ZM16.63,9.93c-.7-.78-1.28-1.42-1.79-1.9-.52-.49-1.05-.88-1.69-1.11l-.76,2.19c.2.07.45.22.87.61.42.39.92.95,1.65,1.76l1.73-1.55ZM8.34,11.48c.73-.81,1.23-1.37,1.65-1.76.41-.39.66-.54.87-.61l-.76-2.19c-.64.22-1.17.62-1.69,1.11-.51.48-1.09,1.12-1.79,1.9l1.73,1.55ZM13.15,6.92c-.99-.34-2.07-.34-3.06,0l.76,2.19c.49-.17,1.03-.17,1.53,0l.76-2.19Z" fill="#fff"/>
</svg>