<?xml version="1.0" encoding="UTF-8"?>
<svg id="f" data-name="_x33_._Healthcare" xmlns="http://www.w3.org/2000/svg" viewBox="0 0 184 36">
  <path d="M31.01,20.37c0-.64-.52-1.16-1.16-1.16s-1.16.52-1.16,1.16h2.32ZM28.68,22.69c0,.64.52,1.16,1.16,1.16s1.16-.52,1.16-1.16h-2.32ZM29.84,25.01c-.64,0-1.16.52-1.16,1.16s.52,1.16,1.16,1.16v-2.32ZM29.86,27.34c.64,0,1.16-.52,1.16-1.16s-.52-1.16-1.16-1.16v2.32ZM22.87,15.72c0-.64-.52-1.16-1.16-1.16s-1.16.52-1.16,1.16h2.32ZM20.55,20.37c0,.64.52,1.16,1.16,1.16s1.16-.52,1.16-1.16h-2.32ZM24.03,19.2c.64,0,1.16-.52,1.16-1.16s-.52-1.16-1.16-1.16v2.32ZM19.39,16.88c-.64,0-1.16.52-1.16,1.16s.52,1.16,1.16,1.16v-2.32ZM14.74,13.14c0-.64-.52-1.16-1.16-1.16s-1.16.52-1.16,1.16h2.32ZM24.03,27.34c.64,0,1.16-.52,1.16-1.16s-.52-1.16-1.16-1.16v2.32ZM13.96,24.27l-1.04.53h0l1.04-.53ZM15.48,25.8l.53-1.04h0l-.53,1.04ZM25.85,8.7l-.86.78h0l.86-.78ZM31.3,16.5c.43.48,1.16.52,1.64.09.48-.43.52-1.16.09-1.64l-1.73,1.55ZM10.39,14.94c-.43.48-.39,1.21.09,1.64.48.43,1.21.39,1.64-.09l-1.73-1.55ZM17.56,8.71l.86.78-.86-.78ZM22.86,6.02l-.38,1.1h0l.38-1.1ZM20.56,6.02l.38,1.1-.38-1.1ZM28.68,20.37v2.32h2.32v-2.32h-2.32ZM29.84,27.34h.01v-2.32h-.01v2.32ZM20.55,15.72v4.65h2.32v-4.65h-2.32ZM24.03,16.88h-4.65v2.32h4.65v-2.32ZM14.74,20.6v-7.46h-2.32v7.46h2.32ZM24.03,25.01h-4.88v2.32h4.88v-2.32ZM12.42,20.6c0,.96,0,1.74.05,2.38.05.65.17,1.25.46,1.82l2.07-1.06c-.09-.18-.17-.44-.21-.95-.04-.52-.04-1.2-.04-2.19h-2.32ZM19.15,25.01c-1,0-1.67,0-2.19-.04-.51-.04-.77-.12-.95-.21l-1.06,2.07c.56.29,1.16.4,1.82.46.64.05,1.43.05,2.38.05v-2.32ZM12.92,24.8c.45.87,1.16,1.59,2.03,2.03l1.06-2.07c-.44-.22-.79-.58-1.02-1.02l-2.07,1.06ZM24.99,9.48l6.31,7.01,1.73-1.55-6.31-7.01-1.73,1.55ZM12.12,16.5l6.31-7.01-1.73-1.55-6.31,7.01,1.73,1.55ZM26.72,7.93c-.7-.78-1.28-1.42-1.79-1.9-.52-.49-1.05-.88-1.69-1.11l-.76,2.19c.2.07.45.22.87.61.42.39.92.95,1.65,1.76l1.73-1.55ZM18.43,9.48c.73-.81,1.23-1.37,1.65-1.76.41-.39.66-.54.87-.61l-.76-2.19c-.64.22-1.17.62-1.69,1.11-.51.48-1.09,1.12-1.79,1.9l1.73,1.55ZM23.24,4.92c-.99-.34-2.07-.34-3.06,0l.76,2.19c.49-.17,1.03-.17,1.53,0l.76-2.19Z" fill="#231f20"/>
  <g>
    <path d="M46.42,20.17v6.66h-2.33v-13.88h2.33v6.32h6.97v-6.32h2.33v13.88h-2.33v-6.66h-6.97Z"/>
    <path d="M63.82,27.06c-.73,0-1.41-.14-2.05-.41-.64-.27-1.2-.64-1.67-1.11-.47-.47-.85-1.02-1.12-1.65-.28-.63-.41-1.3-.41-2.01,0-.86.13-1.65.38-2.38.25-.73.61-1.36,1.07-1.89.46-.53,1.01-.95,1.66-1.25.65-.3,1.37-.45,2.16-.45.7,0,1.34.12,1.93.37.59.25,1.09.58,1.51.99.42.42.75.89.98,1.44.23.54.35,1.11.35,1.71h-7.99c0,.72.09,1.39.28,2,.18.61.44,1.14.78,1.59.33.45.73.8,1.19,1.05.46.25.97.38,1.52.38.46,0,.9-.07,1.33-.22.43-.15.81-.35,1.16-.59.35-.24.64-.52.88-.84.24-.31.42-.64.51-.97l.62.27c-.15.55-.4,1.07-.74,1.55s-.74.9-1.2,1.26c-.46.36-.95.64-1.49.85-.54.21-1.08.31-1.63.31ZM65.93,19.57c0-.4-.07-.78-.21-1.13-.14-.35-.34-.65-.59-.91-.25-.25-.54-.46-.88-.6-.33-.15-.69-.22-1.08-.22-.32,0-.63.07-.92.21-.29.14-.55.34-.78.6-.23.25-.42.56-.57.91-.15.35-.24.73-.27,1.13h5.31Z"/>
    <path d="M78.36,26.83c-.28-.14-.51-.34-.71-.59-.19-.25-.29-.55-.29-.87-.25.19-.5.38-.74.59-.24.2-.5.39-.78.55-.28.16-.6.3-.94.4-.35.1-.74.16-1.2.16-.42,0-.8-.07-1.14-.2-.34-.14-.62-.32-.86-.56-.23-.24-.42-.52-.54-.85-.13-.33-.19-.68-.19-1.06,0-.46.09-.88.27-1.25.18-.37.43-.7.75-.99.32-.29.69-.55,1.1-.77.42-.23.86-.43,1.34-.61.47-.18.96-.34,1.47-.48.5-.14.99-.27,1.47-.39v-.67c0-.49-.03-.9-.1-1.23-.07-.33-.18-.61-.32-.81-.15-.21-.33-.35-.56-.44-.23-.09-.5-.13-.81-.13s-.58.06-.83.18c-.25.12-.47.28-.66.48s-.35.43-.47.7c-.12.27-.2.55-.25.85h-1.95c.06-.46.21-.87.48-1.23.26-.36.59-.67.99-.92.4-.25.85-.44,1.36-.57.51-.13,1.03-.2,1.58-.2.7,0,1.28.07,1.76.2.47.14.85.33,1.14.57.29.24.49.54.61.89.12.35.18.74.18,1.17v6.61c0,.33.1.62.29.87.19.25.43.45.71.59h-2.14ZM77.37,20.59c-.31.1-.62.21-.95.33-.33.13-.65.27-.96.42s-.61.33-.9.51c-.29.18-.54.38-.75.59-.22.21-.39.43-.51.66-.13.23-.19.47-.19.72,0,.27.05.51.15.75.1.23.23.44.39.62.16.18.35.32.55.42.21.1.43.15.65.15.24,0,.46-.03.68-.09.22-.06.43-.15.63-.26.2-.11.4-.23.61-.37.2-.14.41-.29.62-.45v-4Z"/>
    <path d="M84.87,26.83h-2.14v-15.57l1.52-.61h.62v16.18Z"/>
    <path d="M90.66,12.47h.61v3.64h2.39v.91h-2.39v7.55c0,.16.03.31.09.45.06.14.14.26.24.37.1.1.22.19.36.25.14.06.29.09.46.09.24,0,.45-.06.65-.18.2-.12.37-.27.51-.44l.53.36c-.29.5-.67.89-1.14,1.17-.47.29-1.05.43-1.74.43-.36,0-.67-.06-.93-.18-.27-.12-.48-.29-.65-.51-.17-.22-.3-.48-.38-.79-.08-.3-.13-.64-.13-1.01v-7.55h-1.86v-.4l1.86-.51v-3.05l1.52-.6Z"/>
    <path d="M98.84,18.08c.63-.73,1.3-1.27,2.01-1.63s1.42-.54,2.14-.54c.38,0,.73.08,1.05.25s.61.4.85.69c.24.29.44.64.58,1.03s.21.81.21,1.26v7.68h-2.12v-7.32c0-.71-.16-1.25-.48-1.62-.32-.37-.73-.55-1.23-.55-.22,0-.46.04-.71.12-.25.08-.51.18-.76.32-.26.14-.52.3-.77.49s-.51.4-.74.63v7.93h-2.14v-15.57l1.53-.61h.61v7.43Z"/>
    <path d="M116.26,19.13c-.08-.28-.18-.56-.31-.85-.13-.29-.3-.55-.51-.78-.21-.23-.45-.42-.73-.57-.28-.15-.61-.22-.98-.22-.48,0-.91.1-1.3.29-.38.2-.71.46-.97.8-.27.33-.47.73-.61,1.17-.14.45-.21.92-.21,1.42,0,.68.09,1.33.27,1.94.18.61.43,1.15.75,1.61.32.46.72.83,1.17,1.09.46.27.97.4,1.53.4.5,0,.93-.08,1.29-.24.37-.16.68-.37.95-.63.27-.27.5-.57.7-.93.2-.35.37-.72.52-1.11l.64.26c-.18.67-.43,1.27-.73,1.8-.31.53-.67.98-1.08,1.34-.42.37-.88.65-1.4.84-.52.19-1.08.29-1.69.29-.7,0-1.36-.14-1.98-.41-.61-.28-1.15-.65-1.6-1.14-.45-.48-.81-1.04-1.08-1.69-.27-.64-.4-1.33-.4-2.06,0-.54.07-1.06.2-1.55.13-.5.32-.96.56-1.4.24-.43.53-.83.87-1.18s.71-.66,1.13-.92c.41-.25.85-.45,1.32-.59.47-.14.96-.21,1.47-.21.43,0,.83.05,1.22.15.39.1.75.24,1.08.41.33.18.62.4.87.66.25.26.45.55.59.87l-1.55,1.12Z" fill="#231f20"/>
    <path d="M127.93,26.83c-.28-.14-.51-.34-.71-.59-.19-.25-.29-.55-.29-.87-.25.19-.5.38-.74.59-.24.2-.5.39-.78.55-.28.16-.6.3-.94.4-.35.1-.74.16-1.2.16-.42,0-.8-.07-1.14-.2-.34-.14-.62-.32-.86-.56-.23-.24-.42-.52-.54-.85-.13-.33-.19-.68-.19-1.06,0-.46.09-.88.27-1.25.18-.37.43-.7.75-.99.32-.29.69-.55,1.1-.77.42-.23.86-.43,1.34-.61.47-.18.96-.34,1.47-.48.5-.14.99-.27,1.47-.39v-.67c0-.49-.03-.9-.1-1.23-.07-.33-.18-.61-.32-.81-.15-.21-.33-.35-.56-.44-.23-.09-.5-.13-.81-.13s-.58.06-.83.18c-.25.12-.47.28-.66.48s-.35.43-.47.7c-.12.27-.2.55-.25.85h-1.95c.06-.46.21-.87.48-1.23.26-.36.59-.67.99-.92.4-.25.85-.44,1.36-.57.51-.13,1.03-.2,1.58-.2.7,0,1.28.07,1.76.2.47.14.85.33,1.14.57.29.24.49.54.61.89.12.35.18.74.18,1.17v6.61c0,.33.1.62.29.87.19.25.43.45.71.59h-2.14ZM126.94,20.59c-.31.1-.62.21-.95.33-.33.13-.65.27-.96.42s-.61.33-.9.51c-.29.18-.54.38-.75.59-.22.21-.39.43-.51.66-.13.23-.19.47-.19.72,0,.27.05.51.15.75.1.23.23.44.39.62.16.18.35.32.55.42.21.1.43.15.65.15.24,0,.46-.03.68-.09.22-.06.43-.15.63-.26.2-.11.4-.23.61-.37.2-.14.41-.29.62-.45v-4Z" fill="#231f20"/>
    <path d="M133.82,15.91h.32l.28,2.19c.17-.32.38-.61.63-.88.25-.27.53-.5.83-.69s.62-.35.96-.46c.34-.11.68-.16,1.03-.16.31,0,.62.04.93.13s.59.22.85.4l-.67,1.79c-.14-.15-.29-.28-.44-.37-.15-.09-.31-.17-.47-.22-.16-.05-.32-.09-.49-.1-.17-.01-.33-.02-.5-.02-.27,0-.52.04-.78.12-.25.08-.5.19-.73.34-.23.15-.44.34-.64.58-.2.23-.37.51-.51.82v7.46h-2.12v-10.33l1.52-.59Z" fill="#231f20"/>
    <path d="M145.58,27.06c-.73,0-1.41-.14-2.05-.41-.64-.27-1.2-.64-1.67-1.11-.47-.47-.85-1.02-1.12-1.65-.28-.63-.41-1.3-.41-2.01,0-.86.13-1.65.38-2.38.25-.73.61-1.36,1.07-1.89.46-.53,1.01-.95,1.66-1.25.65-.3,1.37-.45,2.16-.45.7,0,1.34.12,1.93.37.59.25,1.09.58,1.51.99.42.42.75.89.98,1.44.23.54.35,1.11.35,1.71h-7.99c0,.72.09,1.39.28,2,.18.61.44,1.14.78,1.59.33.45.73.8,1.19,1.05.46.25.97.38,1.52.38.46,0,.9-.07,1.33-.22.43-.15.81-.35,1.16-.59.35-.24.64-.52.88-.84.24-.31.42-.64.51-.97l.62.27c-.15.55-.4,1.07-.74,1.55s-.74.9-1.2,1.26c-.46.36-.95.64-1.49.85-.54.21-1.08.31-1.63.31ZM147.69,19.57c0-.4-.07-.78-.21-1.13-.14-.35-.34-.65-.59-.91-.25-.25-.54-.46-.88-.6-.33-.15-.69-.22-1.08-.22-.32,0-.63.07-.92.21-.29.14-.55.34-.78.6-.23.25-.42.56-.57.91-.15.35-.24.73-.27,1.13h5.31Z" fill="#231f20"/>
  </g>
</svg>