<?xml version="1.0" encoding="UTF-8"?><svg id="k" xmlns="http://www.w3.org/2000/svg" viewBox="0 0 184 36"><path d="M47.53,19.4v7.02h-2.57v-14.64h2.57v6.67h7.67v-6.67h2.57v14.64h-2.57v-7.02h-7.67Z" fill="#fff"/><path d="M66.68,26.67c-.8,0-1.55-.14-2.25-.43-.7-.29-1.32-.68-1.84-1.17-.52-.49-.94-1.07-1.24-1.74-.3-.67-.46-1.38-.46-2.13,0-.91.14-1.74.41-2.51.28-.77.67-1.43,1.17-1.99.51-.56,1.12-1,1.83-1.31.71-.32,1.5-.47,2.38-.47.77,0,1.47.13,2.12.39.65.26,1.2.61,1.66,1.05.46.44.83.94,1.08,1.52.26.57.39,1.17.39,1.8h-8.79c0,.76.1,1.46.31,2.11.2.65.49,1.21.86,1.68.37.47.81.84,1.31,1.1.51.27,1.06.4,1.67.4.51,0,.99-.08,1.46-.24.47-.16.89-.37,1.27-.62.38-.26.7-.55.97-.88.27-.33.46-.67.56-1.03l.68.29c-.17.58-.44,1.13-.82,1.63s-.82.95-1.32,1.33c-.5.38-1.05.68-1.64.9-.59.22-1.19.33-1.8.33ZM69.01,18.76c0-.43-.08-.82-.24-1.19-.16-.37-.37-.69-.65-.96-.28-.27-.6-.48-.97-.63-.37-.15-.76-.23-1.19-.23-.35,0-.69.08-1.01.23-.32.15-.61.36-.86.63-.25.27-.46.59-.63.96-.17.37-.26.77-.29,1.19h5.84Z" fill="#fff"/><path d="M82.69,26.43c-.31-.15-.57-.36-.78-.62-.21-.27-.32-.58-.32-.92-.28.2-.55.4-.81.62-.26.21-.55.41-.86.58-.31.17-.66.31-1.04.43-.38.11-.82.17-1.32.17-.46,0-.88-.07-1.25-.22-.37-.14-.69-.34-.94-.59-.26-.25-.46-.55-.6-.89-.14-.35-.21-.72-.21-1.12,0-.49.1-.92.3-1.31.2-.39.47-.74.82-1.04.35-.31.75-.58,1.22-.82.46-.24.95-.45,1.47-.64.52-.19,1.06-.36,1.61-.5.55-.15,1.09-.28,1.61-.41v-.71c0-.52-.04-.95-.12-1.3-.08-.35-.2-.64-.36-.86-.16-.22-.37-.37-.62-.46-.25-.09-.55-.14-.89-.14s-.63.06-.91.19c-.28.13-.52.29-.73.5s-.38.46-.52.74c-.13.28-.22.58-.27.9h-2.14c.06-.49.24-.92.52-1.3.29-.38.65-.71,1.09-.97.44-.26.93-.46,1.49-.6.56-.14,1.13-.21,1.73-.21.77,0,1.41.07,1.94.22.52.14.94.34,1.26.6.31.26.54.57.67.94.13.37.2.78.2,1.23v6.98c0,.35.11.65.32.92.21.27.47.48.78.62h-2.35ZM81.59,19.84c-.34.1-.69.22-1.05.35-.36.13-.71.28-1.06.45s-.68.34-.99.54c-.31.19-.59.4-.83.62-.24.22-.43.45-.56.7-.14.24-.21.5-.21.76,0,.28.05.54.16.79.11.25.25.46.43.65.18.19.38.34.61.44.23.11.47.16.71.16.26,0,.51-.03.75-.1.24-.07.47-.16.69-.27.22-.11.45-.24.67-.39.22-.15.45-.31.68-.47v-4.22Z" fill="#fff"/><path d="M89.85,26.43h-2.35V9.99l1.67-.64h.68v17.07Z" fill="#fff"/><path d="M96.22,11.27h.67v3.84h2.63v.96h-2.63v7.96c0,.17.03.33.1.47.07.15.15.28.26.39.11.11.24.2.4.26.15.06.32.09.51.09.26,0,.5-.06.71-.19.21-.13.4-.28.56-.46l.59.38c-.32.52-.74.94-1.26,1.24-.51.3-1.15.45-1.91.45-.39,0-.73-.06-1.03-.19-.29-.13-.53-.31-.72-.54-.19-.23-.33-.51-.42-.83-.09-.32-.14-.68-.14-1.07v-7.96h-2.05v-.42l2.05-.54v-3.21l1.67-.63Z" fill="#fff"/><path d="M105.22,17.19c.7-.77,1.44-1.34,2.21-1.72s1.56-.57,2.35-.57c.41,0,.8.09,1.16.27s.67.42.94.73c.27.31.48.67.63,1.09s.23.86.23,1.33v8.11h-2.34v-7.72c0-.75-.18-1.32-.53-1.71-.35-.39-.81-.58-1.36-.58-.25,0-.51.04-.78.12-.28.08-.56.19-.84.34-.28.14-.57.31-.85.51s-.56.42-.82.66v8.37h-2.35V9.99l1.68-.64h.67v7.84Z" fill="#fff"/><path d="M124.4,18.3c-.08-.29-.2-.59-.35-.89-.15-.3-.33-.58-.56-.82-.23-.25-.49-.45-.8-.6-.31-.15-.67-.23-1.08-.23-.53,0-1.01.1-1.43.31-.42.21-.78.49-1.07.84-.29.35-.51.77-.67,1.24-.15.47-.23.97-.23,1.5,0,.72.1,1.4.29,2.05.2.64.47,1.21.83,1.7.36.49.79.87,1.29,1.15.5.28,1.07.43,1.69.43.55,0,1.02-.08,1.42-.25.4-.17.75-.39,1.05-.67.3-.28.55-.61.77-.98.21-.37.41-.76.58-1.18l.7.28c-.2.71-.47,1.34-.81,1.9-.34.56-.74,1.03-1.19,1.42-.46.39-.97.68-1.54.88-.57.2-1.19.3-1.86.3-.78,0-1.5-.15-2.18-.44-.68-.29-1.26-.69-1.76-1.2-.5-.51-.89-1.1-1.19-1.78-.29-.68-.44-1.4-.44-2.18,0-.57.07-1.11.22-1.64.15-.53.35-1.02.62-1.47.26-.46.58-.87.96-1.25s.79-.7,1.24-.97c.45-.27.94-.48,1.46-.62.52-.15,1.06-.22,1.62-.22.47,0,.92.05,1.35.15.43.1.83.25,1.19.44.36.19.68.42.96.7.28.28.49.58.65.92l-1.7,1.18Z" fill="#fff"/><path d="M137.25,26.43c-.31-.15-.57-.36-.78-.62-.21-.27-.32-.58-.32-.92-.28.2-.55.4-.81.62-.26.21-.55.41-.86.58-.31.17-.66.31-1.04.43-.38.11-.82.17-1.32.17-.46,0-.88-.07-1.25-.22-.37-.14-.69-.34-.94-.59-.26-.25-.46-.55-.6-.89-.14-.35-.21-.72-.21-1.12,0-.49.1-.92.3-1.31.2-.39.47-.74.82-1.04.35-.31.75-.58,1.22-.82.46-.24.95-.45,1.47-.64.52-.19,1.06-.36,1.61-.5.55-.15,1.09-.28,1.61-.41v-.71c0-.52-.04-.95-.12-1.3-.08-.35-.2-.64-.36-.86-.16-.22-.37-.37-.62-.46-.25-.09-.55-.14-.89-.14s-.63.06-.91.19c-.28.13-.52.29-.73.5s-.38.46-.52.74c-.13.28-.22.58-.27.9h-2.14c.06-.49.24-.92.52-1.3.29-.38.65-.71,1.09-.97.44-.26.93-.46,1.49-.6.56-.14,1.13-.21,1.73-.21.77,0,1.41.07,1.94.22.52.14.94.34,1.26.6.31.26.54.57.67.94.13.37.2.78.2,1.23v6.98c0,.35.11.65.32.92.21.27.47.48.78.62h-2.35ZM136.15,19.84c-.34.1-.69.22-1.05.35-.36.13-.71.28-1.06.45s-.68.34-.99.54c-.31.19-.59.4-.83.62-.24.22-.43.45-.56.7-.14.24-.21.5-.21.76,0,.28.05.54.16.79.11.25.25.46.43.65.18.19.38.34.61.44.23.11.47.16.71.16.26,0,.51-.03.75-.1.24-.07.47-.16.69-.27.22-.11.45-.24.67-.39.22-.15.45-.31.68-.47v-4.22Z" fill="#fff"/><path d="M143.72,14.91h.36l.31,2.31c.18-.34.41-.65.69-.93.28-.28.58-.52.92-.73s.69-.37,1.06-.48c.37-.11.75-.17,1.13-.17.35,0,.69.04,1.02.13s.65.23.94.42l-.74,1.89c-.15-.16-.31-.29-.48-.39-.17-.1-.34-.18-.52-.23-.18-.06-.36-.09-.54-.1-.18-.01-.37-.02-.55-.02-.29,0-.58.04-.86.12-.28.08-.55.2-.8.36-.25.16-.49.36-.7.61-.21.25-.4.54-.56.87v7.87h-2.34v-10.9l1.67-.62Z" fill="#fff"/><path d="M156.67,26.67c-.8,0-1.55-.14-2.25-.43-.7-.29-1.32-.68-1.84-1.17-.52-.49-.94-1.07-1.24-1.74-.3-.67-.46-1.38-.46-2.13,0-.91.14-1.74.41-2.51.28-.77.67-1.43,1.17-1.99.51-.56,1.12-1,1.83-1.31.71-.32,1.5-.47,2.38-.47.77,0,1.47.13,2.12.39.65.26,1.2.61,1.66,1.05.46.44.83.94,1.08,1.52.26.57.39,1.17.39,1.8h-8.79c0,.76.1,1.46.31,2.11.2.65.49,1.21.86,1.68.37.47.81.84,1.31,1.1.51.27,1.06.4,1.67.4.51,0,.99-.08,1.46-.24.47-.16.89-.37,1.27-.62.38-.26.7-.55.97-.88.27-.33.46-.67.56-1.03l.68.29c-.17.58-.44,1.13-.82,1.63s-.82.95-1.32,1.33c-.5.38-1.05.68-1.64.9-.59.22-1.19.33-1.8.33ZM158.99,18.76c0-.43-.08-.82-.24-1.19-.16-.37-.37-.69-.65-.96-.28-.27-.6-.48-.97-.63-.37-.15-.76-.23-1.19-.23-.35,0-.69.08-1.01.23-.32.15-.61.36-.86.63-.25.27-.46.59-.63.96-.17.37-.26.77-.29,1.19h5.84Z" fill="#fff"/><path d="M25.14,21.42c0-.5-.4-.91-.89-.91s-.89.41-.89.91h1.78ZM23.37,23.24c0,.5.4.91.89.91s.89-.41.89-.91h-1.78ZM24.26,25.07c-.49,0-.89.41-.89.91s.4.91.89.91v-1.83ZM24.26,26.89c.49,0,.89-.41.89-.91s-.4-.91-.89-.91v1.83ZM18.92,17.77c0-.5-.4-.91-.89-.91s-.89.41-.89.91h1.78ZM17.15,21.42c0,.5.4.91.89.91s.89-.41.89-.91h-1.78ZM19.81,20.5c.49,0,.89-.41.89-.91s-.4-.91-.89-.91v1.83ZM16.26,18.68c-.49,0-.89.41-.89.91s.4.91.89.91v-1.83ZM12.7,15.74c0-.5-.4-.91-.89-.91s-.89.41-.89.91h1.78ZM19.81,26.89c.49,0,.89-.41.89-.91s-.4-.91-.89-.91v1.83ZM12.11,24.49l-.79.41h0l.79-.41ZM13.27,25.68l.4-.81h0l-.4.81ZM21.2,12.26l-.66.61h0l.66-.61ZM25.37,18.38c.33.37.89.4,1.25.07.36-.34.39-.91.07-1.29l-1.32,1.22ZM9.38,17.15c-.33.37-.3.95.07,1.29.36.34.93.31,1.25-.07l-1.32-1.22ZM14.86,12.26l.66.61-.66-.61ZM18.91,10.15l-.29.86h0l.29-.86ZM17.16,10.15l.29.86-.29-.86ZM23.37,21.42v1.83h1.78v-1.83h-1.78ZM24.26,26.89h0v-1.83h0v1.83ZM17.15,17.77v3.65h1.78v-3.65h-1.78ZM19.81,18.68h-3.55v1.83h3.55v-1.83ZM12.7,21.6v-5.86h-1.78v5.86h1.78ZM19.81,25.07h-3.73v1.83h3.73v-1.83ZM10.93,21.6c0,.75,0,1.37.04,1.87.04.51.13.98.35,1.43l1.58-.83c-.07-.14-.13-.35-.16-.75-.03-.41-.03-.94-.03-1.72h-1.78ZM16.08,25.07c-.76,0-1.28,0-1.68-.03-.39-.03-.59-.09-.73-.16l-.81,1.63c.43.23.89.32,1.39.36.49.04,1.09.04,1.82.04v-1.83ZM11.31,24.9c.34.69.88,1.25,1.55,1.6l.81-1.63c-.33-.18-.61-.45-.78-.8l-1.58.83ZM20.54,12.87l4.83,5.51,1.32-1.22-4.83-5.51-1.32,1.22ZM10.7,18.38l4.83-5.51-1.32-1.22-4.83,5.51,1.32,1.22ZM21.87,11.65c-.54-.61-.98-1.12-1.37-1.49-.4-.38-.8-.69-1.29-.87l-.58,1.72c.15.06.35.17.66.48.32.31.7.75,1.26,1.38l1.32-1.22ZM15.52,12.87c.56-.64.94-1.07,1.26-1.38.31-.3.51-.42.66-.48l-.58-1.72c-.49.18-.9.49-1.29.87-.39.37-.83.88-1.37,1.49l1.32,1.22ZM19.2,9.28c-.76-.27-1.58-.27-2.34,0l.58,1.72c.38-.14.79-.14,1.17,0l.58-1.72Z" fill="#fff"/></svg>