<?xml version="1.0" encoding="UTF-8"?><svg id="e" xmlns="http://www.w3.org/2000/svg" viewBox="0 0 36 36"><path d="M20.68,18c0,1.48-1.2,2.68-2.68,2.68s-2.68-1.2-2.68-2.68,1.2-2.68,2.68-2.68,2.68,1.2,2.68,2.68Z" fill="none" stroke="#000" stroke-linecap="round" stroke-linejoin="round" stroke-width="2"/><path d="M14.1,11.91l-.07.82c-.04.43-.05.64-.15.81-.08.15-.2.27-.35.35-.17.09-.38.11-.81.15l-.82.07c-.92.08-1.38.11-1.6.32-.2.18-.3.44-.28.71.02.31.33.65.94,1.34l.51.57c.3.34.45.5.51.69.05.17.05.35,0,.51-.06.19-.21.36-.51.69l-.51.57c-.61.69-.92,1.03-.94,1.34-.02.27.09.53.28.71.23.21.69.25,1.6.32l.82.07c.43.04.64.05.81.15.15.08.27.2.35.35.09.17.11.38.15.81l.07.82c.08.92.11,1.38.32,1.6.18.2.44.3.71.28.31-.02.65-.33,1.34-.94l.57-.51c.34-.3.5-.45.69-.51.17-.05.35-.05.51,0,.19.06.36.21.69.51l.57.51c.69.61,1.03.92,1.34.94.27.02.53-.09.71-.28.21-.23.25-.69.32-1.6l.07-.82c.04-.43.05-.64.15-.81.08-.15.2-.27.35-.35.17-.09.38-.11.81-.15l.82-.07c.92-.08,1.38-.11,1.6-.32.2-.18.3-.44.28-.71-.02-.31-.33-.65-.94-1.34l-.51-.57c-.3-.34-.45-.5-.51-.69-.05-.17-.05-.35,0-.51.06-.19.21-.36.51-.69l.51-.57c.61-.69.92-1.03.94-1.34.02-.27-.09-.53-.28-.71-.23-.21-.69-.25-1.6-.32l-.82-.07c-.43-.04-.64-.05-.81-.15-.15-.08-.27-.2-.35-.35-.09-.17-.11-.38-.15-.81l-.07-.82c-.08-.92-.11-1.38-.32-1.6-.18-.2-.44-.3-.71-.28-.31.02-.65.33-1.34.94l-.57.51c-.34.3-.5.45-.69.51-.17.05-.35.05-.51,0-.19-.06-.36-.21-.69-.51l-.57-.51c-.69-.61-1.03-.92-1.34-.94-.27-.02-.53.09-.71.28-.21.23-.25.69-.32,1.6Z" fill="none" stroke="#000" stroke-linecap="round" stroke-linejoin="round" stroke-width="2"/></svg>