<?xml version="1.0" encoding="UTF-8"?>
<svg id="h" data-name="_x34_._Manufacturing" xmlns="http://www.w3.org/2000/svg" viewBox="0 0 184 36">
  <g id="i" data-name="Page-1">
    <g id="j" data-name="Icon-Set-Filled">
      <path id="k" data-name="settings" d="M15.11,22.7c-2.58-1.56-3.39-4.93-1.81-7.53s4.93-3.44,7.51-1.88,3.39,4.93,1.82,7.53-4.94,3.44-7.51,1.88h0ZM29.12,29.3l-1.41-2.59c.53-.59,1.02-1.23,1.45-1.93s.76-1.44,1.04-2.18l2.95.05c1.21.02,2.21-.95,2.24-2.16l.11-4.39c.03-1.21-.92-2.21-2.13-2.23l-2.98-.05c-.5-1.51-1.23-2.94-2.25-4.2l.97-1.6c.63-1.04.3-2.39-.73-3.01l-3.73-2.26c-1.03-.62-2.38-.29-3.01.75l-.97,1.6c-1.58-.32-3.19-.31-4.76-.05l-1.43-2.62c-.58-1.06-1.91-1.44-2.96-.85l-3.84,2.13c-1.06.59-1.45,1.92-.87,2.98l1.41,2.59c-.53.59-1.02,1.23-1.45,1.93s-.76,1.44-1.04,2.18l-2.95-.05c-1.21-.02-2.21.95-2.24,2.16l-.11,4.39c-.03,1.21.92,2.21,2.13,2.23l2.98.05c.5,1.51,1.23,2.94,2.25,4.2l-.97,1.6c-.63,1.04-.3,2.39.73,3.01l3.73,2.26c1.03.62,2.38.29,3.01-.75l.97-1.6c1.58.32,3.19.31,4.76.05l1.43,2.62c.58,1.06,1.91,1.44,2.96.85l3.84-2.13c1.06-.59,1.45-1.92.87-2.98h0ZM19.67,15.18c-1.55-.94-3.56-.43-4.51,1.13s-.46,3.58,1.09,4.52,3.56.43,4.51-1.13.46-3.58-1.09-4.52h0Z" fill-rule="evenodd"/>
    </g>
  </g>
  <g>
    <path d="M53.48,9.68v17.84h-3.91v-12.04s-1.56,12.04-1.56,12.04h-2.77l-1.64-11.77v11.77h-3.92V9.68h5.79c.17,1.07.35,2.34.53,3.79l.64,4.54,1.03-8.33h5.82Z"/>
    <path d="M62.8,9.68l2.56,17.84h-4.57l-.24-3.21h-1.6l-.27,3.21h-4.63l2.28-17.84h6.47ZM60.42,21.15c-.23-2.02-.45-4.52-.68-7.49-.46,3.42-.74,5.91-.86,7.49h1.54Z"/>
    <path d="M75.89,9.68v17.84h-3.92l-2.33-8.11v8.11h-3.74V9.68h3.74l2.51,8.03v-8.03h3.74Z"/>
    <path d="M87.64,9.68v11.92c0,1.35-.04,2.3-.13,2.85-.08.55-.34,1.11-.75,1.69-.42.58-.97,1.01-1.65,1.31s-1.49.45-2.42.45c-1.03,0-1.93-.18-2.72-.53-.79-.35-1.37-.81-1.76-1.38-.39-.57-.62-1.16-.69-1.79s-.11-1.95-.11-3.96v-10.56h4.47v13.38c0,.78.04,1.28.12,1.49.08.22.25.33.49.33.28,0,.47-.12.55-.36.08-.24.12-.8.12-1.69v-13.14h4.47Z"/>
    <path d="M89.15,9.68h7.58v3.57h-3.1v3.38h2.76v3.39h-2.76v7.49h-4.47V9.68Z"/>
    <path d="M104.9,9.68l2.56,17.84h-4.57l-.24-3.21h-1.6l-.27,3.21h-4.63l2.28-17.84h6.47ZM102.53,21.15c-.23-2.02-.45-4.52-.68-7.49-.46,3.42-.74,5.91-.86,7.49h1.54Z"/>
    <path d="M118.45,17.45h-4.47v-3.1c0-.9-.05-1.46-.14-1.69-.1-.22-.31-.34-.63-.34-.37,0-.6.14-.7.41-.1.27-.15.86-.15,1.76v8.29c0,.87.05,1.43.15,1.7.1.26.32.4.67.4s.55-.13.65-.4.15-.89.15-1.87v-2.24h4.47v.7c0,1.85-.13,3.16-.38,3.93-.25.77-.81,1.45-1.67,2.03-.86.58-1.92.87-3.18.87s-2.39-.25-3.24-.74c-.85-.49-1.41-1.17-1.69-2.04-.28-.87-.41-2.18-.41-3.93v-5.21c0-1.29.04-2.25.13-2.89.08-.64.34-1.26.76-1.86.42-.59,1.01-1.06,1.75-1.4s1.61-.51,2.58-.51c1.32,0,2.41.26,3.26.79.86.53,1.42,1.19,1.69,1.98s.4,2.02.4,3.68v1.69Z"/>
    <path d="M128.85,9.68v3.57h-2.66v14.27h-4.47v-14.27h-2.65v-3.57h9.78Z"/>
    <path d="M139.82,9.68v11.92c0,1.35-.04,2.3-.13,2.85-.08.55-.34,1.11-.75,1.69-.42.58-.97,1.01-1.65,1.31s-1.49.45-2.42.45c-1.03,0-1.93-.18-2.72-.53-.79-.35-1.37-.81-1.76-1.38-.39-.57-.62-1.16-.69-1.79s-.11-1.95-.11-3.96v-10.56h4.47v13.38c0,.78.04,1.28.12,1.49.08.22.25.33.49.33.28,0,.47-.12.55-.36.08-.24.12-.8.12-1.69v-13.14h4.47Z"/>
    <path d="M141.34,9.68h3.17c2.11,0,3.54.08,4.29.25.75.17,1.36.6,1.83,1.29.47.69.71,1.8.71,3.32,0,1.39-.17,2.32-.5,2.8-.33.48-.99.76-1.97.86.89.23,1.48.53,1.79.91.3.38.49.73.57,1.05.07.32.11,1.2.11,2.64v4.7h-4.16v-5.93c0-.95-.07-1.55-.22-1.77-.15-.23-.53-.34-1.14-.34v8.04h-4.47V9.68ZM145.81,12.73v3.97c.5,0,.86-.07,1.06-.21.2-.14.3-.61.3-1.39v-.98c0-.57-.1-.94-.29-1.11s-.55-.26-1.07-.26Z"/>
    <path d="M157.32,9.68v17.84h-4.47V9.68h4.47Z"/>
    <path d="M168.89,9.68v17.84h-3.92l-2.33-8.11v8.11h-3.74V9.68h3.74l2.51,8.03v-8.03h3.74Z"/>
    <path d="M180.73,16.25h-4.47v-1.62c0-1.02-.04-1.66-.13-1.92-.08-.26-.29-.39-.61-.39-.28,0-.46.11-.56.33-.1.22-.15.79-.15,1.7v8.56c0,.8.05,1.33.15,1.58.1.25.3.38.6.38.33,0,.55-.14.66-.43.12-.29.18-.84.18-1.67v-2.12h-.9v-2.71h5.24v9.57h-2.81l-.41-1.28c-.3.55-.69.96-1.15,1.24-.46.28-1.01.41-1.64.41-.75,0-1.46-.19-2.11-.57-.66-.38-1.15-.85-1.49-1.4-.34-.56-.55-1.14-.64-1.76-.08-.61-.13-1.53-.13-2.76v-5.3c0-1.7.09-2.94.27-3.71.18-.77.69-1.48,1.53-2.12.84-.64,1.93-.96,3.26-.96s2.4.28,3.26.84c.86.56,1.43,1.22,1.69,1.99.26.77.39,1.88.39,3.34v.77Z"/>
  </g>
</svg>