<?xml version="1.0" encoding="UTF-8"?>
<svg id="h" data-name="_x34_._Manufacturing" xmlns="http://www.w3.org/2000/svg" viewBox="0 0 36 36">
  <g id="i" data-name="Page-1">
    <g id="j" data-name="Icon-Set-Filled">
      <path id="k" data-name="settings" d="M14.69,22.7c-2.58-1.56-3.39-4.93-1.81-7.53s4.93-3.44,7.51-1.88,3.39,4.93,1.82,7.53-4.94,3.44-7.51,1.88h0ZM28.69,29.3l-1.41-2.59c.53-.59,1.02-1.23,1.45-1.93s.76-1.44,1.04-2.18l2.95.05c1.21.02,2.21-.95,2.24-2.16l.11-4.39c.03-1.21-.92-2.21-2.13-2.23l-2.98-.05c-.5-1.51-1.23-2.94-2.25-4.2l.97-1.6c.63-1.04.3-2.39-.73-3.01l-3.73-2.26c-1.03-.62-2.38-.29-3.01.75l-.97,1.6c-1.58-.32-3.19-.31-4.76-.05l-1.43-2.62c-.58-1.06-1.91-1.44-2.96-.85l-3.84,2.13c-1.06.59-1.45,1.92-.87,2.98l1.41,2.59c-.53.59-1.02,1.23-1.45,1.93s-.76,1.44-1.04,2.18l-2.95-.05c-1.21-.02-2.21.95-2.24,2.16L0,19.89c-.03,1.21.92,2.21,2.13,2.23l2.98.05c.5,1.51,1.23,2.94,2.25,4.2l-.97,1.6c-.63,1.04-.3,2.39.73,3.01l3.73,2.26c1.03.62,2.38.29,3.01-.75l.97-1.6c1.58.32,3.19.31,4.76.05l1.43,2.62c.58,1.06,1.91,1.44,2.96.85l3.84-2.13c1.06-.59,1.45-1.92.87-2.98h0ZM19.24,15.18c-1.55-.94-3.56-.43-4.51,1.13s-.46,3.58,1.09,4.52,3.56.43,4.51-1.13.46-3.58-1.09-4.52h0Z" fill-rule="evenodd"/>
    </g>
  </g>
</svg>