<?xml version="1.0" encoding="UTF-8"?><svg id="k" xmlns="http://www.w3.org/2000/svg" viewBox="0 0 184 36"><path d="M20.65,18c0,1.48-1.2,2.68-2.68,2.68s-2.68-1.2-2.68-2.68,1.2-2.68,2.68-2.68,2.68,1.2,2.68,2.68Z" fill="none" stroke="#000" stroke-linecap="round" stroke-linejoin="round" stroke-width="2"/><path d="M14.08,11.91l-.07.82c-.04.43-.05.64-.15.81-.08.15-.2.27-.35.35-.17.09-.38.11-.81.15l-.82.07c-.92.08-1.38.11-1.6.32-.2.18-.3.44-.28.71.02.31.33.65.94,1.34l.51.57c.3.34.45.5.51.69.05.17.05.35,0,.51-.06.19-.21.36-.51.69l-.51.57c-.61.69-.92,1.03-.94,1.34-.02.27.09.53.28.71.23.21.69.25,1.6.32l.82.07c.43.04.64.05.81.15.15.08.27.2.35.35.09.17.11.38.15.81l.07.82c.08.92.11,1.38.32,1.6.18.2.44.3.71.28.31-.02.65-.33,1.34-.94l.57-.51c.34-.3.5-.45.69-.51.17-.05.35-.05.51,0,.19.06.36.21.69.51l.57.51c.69.61,1.03.92,1.34.94.27.02.53-.09.71-.28.21-.23.25-.69.32-1.6l.07-.82c.04-.43.05-.64.15-.81.08-.15.2-.27.35-.35.17-.09.38-.11.81-.15l.82-.07c.92-.08,1.38-.11,1.6-.32.2-.18.3-.44.28-.71-.02-.31-.33-.65-.94-1.34l-.51-.57c-.3-.34-.45-.5-.51-.69-.05-.17-.05-.35,0-.51.06-.19.21-.36.51-.69l.51-.57c.61-.69.92-1.03.94-1.34.02-.27-.09-.53-.28-.71-.23-.21-.69-.25-1.6-.32l-.82-.07c-.43-.04-.64-.05-.81-.15-.15-.08-.27-.2-.35-.35-.09-.17-.11-.38-.15-.81l-.07-.82c-.08-.92-.11-1.38-.32-1.6-.18-.2-.44-.3-.71-.28-.31.02-.65.33-1.34.94l-.57.51c-.34.3-.5.45-.69.51-.17.05-.35.05-.51,0-.19-.06-.36-.21-.69-.51l-.57-.51c-.69-.61-1.03-.92-1.34-.94-.27-.02-.53.09-.71.28-.21.23-.25.69-.32,1.6Z" fill="none" stroke="#000" stroke-linecap="round" stroke-linejoin="round" stroke-width="2"/><path d="M48.13,10.36h2.66l1.15,6.2.43,2.39h.09l1.45-2.39,3.99-6.2h2.66l-2.91,12.38h-2.27l1.43-5.94c.29-1.18.79-2.75,1.19-3.89h-.08l-1.78,2.8-3.85,5.82h-1.1l-1.2-5.82-.48-2.8h-.08c-.16,1.16-.34,2.73-.6,3.89l-1.41,5.94h-2.22l2.91-12.38Z"/><path d="M60.92,19.57c0-3.55,2.85-6.36,5.86-6.36,1.08,0,2.04.52,2.51,1.31h.06l.45-1.08h1.92l-2.19,9.3h-1.95l.11-1.3h-.06c-1.03.92-2.36,1.52-3.6,1.52-1.92,0-3.11-1.2-3.11-3.39ZM67.88,19.73l.89-3.71c-.5-.8-1.17-1.13-1.84-1.13-1.84,0-3.54,2.02-3.54,4.42,0,1.36.63,1.99,1.63,1.99.93,0,1.98-.44,2.87-1.57Z"/><path d="M74.43,13.44h1.95l-.11,1.32h.09c1.15-.85,2.38-1.55,3.75-1.55,1.82,0,2.59.86,2.59,2.36,0,.43-.06.82-.18,1.3l-1.38,5.87h-2.39l1.33-5.61c.11-.43.18-.7.18-.98,0-.79-.44-1.19-1.36-1.19-.77,0-1.62.45-2.78,1.44l-1.47,6.35h-2.39l2.16-9.3Z"/><path d="M92.54,22.74h-1.95l.11-1.33h-.09c-1.09.85-2.35,1.56-3.67,1.56-1.82,0-2.59-.86-2.59-2.36,0-.43.06-.82.18-1.3l1.38-5.87h2.39l-1.33,5.61c-.11.43-.18.7-.18.98,0,.79.45,1.19,1.36,1.19.74,0,1.59-.45,2.7-1.44l1.47-6.35h2.39l-2.16,9.3Z"/><path d="M96.43,13.54l1.45-.1.24-1.07c.44-1.89,1.67-3.23,3.85-3.23.82,0,1.53.19,2.14.48l-.79,1.44c-.28-.14-.69-.3-1.13-.3-.9,0-1.45.48-1.69,1.54l-.27,1.14h2.06l-.37,1.61h-2.08l-1.79,7.7h-2.38l1.82-7.7h-1.41l.36-1.51Z"/><path d="M101.66,19.57c0-3.55,2.85-6.36,5.86-6.36,1.08,0,2.04.52,2.51,1.31h.06l.45-1.08h1.92l-2.19,9.3h-1.95l.11-1.3h-.06c-1.03.92-2.36,1.52-3.6,1.52-1.92,0-3.11-1.2-3.11-3.39ZM108.62,19.73l.89-3.71c-.5-.8-1.17-1.13-1.84-1.13-1.84,0-3.54,2.02-3.54,4.42,0,1.36.63,1.99,1.63,1.99.93,0,1.98-.44,2.87-1.57Z"/><path d="M113.25,19.18c0-3.33,2.87-5.97,6.26-5.97,1.33,0,2.28.53,2.88,1.14l-1.35,1.22c-.51-.48-.95-.71-1.68-.71-1.96,0-3.68,1.94-3.68,4.25,0,1.4.73,2.2,2.21,2.2.85,0,1.5-.34,2.06-.71l1.02,1.28c-.81.52-1.93,1.08-3.59,1.08-2.4,0-4.15-1.38-4.15-3.79Z"/><path d="M123.27,20.7c0-.39.07-.73.14-1.1l1.11-4.55h-1.53l.36-1.51,1.66-.1.87-2.5h2l-.57,2.5h2.62l-.37,1.61h-2.67l-1.11,4.64c-.04.23-.06.43-.06.65,0,.69.36,1.03,1.26,1.03.37,0,.71-.12,1.01-.25l.46,1.44c-.53.19-1.33.42-2.32.42-2.06,0-2.86-.98-2.86-2.27Z"/><path d="M138.06,22.74h-1.95l.11-1.33h-.09c-1.09.85-2.35,1.56-3.67,1.56-1.82,0-2.59-.86-2.59-2.36,0-.43.06-.82.18-1.3l1.38-5.87h2.39l-1.33,5.61c-.11.43-.18.7-.18.98,0,.79.45,1.19,1.36,1.19.74,0,1.59-.45,2.7-1.44l1.47-6.35h2.39l-2.16,9.3Z"/><path d="M142.96,13.44h1.95l-.2,1.8h.09c.86-1.15,2.06-2.02,3.36-2.02.48,0,.82.06,1.09.17l-.8,1.78c-.26-.12-.64-.15-1.01-.15-1.02,0-2.07.69-2.97,2.11l-1.29,5.62h-2.39l2.16-9.3Z"/><path d="M150.6,13.44h2.39l-2.19,9.3h-2.39l2.19-9.3ZM151,10.74c0-.73.72-1.33,1.6-1.33.7,0,1.37.39,1.37,1.07,0,.76-.72,1.31-1.6,1.31-.7,0-1.37-.36-1.37-1.05Z"/><path d="M155.69,13.44h1.95l-.11,1.32h.09c1.15-.85,2.38-1.55,3.75-1.55,1.82,0,2.59.86,2.59,2.36,0,.43-.06.82-.18,1.3l-1.38,5.87h-2.39l1.33-5.61c.11-.43.18-.7.18-.98,0-.79-.44-1.19-1.36-1.19-.77,0-1.62.45-2.78,1.44l-1.47,6.35h-2.39l2.16-9.3Z"/><path d="M164.4,25.58l1.07-1.37c.83.58,1.82,1.04,2.94,1.04,1.65,0,2.67-.87,3.12-2.35l.56-1.81c-1.06.91-2.27,1.45-3.57,1.45-1.85,0-3.18-1.09-3.18-3.26,0-3.37,2.77-6.07,5.73-6.07,1.07,0,2.01.52,2.48,1.31h.06l.45-1.08h1.95l-2.22,9.44c-.63,2.61-2.55,4-5.46,4-1.37,0-2.78-.49-3.93-1.3ZM172.22,19.46l.81-3.45c-.51-.8-1.15-1.13-1.82-1.13-1.79,0-3.41,1.91-3.41,4.12,0,1.26.61,1.86,1.58,1.86.87,0,1.97-.42,2.83-1.41Z"/></svg>