<?xml version="1.0" encoding="UTF-8"?>
<svg id="h" data-name="_x34_._Manufacturing" xmlns="http://www.w3.org/2000/svg" viewBox="0 0 36 36">
  <g id="i" data-name="Page-1">
    <g id="j" data-name="Icon-Set-Filled">
      <path id="k" data-name="settings" d="M11.98,21.76c-2.06-1.25-2.71-3.94-1.45-6.02s3.95-2.75,6.01-1.5,2.71,3.94,1.45,6.02-3.95,2.75-6.01,1.5h0ZM23.18,27.04l-1.13-2.08c.42-.47.82-.98,1.16-1.54s.61-1.15.83-1.74l2.36.04c.97.02,1.77-.76,1.79-1.72l.09-3.51c.02-.97-.74-1.77-1.7-1.78l-2.39-.04c-.4-1.21-.98-2.35-1.8-3.36l.77-1.28c.5-.83.24-1.91-.58-2.41l-2.98-1.81c-.82-.5-1.9-.23-2.4.6l-.77,1.28c-1.27-.26-2.55-.25-3.81-.04l-1.14-2.1c-.46-.85-1.52-1.15-2.37-.68l-3.07,1.7c-.85.47-1.16,1.54-.7,2.38l1.13,2.08c-.42.47-.82.98-1.16,1.54s-.61,1.15-.83,1.74l-2.36-.04c-.96-.02-1.77.76-1.79,1.72l-.09,3.51c-.02.97.74,1.77,1.7,1.78l2.39.04c.4,1.21.98,2.35,1.8,3.36l-.77,1.28c-.5.83-.24,1.91.58,2.41l2.98,1.81c.82.5,1.9.23,2.4-.6l.77-1.28c1.27.26,2.55.25,3.81.04l1.14,2.1c.46.85,1.52,1.15,2.37.68l3.07-1.7c.85-.47,1.16-1.54.7-2.38h0ZM15.62,15.74c-1.24-.75-2.85-.34-3.6.9s-.36,2.86.87,3.61,2.85.35,3.6-.9.36-2.86-.87-3.61h0Z" fill="#fff" fill-rule="evenodd"/>
    </g>
  </g>
</svg>