<?xml version="1.0" encoding="UTF-8"?>
<svg id="h" data-name="_x34_._Manufacturing" xmlns="http://www.w3.org/2000/svg" viewBox="0 0 145.49 30">
  <g id="i" data-name="Page-1">
    <g id="j" data-name="Icon-Set-Filled">
      <path id="k" data-name="settings" d="M12.17,18.65c-2.06-1.25-2.71-3.94-1.45-6.02s3.95-2.75,6.01-1.5,2.71,3.94,1.45,6.02-3.95,2.75-6.01,1.5h0ZM23.37,23.93l-1.13-2.08c.42-.47.82-.98,1.16-1.54s.61-1.15.83-1.74l2.36.04c.97.02,1.77-.76,1.79-1.72l.09-3.51c.02-.97-.74-1.77-1.7-1.78l-2.39-.04c-.4-1.21-.98-2.35-1.8-3.36l.77-1.28c.5-.83.24-1.91-.58-2.41l-2.98-1.81c-.82-.5-1.9-.23-2.4.6l-.77,1.28c-1.27-.26-2.55-.25-3.81-.04l-1.14-2.1c-.46-.85-1.52-1.15-2.37-.68l-3.07,1.7c-.85.47-1.16,1.54-.7,2.38l1.13,2.08c-.42.47-.82.98-1.16,1.54s-.61,1.15-.83,1.74l-2.36-.04c-.96-.02-1.77.76-1.79,1.72l-.09,3.51c-.02.97.74,1.77,1.7,1.78l2.39.04c.4,1.21.98,2.35,1.8,3.36l-.77,1.28c-.5.83-.24,1.91.58,2.41l2.98,1.81c.82.5,1.9.23,2.4-.6l.77-1.28c1.27.26,2.55.25,3.81.04l1.14,2.1c.46.85,1.52,1.15,2.37.68l3.07-1.7c.85-.47,1.16-1.54.7-2.38h0ZM15.81,12.63c-1.24-.75-2.85-.34-3.6.9s-.36,2.86.87,3.61,2.85.35,3.6-.9.36-2.86-.87-3.61h0Z" fill="#fff" fill-rule="evenodd"/>
    </g>
  </g>
  <g>
    <path d="M42.86,8.23v14.27h-3.13v-9.63s-1.25,9.63-1.25,9.63h-2.22l-1.31-9.41v9.41h-3.13v-14.27h4.63c.14.86.28,1.87.42,3.03l.51,3.63.82-6.66h4.66Z" fill="#fff"/>
    <path d="M50.31,8.23l2.05,14.27h-3.66l-.19-2.56h-1.28l-.22,2.56h-3.7l1.83-14.27h5.17ZM48.41,17.4c-.18-1.62-.36-3.61-.55-5.99-.36,2.73-.59,4.73-.69,5.99h1.23Z" fill="#fff"/>
    <path d="M60.78,8.23v14.27h-3.14l-1.86-6.49v6.49h-2.99v-14.27h2.99l2.01,6.42v-6.42h2.99Z" fill="#fff"/>
    <path d="M70.17,8.23v9.53c0,1.08-.03,1.84-.1,2.28-.07.44-.27.89-.6,1.35-.33.46-.78.81-1.32,1.05-.55.24-1.19.36-1.93.36-.82,0-1.55-.14-2.18-.42-.63-.28-1.1-.65-1.41-1.1-.31-.45-.5-.93-.55-1.43-.06-.5-.08-1.56-.08-3.17v-8.44h3.58v10.7c0,.62.03,1.02.1,1.19.06.17.2.26.4.26.23,0,.37-.1.44-.29.06-.19.1-.64.1-1.35v-10.51h3.58Z" fill="#fff"/>
    <path d="M71.38,8.23h6.06v2.85h-2.48v2.71h2.21v2.71h-2.21v5.99h-3.58v-14.27Z" fill="#fff"/>
    <path d="M83.98,8.23l2.05,14.27h-3.66l-.19-2.56h-1.28l-.22,2.56h-3.7l1.83-14.27h5.17ZM82.08,17.4c-.18-1.62-.36-3.61-.55-5.99-.36,2.73-.59,4.73-.69,5.99h1.23Z" fill="#fff"/>
    <path d="M94.81,14.44h-3.58v-2.48c0-.72-.04-1.17-.11-1.35-.08-.18-.25-.27-.51-.27-.29,0-.48.11-.56.33-.08.22-.12.69-.12,1.41v6.63c0,.69.04,1.15.12,1.36.08.21.26.32.54.32s.44-.11.52-.32c.08-.21.12-.71.12-1.49v-1.79h3.58v.56c0,1.48-.1,2.52-.3,3.14-.2.62-.65,1.16-1.33,1.62-.69.46-1.54.7-2.55.7s-1.91-.2-2.59-.59c-.68-.39-1.13-.94-1.35-1.63-.22-.7-.33-1.74-.33-3.14v-4.17c0-1.03.03-1.8.1-2.31.07-.51.27-1.01.61-1.48.34-.48.8-.85,1.4-1.12s1.28-.41,2.06-.41c1.05,0,1.92.21,2.61.63.69.42,1.14.95,1.35,1.58.22.63.32,1.61.32,2.94v1.36Z" fill="#fff"/>
    <path d="M103.13,8.23v2.85h-2.12v11.41h-3.58v-11.41h-2.12v-2.85h7.82Z" fill="#fff"/>
    <path d="M111.91,8.23v9.53c0,1.08-.03,1.84-.1,2.28-.07.44-.27.89-.6,1.35-.33.46-.78.81-1.32,1.05-.55.24-1.19.36-1.93.36-.82,0-1.55-.14-2.18-.42-.63-.28-1.1-.65-1.41-1.1-.31-.45-.5-.93-.55-1.43-.06-.5-.08-1.56-.08-3.17v-8.44h3.58v10.7c0,.62.03,1.02.1,1.19.06.17.2.26.4.26.23,0,.37-.1.44-.29.06-.19.1-.64.1-1.35v-10.51h3.58Z" fill="#fff"/>
    <path d="M113.12,8.23h2.53c1.69,0,2.83.07,3.43.2.6.14,1.08.48,1.46,1.04.38.56.57,1.44.57,2.66,0,1.11-.13,1.86-.4,2.24-.27.38-.79.61-1.57.69.71.18,1.18.43,1.43.73s.4.59.45.84c.06.26.09.96.09,2.11v3.76h-3.32v-4.74c0-.76-.06-1.24-.17-1.42-.12-.18-.42-.27-.91-.27v6.43h-3.58v-14.27ZM116.7,10.67v3.17c.4,0,.68-.06.85-.17.16-.11.24-.49.24-1.11v-.78c0-.45-.08-.75-.23-.89s-.44-.21-.85-.21Z" fill="#fff"/>
    <path d="M125.9,8.23v14.27h-3.58v-14.27h3.58Z" fill="#fff"/>
    <path d="M135.15,8.23v14.27h-3.14l-1.86-6.49v6.49h-2.99v-14.27h2.99l2.01,6.42v-6.42h2.99Z" fill="#fff"/>
    <path d="M144.63,13.48h-3.58v-1.3c0-.82-.03-1.33-.1-1.53-.07-.21-.23-.31-.48-.31-.22,0-.37.09-.45.26-.08.18-.12.63-.12,1.36v6.85c0,.64.04,1.06.12,1.26.08.2.24.3.48.3.26,0,.44-.11.53-.34s.14-.68.14-1.34v-1.69h-.72v-2.17h4.19v7.66h-2.25l-.33-1.02c-.24.44-.55.77-.92.99-.37.22-.81.33-1.31.33-.6,0-1.16-.15-1.69-.45s-.92-.68-1.2-1.12c-.27-.45-.44-.91-.51-1.41-.07-.49-.1-1.23-.1-2.21v-4.24c0-1.36.07-2.35.21-2.97s.55-1.18,1.22-1.7c.67-.51,1.54-.77,2.61-.77s1.92.22,2.61.67c.69.45,1.14.98,1.35,1.59.21.61.31,1.51.31,2.67v.62Z" fill="#fff"/>
  </g>
</svg>