<?xml version="1.0" encoding="UTF-8"?><svg id="k" xmlns="http://www.w3.org/2000/svg" viewBox="0 0 184 36"><path d="M20.62,18c0,1.48-1.2,2.68-2.68,2.68s-2.68-1.2-2.68-2.68,1.2-2.68,2.68-2.68,2.68,1.2,2.68,2.68Z" fill="none" stroke="#fff" stroke-linecap="round" stroke-linejoin="round" stroke-width="2"/><path d="M14.05,11.91l-.07.82c-.04.43-.05.64-.15.81-.08.15-.2.27-.35.35-.17.09-.38.11-.81.15l-.82.07c-.92.08-1.38.11-1.6.32-.2.18-.3.44-.28.71.02.31.33.65.94,1.34l.51.57c.3.34.45.5.51.69.05.17.05.35,0,.51-.06.19-.21.36-.51.69l-.51.57c-.61.69-.92,1.03-.94,1.34-.02.27.09.53.28.71.23.21.69.25,1.6.32l.82.07c.43.04.64.05.81.15.15.08.27.2.35.35.09.17.11.38.15.81l.07.82c.08.92.11,1.38.32,1.6.18.2.44.3.71.28.31-.02.65-.33,1.34-.94l.57-.51c.34-.3.5-.45.69-.51.17-.05.35-.05.51,0,.19.06.36.21.69.51l.57.51c.69.61,1.03.92,1.34.94.27.02.53-.09.71-.28.21-.23.25-.69.32-1.6l.07-.82c.04-.43.05-.64.15-.81.08-.15.2-.27.35-.35.17-.09.38-.11.81-.15l.82-.07c.92-.08,1.38-.11,1.6-.32.2-.18.3-.44.28-.71-.02-.31-.33-.65-.94-1.34l-.51-.57c-.3-.34-.45-.5-.51-.69-.05-.17-.05-.35,0-.51.06-.19.21-.36.51-.69l.51-.57c.61-.69.92-1.03.94-1.34.02-.27-.09-.53-.28-.71-.23-.21-.69-.25-1.6-.32l-.82-.07c-.43-.04-.64-.05-.81-.15-.15-.08-.27-.2-.35-.35-.09-.17-.11-.38-.15-.81l-.07-.82c-.08-.92-.11-1.38-.32-1.6-.18-.2-.44-.3-.71-.28-.31.02-.65.33-1.34.94l-.57.51c-.34.3-.5.45-.69.51-.17.05-.35.05-.51,0-.19-.06-.36-.21-.69-.51l-.57-.51c-.69-.61-1.03-.92-1.34-.94-.27-.02-.53.09-.71.28-.21.23-.25.69-.32,1.6Z" fill="none" stroke="#fff" stroke-linecap="round" stroke-linejoin="round" stroke-width="2"/><path d="M55.12,25.56c-.32.75-.72,1.01-1.44,1.01s-1.13-.26-1.44-1.04l-3.4-8.35c-.65-1.59-1.73-4.78-2.16-6.15.07,1.43.34,5.42.34,8.53v6.13c0,.59-.43.88-1.06.88s-1.04-.29-1.04-.88v-15.25c0-.79.59-1.3,1.44-1.3.99,0,1.46.35,1.8,1.17l4.14,10.18c.45,1.08,1.19,3.15,1.4,4.1.23-.97.9-2.89,1.42-4.14l4.08-10.09c.36-.88.88-1.21,1.87-1.21.83,0,1.42.51,1.42,1.3v15.25c0,.59-.45.88-1.04.88s-1.06-.29-1.06-.88v-6.1c0-3.13.27-7.07.36-8.57-.43,1.41-1.53,4.56-2.14,6.06l-3.49,8.48Z" fill="#fff"/><path d="M72.14,17.7c0-1.45-.81-2.09-2.59-2.09-1.64,0-2.46.62-2.84,1.63-.16.42-.5.57-.88.57-.18,0-.36-.02-.52-.09-.43-.13-.74-.44-.74-.84,0-.09.02-.18.05-.26.23-.68.81-1.32,1.33-1.72.79-.59,1.8-.97,3.63-.97,3.02,0,4.5,1.17,4.5,3.77v6.02c0,.77.11,1.52.25,1.94.02.07.05.15.05.22,0,.35-.34.66-.9.71h-.2c-.45,0-.86-.13-.95-.53-.07-.26-.11-.66-.14-1.1-.86.95-2.05,1.81-4.28,1.81-2.48,0-3.99-1.37-3.99-3.64,0-2.07,1.26-3.39,3.4-3.97,1.24-.33,2.41-.46,4.82-.51v-.95ZM72.14,20.23c-2.64.07-3.87.29-4.77.73s-1.37,1.12-1.37,2.18c0,1.15.9,1.92,2.25,1.92,1.42,0,2.59-.68,3.31-1.56.43-.53.59-.95.59-1.78v-1.48Z" fill="#fff"/><path d="M86.26,25.69c0,.59-.45.88-1.04.88s-1.04-.29-1.04-.88v-7.05c0-1.87-.77-2.93-2.45-2.93-1.22,0-2.23.53-3,1.56-.56.75-.79,1.39-.79,2.25v6.17c0,.59-.43.88-1.01.88-.63,0-1.04-.29-1.04-.88v-10.73c0-.57.43-.86,1.06-.86.59,0,.99.29.99.86v.59c0,.29-.07.51-.09.93.79-1.56,2.14-2.56,4.28-2.56,2.68,0,4.12,1.59,4.12,4.3v7.47Z" fill="#fff"/><path d="M87.81,14.99c0-.59.43-.88,1.04-.88s1.04.29,1.04.88v7.05c0,1.89.79,2.95,2.45,2.95,1.19,0,2.16-.55,2.93-1.59.54-.75.77-1.43.77-2.29v-6.13c0-.59.43-.88,1.04-.88s1.01.29,1.01.88v10.71c0,.59-.41.88-.99.88s-1.04-.26-1.04-.82v-.62c0-.24.07-.68.14-1.04-.7,1.54-2,2.67-4.26,2.67-2.66,0-4.12-1.63-4.12-4.32v-7.47Z" fill="#fff"/><path d="M101.3,12.65c0-2.84,1.78-3.61,3.49-3.61.74,0,1.31.04,1.94.24.43.13.61.46.61.79,0,.15-.02.29-.09.42-.14.37-.45.66-.86.66-.11,0-.23-.02-.36-.07-.38-.15-.77-.22-1.24-.22-.83,0-1.46.44-1.46,2.03v1.34h2.7c.56,0,.83.37.83.9s-.29.84-.83.84h-2.7v9.72c0,.59-.43.88-1.01.88s-1.01-.29-1.01-.88v-9.72h-1.91c-.54,0-.81-.33-.81-.84s.25-.9.81-.9h1.91v-1.59Z" fill="#fff"/><path d="M114.88,17.7c0-1.45-.81-2.09-2.59-2.09-1.64,0-2.45.62-2.84,1.63-.16.42-.5.57-.88.57-.18,0-.36-.02-.52-.09-.43-.13-.74-.44-.74-.84,0-.09.02-.18.05-.26.23-.68.81-1.32,1.33-1.72.79-.59,1.8-.97,3.63-.97,3.02,0,4.5,1.17,4.5,3.77v6.02c0,.77.11,1.52.25,1.94.02.07.04.15.04.22,0,.35-.34.66-.9.71h-.2c-.45,0-.86-.13-.95-.53-.07-.26-.11-.66-.14-1.1-.86.95-2.05,1.81-4.28,1.81-2.48,0-3.99-1.37-3.99-3.64,0-2.07,1.26-3.39,3.4-3.97,1.24-.33,2.41-.46,4.82-.51v-.95ZM114.88,20.23c-2.64.07-3.87.29-4.77.73s-1.37,1.12-1.37,2.18c0,1.15.9,1.92,2.25,1.92,1.42,0,2.59-.68,3.31-1.56.43-.53.59-.95.59-1.78v-1.48Z" fill="#fff"/><path d="M123.73,13.91c2.97,0,4.19,1.61,4.75,3,.04.11.07.24.07.33,0,.42-.34.68-.68.82-.16.04-.34.07-.5.07-.34,0-.63-.13-.79-.51-.43-1.12-1.1-1.98-2.82-1.98-2.34,0-3.63,1.94-3.63,4.74s1.26,4.72,3.65,4.72c1.76,0,2.45-.84,2.88-2.03.16-.42.47-.59.83-.59.16,0,.32.02.47.09.41.09.72.35.72.75,0,.13-.02.24-.09.4-.61,1.52-1.8,3.11-4.86,3.11-3.65,0-5.7-2.62-5.7-6.41s1.98-6.48,5.68-6.48Z" fill="#fff"/><path d="M130.91,11.57c0-.57.38-.88,1.01-.88.59,0,1.01.31,1.01.88v2.67h2.88c.56,0,.83.35.83.88s-.29.86-.83.86h-2.88v7.38c0,1.08.47,1.54,1.31,1.54.56,0,.95-.15,1.33-.37.14-.07.27-.11.41-.11.34,0,.61.24.74.57.07.15.09.33.09.48,0,.31-.14.62-.47.79-.65.31-1.26.48-2.23.48-1.85,0-3.2-.9-3.2-3.22v-7.56h-1.76c-.54,0-.79-.35-.79-.86s.25-.88.81-.88h1.73v-2.67Z" fill="#fff"/><path d="M137.06,14.99c0-.59.43-.88,1.04-.88s1.04.29,1.04.88v7.05c0,1.89.79,2.95,2.45,2.95,1.19,0,2.16-.55,2.93-1.59.54-.75.77-1.43.77-2.29v-6.13c0-.59.43-.88,1.04-.88s1.01.29,1.01.88v10.71c0,.59-.41.88-.99.88s-1.04-.26-1.04-.82v-.62c0-.24.07-.68.14-1.04-.7,1.54-2,2.67-4.26,2.67-2.66,0-4.12-1.63-4.12-4.32v-7.47Z" fill="#fff"/><path d="M149.35,14.96c0-.57.43-.86,1.06-.86.56,0,1.01.29,1.01.86v.48c0,.31-.09.68-.14,1.04.36-1.06,1.51-2.42,3.45-2.49.18-.02.34-.02.5-.02.34,0,.59.04.9.11.52.07.72.37.72.79,0,.11-.02.24-.04.37-.09.46-.41.86-.88.86-.07,0-.14,0-.2-.02-.32-.07-.61-.13-1.08-.13-.97.02-1.71.51-2.27,1.21-.59.71-.92,1.52-.95,2.45v6.08c0,.59-.45.88-1.01.88-.63,0-1.06-.29-1.06-.88v-10.73Z" fill="#fff"/><path d="M159.77,10.6c0,.86-.68,1.5-1.51,1.5s-1.53-.64-1.53-1.5.68-1.48,1.53-1.48,1.51.64,1.51,1.48ZM157.23,14.96c0-.57.38-.86,1.01-.86s1.04.29,1.04.86v10.73c0,.59-.43.88-1.04.88s-1.01-.29-1.01-.88v-10.73Z" fill="#fff"/><path d="M171.33,25.69c0,.59-.45.88-1.04.88s-1.04-.29-1.04-.88v-7.05c0-1.87-.77-2.93-2.46-2.93-1.22,0-2.23.53-3,1.56-.56.75-.79,1.39-.79,2.25v6.17c0,.59-.43.88-1.01.88-.63,0-1.04-.29-1.04-.88v-10.73c0-.57.43-.86,1.06-.86.59,0,.99.29.99.86v.59c0,.29-.07.51-.09.93.79-1.56,2.14-2.56,4.28-2.56,2.68,0,4.12,1.59,4.12,4.3v7.47Z" fill="#fff"/><path d="M181.71,14.9c0-.46.32-.79.97-.79.61,0,.97.29.97.88v10.2c0,5.07-2.73,6.21-5.7,6.21-2.43,0-3.99-.79-4.84-1.87-.11-.15-.18-.31-.18-.48,0-.29.16-.57.43-.77.18-.13.43-.22.65-.22.25,0,.47.09.65.29.83.95,1.82,1.41,3.2,1.41,2.82,0,3.83-1.39,3.85-4.65,0-.26.04-.75.09-1.06-.74,1.39-2.03,2.36-4.01,2.36-3.2,0-5.43-2.42-5.43-6.1s2-6.35,5.47-6.35c2.05,0,3.33,1.1,3.96,2.51-.02-.24-.09-.66-.09-.9v-.66ZM174.43,20.3c0,2.8,1.53,4.49,3.63,4.49,2.3,0,3.69-1.92,3.69-4.65s-1.37-4.52-3.67-4.52-3.65,1.83-3.65,4.67Z" fill="#fff"/></svg>