<?xml version="1.0" encoding="UTF-8"?>
<svg id="l" data-name="_x36_._Retail" xmlns="http://www.w3.org/2000/svg" viewBox="0 0 36 36">
  <circle cx="17.86" cy="18.14" r="17.86" fill="#fff"/>
  <path d="M13.06,14.74l.98-6.5h-5.09l-2.13,5.57c-.07.2-.1.4-.1.62,0,1.37,1.42,2.48,3.18,2.48,1.62,0,2.96-.95,3.16-2.17ZM17.86,16.9c1.76,0,3.18-1.11,3.18-2.48,0-.05,0-.1,0-.15l-.63-6.04h-5.09l-.63,6.03c0,.05,0,.1,0,.15,0,1.37,1.42,2.48,3.18,2.48ZM24.05,18.2v4.89h-12.38v-4.89c-.54.2-1.14.31-1.77.31-.24,0-.48-.03-.71-.06v7.86c0,.95.78,1.73,1.73,1.73h13.87c.95,0,1.73-.78,1.73-1.73v-7.86c-.23.04-.47.06-.71.06-.6,0-1.2-.11-1.77-.32ZM28.9,13.81l-2.13-5.57h-5.09l.98,6.49c.19,1.23,1.53,2.18,3.16,2.18,1.76,0,3.18-1.11,3.18-2.48,0-.22-.03-.42-.1-.62Z" fill="#231f20"/>
</svg>