<?xml version="1.0" encoding="UTF-8"?><svg id="k" xmlns="http://www.w3.org/2000/svg" viewBox="0 0 36 36"><path d="M21.99,19.97c0-.55-.45-1-1-1s-1,.45-1,1h2ZM11.99,15.97c0-.55-.45-1-1-1s-1,.45-1,1h2ZM11.81,25.81l-.45.89h0l.45-.89ZM11.16,25.15l.89-.45h0l-.89.45ZM20.83,25.15l-.89-.45h0l.89.45ZM20.17,25.81l-.45-.89h0l.45.89ZM11.55,10.85l.89.45h0l-.89-.45ZM9.57,14.81l-.89-.45h0l.89.45ZM26.41,14.81l-.89.45h0l.89-.45ZM24.44,10.85l.89-.45h0l-.89.45ZM24.07,10.25l-.7.71h0l.7-.71ZM23.7,10.02l.33-.95h0l-.33.95ZM26.47,15.88l-.57-.82h0l.57.82ZM26.68,15.54l.99.15h0s-.99-.15-.99-.15ZM9.31,15.54l-.99.15.99-.15ZM9.52,15.88l-.57.82h0l.57-.82ZM11.91,10.25l-.7-.71h0l.7.71ZM12.29,10.02l.33.95h0l-.33-.95ZM25.99,15.97c0-.55-.45-1-1-1s-1,.45-1,1h2ZM23.99,25.97c0,.55.45,1,1,1s1-.45,1-1h-2ZM10.99,20.97c-.55,0-1,.45-1,1s.45,1,1,1v-2ZM20.99,22.97c.55,0,1-.45,1-1s-.45-1-1-1v2ZM19.99,19.97v3.6h2v-3.6h-2ZM18.59,24.97h-5.2v2h5.2v-2ZM11.99,23.57v-7.6h-2v7.6h2ZM13.39,24.97c-.44,0-.7,0-.9-.02-.09,0-.15-.02-.18-.03-.02,0-.03,0-.03,0,0,0,0,0,0,0l-.91,1.78c.32.17.66.22.97.25.3.02.66.02,1.07.02v-2ZM9.99,23.57c0,.4,0,.77.02,1.07.03.31.08.64.25.97l1.78-.91s0,0,0,0c0,0,0-.02,0-.03,0-.03-.02-.09-.03-.18-.02-.2-.02-.47-.02-.9h-2ZM12.27,24.91c-.09-.05-.17-.12-.22-.22l-1.78.91c.24.47.62.85,1.09,1.09l.91-1.78ZM19.99,23.57c0,.44,0,.7-.02.9,0,.09-.02.15-.03.18,0,.02,0,.03,0,.03,0,0,0,0,0,0l1.78.91c.17-.32.22-.66.25-.97.02-.3.02-.66.02-1.07h-2ZM18.59,26.97c.4,0,.77,0,1.07-.02.31-.03.64-.08.97-.25l-.91-1.78s0,0,0,0c0,0-.02,0-.03,0-.03,0-.09.02-.18.03-.2.02-.47.02-.9.02v2ZM19.94,24.7c-.05.09-.12.17-.22.22l.91,1.78c.47-.24.85-.62,1.09-1.09l-1.78-.91ZM10.66,10.41l-1.98,3.96,1.79.89,1.98-3.96-1.79-.89ZM10.29,16.97h15.41v-2h-15.41v2ZM27.31,14.36l-1.98-3.96-1.79.89,1.98,3.96,1.79-.89ZM23,8.97h-10.02v2h10.02v-2ZM25.33,10.41c-.13-.26-.29-.6-.56-.87l-1.4,1.43s-.03-.04,0,.01c.04.06.08.15.17.32l1.79-.89ZM23,10.97c.19,0,.29,0,.36,0,.06,0,.05,0,0,0l.65-1.89c-.35-.12-.74-.11-1.02-.11v2ZM24.77,9.54c-.21-.21-.47-.37-.75-.46l-.65,1.89h0l1.4-1.43ZM25.7,16.97c.19,0,.41,0,.59-.02.18-.02.48-.06.76-.26l-1.15-1.64c.08-.05.15-.08.19-.09.03,0,.05,0,.02,0-.03,0-.07,0-.14,0-.07,0-.16,0-.27,0v2ZM25.52,15.26c.05.1.09.17.12.24.03.07.05.1.06.13,0,.02,0,.01,0-.02,0-.04-.02-.11,0-.21l1.98.29c.05-.34-.04-.62-.11-.79-.07-.17-.16-.36-.25-.53l-1.79.89ZM27.04,16.7c.34-.24.56-.6.62-1.01l-1.98-.29c.02-.14.1-.26.21-.34l1.15,1.64ZM8.68,14.36c-.09.17-.18.37-.25.53-.07.17-.16.45-.11.79l1.98-.29c.01.09,0,.17,0,.21,0,.04-.01.05,0,.02,0-.02.03-.06.06-.13.03-.06.07-.14.12-.24l-1.79-.89ZM10.29,14.97c-.11,0-.19,0-.27,0-.07,0-.12,0-.14,0-.03,0-.01,0,.02,0,.04.01.11.04.19.09l-1.15,1.64c.28.2.58.24.76.26.18.02.39.02.59.02v-2ZM8.32,15.69c.06.41.29.77.62,1.01l1.15-1.64c.11.08.19.2.21.34l-1.98.29ZM12.45,11.3c.09-.17.13-.26.17-.32.03-.05.03-.04,0-.01l-1.4-1.43c-.27.26-.43.61-.56.87l1.79.89ZM12.98,8.97c-.29,0-.67-.01-1.02.11l.65,1.89s-.05,0,0,0c.07,0,.17,0,.36,0v-2ZM12.61,10.97h0l-.65-1.89c-.28.1-.54.25-.75.46l1.4,1.43ZM23.99,15.97v10h2v-10h-2ZM10.99,22.97h10v-2h-10v2Z" fill="#fff"/></svg>