<?xml version="1.0" encoding="UTF-8"?>
<svg id="l" data-name="_x36_._Retail" xmlns="http://www.w3.org/2000/svg" viewBox="0 0 184 36">
  <circle cx="18" cy="18" r="18"/>
  <path d="M13.16,14.57l.99-6.55h-5.13l-2.14,5.61c-.07.2-.1.41-.1.62,0,1.38,1.43,2.5,3.21,2.5,1.63,0,2.99-.95,3.18-2.18ZM18,16.75c1.77,0,3.21-1.12,3.21-2.5,0-.05,0-.1,0-.15l-.64-6.09h-5.13l-.64,6.08c0,.05,0,.1,0,.16,0,1.38,1.44,2.5,3.21,2.5ZM24.24,18.06v4.93h-12.48v-4.93c-.55.2-1.15.31-1.78.31-.24,0-.48-.03-.71-.06v7.92c0,.96.78,1.75,1.74,1.75h13.98c.96,0,1.75-.79,1.75-1.75v-7.92c-.24.04-.47.06-.71.06-.61,0-1.21-.11-1.78-.32ZM29.13,13.63l-2.15-5.61h-5.13l.99,6.54c.19,1.24,1.54,2.19,3.19,2.19,1.77,0,3.21-1.12,3.21-2.5,0-.22-.03-.42-.1-.62Z" fill="#fff"/>
  <g>
    <path d="M47.7,6.41h7.69c1.43,0,2.75.18,3.96.55,1.21.37,2.27.91,3.16,1.63.89.72,1.59,1.6,2.09,2.65.5,1.05.75,2.26.75,3.62,0,1.08-.16,2-.47,2.76-.31.76-.66,1.39-1.04,1.89-.45.56-.95,1.04-1.5,1.43l4.18,7.15h-8.35l-3.34-5.49v5.49h-7.12V6.41ZM54.65,20.55c.87,0,1.72-.09,2.54-.26l3.17,5.2h1.04l-3.34-5.46c1.2-.41,2.16-1.05,2.87-1.9.71-.86,1.07-1.97,1.07-3.33,0-.95-.19-1.79-.57-2.5-.38-.72-.9-1.32-1.55-1.8-.66-.49-1.43-.86-2.32-1.11-.89-.25-1.86-.37-2.91-.37h-3.61v16.48h.87v-4.94h2.74ZM51.91,19.77v-9.98h2.74c2.03,0,3.61.43,4.76,1.3,1.15.87,1.72,2.1,1.72,3.71s-.57,2.83-1.72,3.69c-1.15.86-2.73,1.28-4.76,1.28h-2.74ZM54.81,17.07h.37c.85,0,1.56-.18,2.16-.55.59-.37.89-.99.89-1.85s-.3-1.48-.89-1.85c-.59-.37-1.31-.55-2.16-.55h-.37v4.81Z"/>
    <path d="M69.68,6.41h13.13v5.69h-6.02v2.41h5.91v5.4h-5.91v2.5h6.25v5.69h-13.37V6.41ZM80.58,25.49v-.78h-6.68v-7.12h6.35v-.78h-6.35v-7.02h6.68v-.78h-7.55v16.48h7.55Z"/>
    <path d="M90.5,12.1h-4.11v-5.69h15.57v5.69h-4.11v15.99h-7.35v-15.99ZM94.61,25.49v-15.7h4.78v-.78h-10.43v.78h4.78v15.7h.87Z"/>
    <path d="M112.26,6.41h5.35l8.45,21.68h-7.02l-.74-1.95h-6.75l-.74,1.95h-7.02l8.45-21.68ZM108.78,25.49l.64-1.63h11.03l.64,1.63h.94l-6.45-16.48h-1.27l-6.45,16.48h.94ZM114.93,9.79l5.21,13.29h-10.43l5.21-13.29ZM116.43,21.36l-1.5-3.8-1.5,3.8h3.01Z"/>
    <path d="M129.06,6.41h7.55v21.68h-7.55V6.41ZM133.27,25.49V9.01h-.87v16.48h.87Z"/>
    <path d="M141.46,6.41h7.42v15.99h6.15v5.69h-13.57V6.41ZM153.16,25.49v-.78h-7.49v-15.7h-.87v16.48h8.35Z"/>
  </g>
</svg>