<?xml version="1.0" encoding="UTF-8"?><svg id="k" xmlns="http://www.w3.org/2000/svg" viewBox="0 0 184 36"><path d="M22.01,19.97c0-.55-.45-1-1-1s-1,.45-1,1h2ZM12.01,15.97c0-.55-.45-1-1-1s-1,.45-1,1h2ZM11.83,25.81l-.45.89h0l.45-.89ZM11.17,25.15l.89-.45h0l-.89.45ZM20.85,25.15l-.89-.45h0l.89.45ZM20.19,25.81l-.45-.89h0l.45.89ZM11.57,10.85l.89.45h0l-.89-.45ZM9.59,14.81l-.89-.45h0l.89.45ZM26.43,14.81l-.89.45h0l.89-.45ZM24.45,10.85l.89-.45h0l-.89.45ZM24.09,10.25l-.7.71h0l.7-.71ZM23.72,10.02l.33-.95h0l-.33.95ZM26.49,15.88l-.57-.82h0l.57.82ZM26.7,15.54l.99.15h0s-.99-.15-.99-.15ZM9.32,15.54l-.99.15.99-.15ZM9.53,15.88l-.57.82h0l.57-.82ZM11.93,10.25l-.7-.71h0l.7.71ZM12.3,10.02l.33.95h0l-.33-.95ZM26.01,15.97c0-.55-.45-1-1-1s-1,.45-1,1h2ZM24.01,25.97c0,.55.45,1,1,1s1-.45,1-1h-2ZM11.01,20.97c-.55,0-1,.45-1,1s.45,1,1,1v-2ZM21.01,22.97c.55,0,1-.45,1-1s-.45-1-1-1v2ZM20.01,19.97v3.6h2v-3.6h-2ZM18.61,24.97h-5.2v2h5.2v-2ZM12.01,23.57v-7.6h-2v7.6h2ZM13.41,24.97c-.44,0-.7,0-.9-.02-.09,0-.15-.02-.18-.03-.02,0-.03,0-.03,0,0,0,0,0,0,0l-.91,1.78c.32.17.66.22.97.25.3.02.66.02,1.07.02v-2ZM10.01,23.57c0,.4,0,.77.02,1.07.03.31.08.64.25.97l1.78-.91s0,0,0,0c0,0,0-.02,0-.03,0-.03-.02-.09-.03-.18-.02-.2-.02-.47-.02-.9h-2ZM12.28,24.91c-.09-.05-.17-.12-.22-.22l-1.78.91c.24.47.62.85,1.09,1.09l.91-1.78ZM20.01,23.57c0,.44,0,.7-.02.9,0,.09-.02.15-.03.18,0,.02,0,.03,0,.03,0,0,0,0,0,0l1.78.91c.17-.32.22-.66.25-.97.02-.3.02-.66.02-1.07h-2ZM18.61,26.97c.4,0,.77,0,1.07-.02.31-.03.64-.08.97-.25l-.91-1.78s0,0,0,0c0,0-.02,0-.03,0-.03,0-.09.02-.18.03-.2.02-.47.02-.9.02v2ZM19.96,24.7c-.05.09-.12.17-.22.22l.91,1.78c.47-.24.85-.62,1.09-1.09l-1.78-.91ZM10.67,10.41l-1.98,3.96,1.79.89,1.98-3.96-1.79-.89ZM10.3,16.97h15.41v-2h-15.41v2ZM27.33,14.36l-1.98-3.96-1.79.89,1.98,3.96,1.79-.89ZM23.02,8.97h-10.02v2h10.02v-2ZM25.35,10.41c-.13-.26-.29-.6-.56-.87l-1.4,1.43s-.03-.04,0,.01c.04.06.08.15.17.32l1.79-.89ZM23.02,10.97c.19,0,.29,0,.36,0,.06,0,.05,0,0,0l.65-1.89c-.35-.12-.74-.11-1.02-.11v2ZM24.79,9.54c-.21-.21-.47-.37-.75-.46l-.65,1.89h0l1.4-1.43ZM25.72,16.97c.19,0,.41,0,.59-.02.18-.02.48-.06.76-.26l-1.15-1.64c.08-.05.15-.08.19-.09.03,0,.05,0,.02,0-.03,0-.07,0-.14,0-.07,0-.16,0-.27,0v2ZM25.54,15.26c.05.1.09.17.12.24.03.07.05.1.06.13,0,.02,0,.01,0-.02,0-.04-.02-.11,0-.21l1.98.29c.05-.34-.04-.62-.11-.79-.07-.17-.16-.36-.25-.53l-1.79.89ZM27.06,16.7c.34-.24.56-.6.62-1.01l-1.98-.29c.02-.14.1-.26.21-.34l1.15,1.64ZM8.69,14.36c-.09.17-.18.37-.25.53-.07.17-.16.45-.11.79l1.98-.29c.01.09,0,.17,0,.21,0,.04-.01.05,0,.02,0-.02.03-.06.06-.13.03-.06.07-.14.12-.24l-1.79-.89ZM10.3,14.97c-.11,0-.19,0-.27,0-.07,0-.12,0-.14,0-.03,0-.01,0,.02,0,.04.01.11.04.19.09l-1.15,1.64c.28.2.58.24.76.26.18.02.39.02.59.02v-2ZM8.34,15.69c.06.41.29.77.62,1.01l1.15-1.64c.11.08.19.2.21.34l-1.98.29ZM12.46,11.3c.09-.17.13-.26.17-.32.03-.05.03-.04,0-.01l-1.4-1.43c-.27.26-.43.61-.56.87l1.79.89ZM13,8.97c-.29,0-.67-.01-1.02.11l.65,1.89s-.05,0,0,0c.07,0,.17,0,.36,0v-2ZM12.63,10.97h0l-.65-1.89c-.28.1-.54.25-.75.46l1.4,1.43ZM24.01,15.97v10h2v-10h-2ZM11.01,22.97h10v-2h-10v2Z"/><path d="M45.03,26.93V9.04h5.29c2.14,0,3.83.45,5.09,1.34,1.25.9,1.88,2.11,1.88,3.64,0,1.04-.31,1.94-.92,2.7-.61.76-1.5,1.33-2.65,1.7.68.38,1.34.89,1.98,1.54.64.65,1.55,1.78,2.72,3.39.74,1.02,1.33,1.78,1.77,2.29l1.12,1.28h-3.6l-.92-1.18s-.09-.12-.18-.22l-.59-.7-.94-1.31-1.01-1.4c-.62-.73-1.2-1.32-1.72-1.75-.52-.43-.99-.75-1.41-.94s-1.12-.29-2.11-.29h-.79v7.79h-3.02ZM48.96,11.21h-.91v5.65h1.15c1.53,0,2.58-.11,3.15-.33.57-.22,1.01-.56,1.33-1.01.32-.45.48-.96.48-1.53s-.18-1.07-.53-1.53c-.35-.46-.85-.78-1.49-.97-.64-.19-1.7-.28-3.18-.28Z"/><path d="M75.43,21.24h-9.78c.07,1.13.52,2.02,1.34,2.69.82.67,1.88,1,3.18,1,1.81,0,3.49-.48,5.02-1.43v2.28c-.85.48-1.69.82-2.52,1.02-.83.21-1.81.31-2.93.31-1.53,0-2.77-.27-3.72-.81-.95-.54-1.71-1.26-2.28-2.17s-.85-1.96-.85-3.16c0-1.79.6-3.25,1.8-4.37,1.2-1.12,2.76-1.68,4.67-1.68s3.32.55,4.41,1.64c1.1,1.09,1.65,2.56,1.65,4.39v.29ZM65.71,19.84h7c-.07-.93-.4-1.65-.98-2.15-.58-.5-1.37-.76-2.36-.76s-1.8.25-2.43.76c-.63.5-1.04,1.22-1.23,2.15Z"/><path d="M76.76,17.01l5.17-4.3v2.43h4.4v2.1h-4.4v5.77c0,1.35.66,2.02,1.98,2.02.99,0,2.03-.28,3.13-.83v2.18c-1.06.5-2.21.76-3.46.76s-2.31-.31-3.14-.93c-.26-.19-.48-.4-.65-.63-.17-.23-.32-.54-.43-.92-.12-.38-.17-1.1-.17-2.17v-5.22h-2.42v-.23Z"/><path d="M98.07,19.84v5.01c0,.4.16.6.48.6s.85-.21,1.56-.63v1.42c-.62.34-1.13.57-1.5.7-.38.12-.77.19-1.19.19-1.18,0-1.87-.39-2.09-1.18-1.17.77-2.41,1.15-3.73,1.15-.97,0-1.77-.27-2.42-.81-.65-.54-.97-1.22-.97-2.04,0-.74.31-1.41.94-1.99.63-.58,1.52-1.05,2.68-1.39l3.52-1.02v-.63c0-1.42-.84-2.13-2.51-2.13-1.5,0-2.96.66-4.38,1.97v-2.55c1.07-1.07,2.61-1.6,4.61-1.6,1.5,0,2.71.33,3.61,1,.3.21.57.5.82.85.24.35.4.71.46,1.06.07.35.1,1.03.1,2.02ZM95.37,24.59v-3.5l-1.84.6c-.94.32-1.6.63-1.99.95-.39.32-.58.72-.58,1.2s.18.88.55,1.19c.37.31.84.46,1.43.46.88,0,1.69-.3,2.43-.91Z"/><path d="M104.28,10.19c.45,0,.84.13,1.16.4.32.26.48.59.48.97s-.16.7-.48.97c-.32.27-.71.41-1.16.41-.42,0-.8-.14-1.12-.42-.32-.28-.48-.6-.48-.97s.16-.68.48-.95c.32-.28.7-.42,1.12-.42ZM102.92,15.14h2.75v11.78h-2.75v-11.78Z"/><path d="M110.02,9.04h2.75v17.89h-2.75V9.04Z"/></svg>