<?xml version="1.0" encoding="UTF-8"?>
<svg id="l" data-name="_x36_._Retail" xmlns="http://www.w3.org/2000/svg" viewBox="0 0 36 36">
  <circle cx="17.72" cy="18.13" r="18"/>
  <path d="M12.88,14.7l.99-6.55h-5.13l-2.14,5.61c-.07.2-.1.41-.1.62,0,1.38,1.43,2.5,3.21,2.5,1.63,0,2.99-.95,3.18-2.18ZM17.72,16.89c1.77,0,3.21-1.12,3.21-2.5,0-.05,0-.1,0-.15l-.64-6.09h-5.13l-.64,6.08c0,.05,0,.1,0,.16,0,1.38,1.44,2.5,3.21,2.5ZM23.96,18.19v4.93h-12.48v-4.93c-.55.2-1.15.31-1.78.31-.24,0-.48-.03-.71-.06v7.92c0,.96.78,1.75,1.74,1.75h13.98c.96,0,1.75-.79,1.75-1.75v-7.92c-.24.04-.47.06-.71.06-.61,0-1.21-.11-1.78-.32ZM28.85,13.77l-2.15-5.61h-5.13l.99,6.54c.19,1.24,1.54,2.19,3.19,2.19,1.77,0,3.21-1.12,3.21-2.5,0-.22-.03-.42-.1-.62Z" fill="#fff"/>
</svg>