<?xml version="1.0" encoding="UTF-8"?>
<svg id="l" data-name="_x36_._Retail" xmlns="http://www.w3.org/2000/svg" viewBox="0 0 157.64 30">
  <circle cx="14.59" cy="14.59" r="14.59" fill="#fff"/>
  <path d="M10.67,11.81l.8-5.31h-4.16l-1.74,4.55c-.05.16-.08.33-.08.51,0,1.12,1.16,2.02,2.6,2.02,1.33,0,2.42-.77,2.58-1.77ZM14.59,13.58c1.44,0,2.6-.91,2.6-2.02,0-.04,0-.08,0-.12l-.51-4.94h-4.16l-.52,4.93s0,.08,0,.13c0,1.12,1.16,2.02,2.6,2.02ZM19.65,14.64v4h-10.12v-3.99c-.44.16-.93.25-1.45.25-.2,0-.39-.02-.58-.05v6.42c0,.78.64,1.42,1.41,1.42h11.33c.78,0,1.42-.64,1.42-1.42v-6.42c-.19.03-.38.05-.58.05-.49,0-.98-.09-1.45-.26ZM23.62,11.05l-1.74-4.55h-4.16l.8,5.3c.16,1,1.25,1.78,2.58,1.78,1.44,0,2.6-.91,2.6-2.02,0-.18-.03-.34-.08-.51Z" fill="#231f20"/>
  <g>
    <path d="M38.67,5.2h6.23c1.16,0,2.23.15,3.21.45.98.3,1.84.74,2.56,1.32.72.58,1.29,1.3,1.69,2.15.41.85.61,1.83.61,2.94,0,.88-.13,1.63-.38,2.24-.25.62-.53,1.12-.84,1.53-.36.46-.77.84-1.22,1.16l3.39,5.8h-6.77l-2.71-4.45v4.45h-5.77V5.2ZM44.31,16.66c.7,0,1.39-.07,2.06-.21l2.57,4.22h.84l-2.71-4.43c.98-.33,1.75-.85,2.33-1.54.58-.69.87-1.59.87-2.7,0-.77-.15-1.45-.46-2.03-.31-.58-.73-1.07-1.26-1.46-.53-.4-1.16-.69-1.88-.9-.72-.2-1.51-.3-2.36-.3h-2.93v13.36h.7v-4.01h2.22ZM42.09,16.03V7.94h2.22c1.64,0,2.93.35,3.86,1.05.93.7,1.4,1.7,1.4,3s-.47,2.3-1.4,2.99c-.93.69-2.22,1.04-3.86,1.04h-2.22ZM44.44,13.84h.3c.69,0,1.27-.15,1.75-.45.48-.3.72-.8.72-1.5s-.24-1.2-.72-1.5c-.48-.3-1.06-.45-1.75-.45h-.3v3.9Z" fill="#fff"/>
    <path d="M56.5,5.2h10.65v4.61h-4.88v1.95h4.8v4.38h-4.8v2.03h5.07v4.61h-10.84V5.2ZM65.33,20.67v-.63h-5.42v-5.77h5.15v-.63h-5.15v-5.69h5.42v-.63h-6.12v13.36h6.12Z" fill="#fff"/>
    <path d="M73.38,9.81h-3.33v-4.61h12.63v4.61h-3.33v12.97h-5.96v-12.97ZM76.71,20.67V7.94h3.87v-.63h-8.45v.63h3.87v12.73h.7Z" fill="#fff"/>
    <path d="M91.02,5.2h4.34l6.85,17.58h-5.69l-.6-1.58h-5.47l-.6,1.58h-5.69l6.86-17.58ZM88.2,20.67l.51-1.32h8.94l.51,1.32h.76l-5.23-13.36h-1.03l-5.23,13.36h.76ZM93.19,7.94l4.23,10.78h-8.45l4.23-10.78ZM94.41,17.32l-1.22-3.08-1.22,3.08h2.44Z" fill="#fff"/>
    <path d="M104.65,5.2h6.12v17.58h-6.12V5.2ZM108.06,20.67V7.31h-.7v13.36h.7Z" fill="#fff"/>
    <path d="M114.7,5.2h6.02v12.97h4.99v4.61h-11V5.2ZM124.18,20.67v-.63h-6.07V7.31h-.7v13.36h6.77Z" fill="#fff"/>
  </g>
</svg>